STARTFONT 2.1
COMMENT This font was automatically resized by bdfresize-1.4
COMMENT   mag_x = 3/5, mag_y = 3/5, blackness = 3
COMMENT  
COMMENT  40x40 JIS Supplementary Kanji Font, Version 1.3 (April 1, 1998)
COMMENT    made of Adobe-NewCenturySchoolbook, Adobe-Symbol, and CBS-CNS fonts
COMMENT  Rearranged and modified by
COMMENT    Koichi Yasuoka <yasuoka@kudpc.kyoto-u.ac.jp>
COMMENT  All Kanji characters are in Taiwan-standard-glyph style,
COMMENT    so they are far from Japanese Heisei-Mincho style.
COMMENT 
COMMENT 
COMMENT  Permission to use, copy, modify, and distribute this software and
COMMENT  its documentation for any purpose and without fee is hereby granted,
COMMENT  provided that the above copyright notices appear in all copies and
COMMENT  that both those copyright notices and this permission notice appear
COMMENT  in supporting documentation, and that the names of Adobe Systems,
COMMENT  Linotype, and CBS not be used in advertising or publicity pertaining
COMMENT  to distribution of the software without specific, written prior
COMMENT  permission.
COMMENT 
FONT -Adobe&CBS&Yasuoka-Fixed-Medium-R-Normal--24-234-75-75-C-240-JISX0212.1990-0
SIZE 24 75 75
FONTBOUNDINGBOX 24 24 0 -2
STARTPROPERTIES 18
FONT_ASCENT 23
FONT_DESCENT 2
COPYRIGHT "Adobe Systems Incorporated; Linotype; Central Bureau of Standards, Ministry of Economy, ROC"
FONTNAME_REGISTRY ""
FOUNDRY "Adobe&CBS&Yasuoka"
FAMILY_NAME "Fixed"
WEIGHT_NAME "Medium"
SLANT "R"
SETWIDTH_NAME "Normal"
ADD_STYLE_NAME ""
PIXEL_SIZE 24
POINT_SIZE 234
RESOLUTION_X 75
RESOLUTION_Y 75
SPACING "C"
AVERAGE_WIDTH 240
CHARSET_REGISTRY "JISX0212.1990"
CHARSET_ENCODING "0"
ENDPROPERTIES
CHARS 6067
STARTCHAR breve
ENCODING 8751
SWIDTH 591 0
DWIDTH 24 0
BBX 24 24 0 -2
BITMAP
000000
000000
000000
000000
000000
000000
000000
000200
003E00
001800
000000
000000
000000
000000
000000
000000
000000
000000
000000
000000
000000
000000
000000
000000
ENDCHAR
STARTCHAR caron
ENCODING 8752
SWIDTH 591 0
DWIDTH 24 0
BBX 24 24 0 -2
BITMAP
000000
000000
000000
000000
000000
000000
004200
006600
003C00
001800
000000
000000
000000
000000
000000
000000
000000
000000
000000
000000
000000
000000
000000
000000
ENDCHAR
STARTCHAR cedilla
ENCODING 8753
SWIDTH 591 0
DWIDTH 24 0
BBX 24 24 0 -2
BITMAP
000000
000000
000000
000000
000000
000000
000000
000000
000000
000000
000000
000000
000000
000000
000000
000000
000000
000000
000000
000000
001000
001C00
000C00
003C00
ENDCHAR
STARTCHAR dotaccent
ENCODING 8754
SWIDTH 591 0
DWIDTH 24 0
BBX 24 24 0 -2
BITMAP
000000
000000
000000
000000
000000
000000
000000
000000
001800
001800
000000
000000
000000
000000
000000
000000
000000
000000
000000
000000
000000
000000
000000
000000
ENDCHAR
STARTCHAR hungarumlaut
ENCODING 8755
SWIDTH 591 0
DWIDTH 24 0
BBX 24 24 0 -2
BITMAP
000000
000000
000000
000000
000000
000000
001600
003400
002C00
002000
000000
000000
000000
000000
000000
000000
000000
000000
000000
000000
000000
000000
000000
000000
ENDCHAR
STARTCHAR macron
ENCODING 8756
SWIDTH 591 0
DWIDTH 24 0
BBX 24 24 0 -2
BITMAP
000000
000000
000000
000000
000000
000000
000000
007E00
007E00
000000
000000
000000
000000
000000
000000
000000
000000
000000
000000
000000
000000
000000
000000
000000
ENDCHAR
STARTCHAR ogonek
ENCODING 8757
SWIDTH 591 0
DWIDTH 24 0
BBX 24 24 0 -2
BITMAP
000000
000000
000000
000000
000000
000000
000000
000000
000000
000000
000000
000000
000000
000000
000000
000000
000000
000000
000000
000000
001000
003800
001800
000000
ENDCHAR
STARTCHAR ring
ENCODING 8758
SWIDTH 591 0
DWIDTH 24 0
BBX 24 24 0 -2
BITMAP
000000
000000
000000
000000
000000
000000
003C00
002400
002400
001800
000000
000000
000000
000000
000000
000000
000000
000000
000000
000000
000000
000000
000000
000000
ENDCHAR
STARTCHAR tilde
ENCODING 8759
SWIDTH 591 0
DWIDTH 24 0
BBX 24 24 0 -2
BITMAP
000000
000000
000000
000000
000000
000000
000000
000000
003E00
004C00
000000
000000
000000
000000
000000
000000
000000
000000
000000
000000
000000
000000
000000
000000
ENDCHAR
STARTCHAR quotesingle
ENCODING 8760
SWIDTH 591 0
DWIDTH 24 0
BBX 24 24 0 -2
BITMAP
000000
000000
000000
000000
000000
001800
001800
000800
000800
000800
000000
000000
000000
000000
000000
000000
000000
000000
000000
000000
000000
000000
000000
000000
ENDCHAR
STARTCHAR 02-25
ENCODING 8761
SWIDTH 591 0
DWIDTH 24 0
BBX 24 24 0 -2
BITMAP
000000
000000
001800
001800
000800
000800
000800
003600
000000
000000
000000
000000
000000
000000
000000
000000
000000
000000
000000
000000
000000
000000
000000
000000
ENDCHAR
STARTCHAR exclamdown
ENCODING 8770
SWIDTH 591 0
DWIDTH 24 0
BBX 24 24 0 -2
BITMAP
000000
000000
000000
000000
000000
000000
000000
000000
000000
001800
001800
000000
000000
001800
001800
001800
001800
001800
001800
001800
001800
001800
001800
001800
ENDCHAR
STARTCHAR brokenbar
ENCODING 8771
SWIDTH 591 0
DWIDTH 24 0
BBX 24 24 0 -2
BITMAP
000000
000000
000000
000000
000000
001800
001800
001800
001800
001800
001800
000000
000000
000000
001800
001800
001800
001800
001800
001800
000000
000000
000000
000000
ENDCHAR
STARTCHAR questiondown
ENCODING 8772
SWIDTH 591 0
DWIDTH 24 0
BBX 24 24 0 -2
BITMAP
000000
000000
000000
000000
000000
000000
000000
000000
000000
000C00
001C00
000800
000000
000800
000800
000800
001000
003000
006000
00E000
00C300
00E300
006300
003E00
ENDCHAR
STARTCHAR ordmasculine
ENCODING 8811
SWIDTH 591 0
DWIDTH 24 0
BBX 24 24 0 -2
BITMAP
000000
000000
3C0000
660000
C20000
C60000
660000
180000
000000
3C0000
000000
000000
000000
000000
000000
000000
000000
000000
000000
000000
000000
000000
000000
000000
ENDCHAR
STARTCHAR ordfeminine
ENCODING 8812
SWIDTH 591 0
DWIDTH 24 0
BBX 24 24 0 -2
BITMAP
000000
000000
7C0000
6C0000
1C0000
640000
CC0000
7E0000
000000
7C0000
000000
000000
000000
000000
000000
000000
000000
000000
000000
000000
000000
000000
000000
000000
ENDCHAR
STARTCHAR copyright
ENCODING 8813
SWIDTH 591 0
DWIDTH 24 0
BBX 24 24 0 -2
BITMAP
000000
000000
000000
000000
000000
00FE00
01C380
0301C0
023CC0
066660
04C260
04C020
04C020
04C020
04C060
066660
023C40
030180
00FF00
003C00
000000
000000
000000
000000
ENDCHAR
STARTCHAR registered
ENCODING 8814
SWIDTH 591 0
DWIDTH 24 0
BBX 24 24 0 -2
BITMAP
000000
000000
000000
000000
000000
003C00
00FF00
038180
03F8C0
066660
046660
046420
047820
046C20
066C60
066660
02E740
030180
00FF00
003C00
000000
000000
000000
000000
ENDCHAR
STARTCHAR trademark
ENCODING 8815
SWIDTH 591 0
DWIDTH 24 0
BBX 24 24 0 -2
BITMAP
000000
000000
7FB0C0
4C39C0
0C39C0
0C2940
0C2F40
0C2E40
0C2640
1C36E0
000000
000000
000000
000000
000000
000000
000000
000000
000000
000000
000000
000000
000000
000000
ENDCHAR
STARTCHAR currency
ENCODING 8816
SWIDTH 591 0
DWIDTH 24 0
BBX 24 24 0 -2
BITMAP
000000
000000
000000
000000
000000
000000
000000
000000
01BD80
00FF00
00C300
018180
018180
018180
01C380
00C300
00FF00
00BD00
000000
000000
000000
000000
000000
000000
ENDCHAR
STARTCHAR 02-81
ENCODING 8817
SWIDTH 591 0
DWIDTH 24 0
BBX 24 24 0 -2
BITMAP
000000
000000
000000
000000
000038
7C1FFC
1C0DC6
1E0D86
1F0D87
178D87
138D86
11CDC6
11ECFC
10EC38
107C00
103C00
103C00
101C00
381C00
7E0C00
000000
000000
000000
000000
ENDCHAR
STARTCHAR 06-65
ENCODING 9825
SWIDTH 591 0
DWIDTH 24 0
BBX 24 24 0 -2
BITMAP
000000
000000
000000
038000
038000
011800
011800
011C00
003C00
002E00
006E00
006600
004700
00C700
00FF00
008380
008380
0181C0
0381C0
07C3E0
000000
000000
000000
000000
ENDCHAR
STARTCHAR 06-66
ENCODING 9826
SWIDTH 591 0
DWIDTH 24 0
BBX 24 24 0 -2
BITMAP
000000
000000
000000
1C0000
1C0000
0BFFC0
08C1C0
08C0C0
00C040
00C240
00C600
00FE00
00FE00
00C600
00C640
00C040
00C040
00C0C0
00FFC0
03FFC0
000000
000000
000000
000000
ENDCHAR
STARTCHAR 06-67
ENCODING 9827
SWIDTH 591 0
DWIDTH 24 0
BBX 24 24 0 -2
BITMAP
000000
000000
000000
300000
300000
17E3E0
1181C0
1181C0
0181C0
0181C0
0181C0
01FFC0
01FFC0
0181C0
0181C0
0181C0
0181C0
0181C0
03C1C0
07E7F0
000000
000000
000000
000000
ENDCHAR
STARTCHAR 06-68
ENCODING 9828
SWIDTH 591 0
DWIDTH 24 0
BBX 24 24 0 -2
BITMAP
000000
000000
000000
038000
038000
017E00
011800
011800
001800
001800
001800
001800
001800
001800
001800
001800
001800
001800
001C00
007F00
000000
000000
000000
000000
ENDCHAR
STARTCHAR 06-69
ENCODING 9829
SWIDTH 591 0
DWIDTH 24 0
BBX 24 24 0 -2
BITMAP
000000
000000
003600
002400
000000
007E00
001800
001800
001800
001800
001800
001800
001800
001800
001800
001800
001800
001800
001C00
007F00
000000
000000
000000
000000
ENDCHAR
STARTCHAR 06-71
ENCODING 9831
SWIDTH 591 0
DWIDTH 24 0
BBX 24 24 0 -2
BITMAP
000000
000000
000000
0C0000
0C0000
0CFF00
05C380
018180
0381C0
0300C0
0700E0
060060
060060
060060
0700C0
0300C0
0381C0
018180
00FF00
007E00
000000
000000
000000
000000
ENDCHAR
STARTCHAR 06-73
ENCODING 9833
SWIDTH 591 0
DWIDTH 24 0
BBX 24 24 0 -2
BITMAP
000000
000000
000000
0C0000
0C0000
0C0000
078380
00E6C0
0065C0
003880
003800
003800
001800
001800
001800
001800
001800
001800
003800
007C00
000000
000000
000000
000000
ENDCHAR
STARTCHAR 06-74
ENCODING 9834
SWIDTH 591 0
DWIDTH 24 0
BBX 24 24 0 -2
BITMAP
000000
000000
000000
000000
003600
000000
038380
00E6C0
0065C0
003880
003800
003800
001800
001800
001800
001800
001800
001800
003800
007C00
000000
000000
000000
000000
ENDCHAR
STARTCHAR 06-76
ENCODING 9836
SWIDTH 591 0
DWIDTH 24 0
BBX 24 24 0 -2
BITMAP
000000
000000
000000
0C0000
0C0000
0C0000
047E00
00C180
0181C0
0380C0
0380E0
0380E0
0380E0
0380E0
0380C0
018180
00C300
062220
07F7E0
07E7E0
000000
000000
000000
000000
ENDCHAR
STARTCHAR 06-81
ENCODING 9841
SWIDTH 591 0
DWIDTH 24 0
BBX 24 24 0 -2
BITMAP
000000
000000
000000
001800
001800
000800
000800
000800
000000
007000
00D980
018580
018700
038300
038300
038700
038700
018740
01CDC0
007880
000000
000000
000000
000000
ENDCHAR
STARTCHAR 06-82
ENCODING 9842
SWIDTH 591 0
DWIDTH 24 0
BBX 24 24 0 -2
BITMAP
000000
000000
000000
001800
001800
000800
000800
000800
000000
001800
007E00
00E600
00C000
006000
007C00
006000
00C000
00C100
00E300
007E00
001800
000000
000000
000000
ENDCHAR
STARTCHAR 06-83
ENCODING 9843
SWIDTH 591 0
DWIDTH 24 0
BBX 24 24 0 -2
BITMAP
000000
000000
000000
001800
001800
000800
000800
000800
000000
004200
00EF00
01FB80
017180
007180
007180
007180
007180
007180
007180
002180
000180
000180
000180
000180
ENDCHAR
STARTCHAR 06-84
ENCODING 9844
SWIDTH 591 0
DWIDTH 24 0
BBX 24 24 0 -2
BITMAP
000000
000000
000000
001800
001800
000800
000800
000800
000000
000000
007800
007800
001800
001800
001800
001800
001800
001A00
001E00
001C00
000000
000000
000000
000000
ENDCHAR
STARTCHAR 06-85
ENCODING 9845
SWIDTH 591 0
DWIDTH 24 0
BBX 24 24 0 -2
BITMAP
000000
000000
000000
000000
000000
000000
000000
003600
000000
000000
007800
007800
001800
001800
001800
001800
001800
001A00
001E00
001C00
000000
000000
000000
000000
ENDCHAR
STARTCHAR 06-86
ENCODING 9846
SWIDTH 591 0
DWIDTH 24 0
BBX 24 24 0 -2
BITMAP
000000
000000
001800
001800
000800
000800
000800
003600
000000
000000
007800
007800
001800
001800
001800
001800
001800
001A00
001E00
001C00
000000
000000
000000
000000
ENDCHAR
STARTCHAR 06-87
ENCODING 9847
SWIDTH 591 0
DWIDTH 24 0
BBX 24 24 0 -2
BITMAP
000000
000000
000000
001800
001800
000800
000800
000800
000000
001800
007600
00C300
00C380
00C180
00C180
00C180
00C180
00E300
007700
003E00
000000
000000
000000
000000
ENDCHAR
STARTCHAR sigma1
ENCODING 9848
SWIDTH 591 0
DWIDTH 24 0
BBX 24 24 0 -2
BITMAP
000000
000000
000000
000000
000000
000000
000000
000000
000000
000E00
001F00
003E00
004000
00C000
008000
008000
00C000
00E000
007F00
003F00
000100
000100
001F00
001E00
ENDCHAR
STARTCHAR 06-89
ENCODING 9849
SWIDTH 591 0
DWIDTH 24 0
BBX 24 24 0 -2
BITMAP
000000
000000
000000
001800
001800
000800
000800
000800
000000
004200
00E300
01E180
017180
007180
0071C0
0071C0
007180
003180
003300
001E00
000000
000000
000000
000000
ENDCHAR
STARTCHAR 06-90
ENCODING 9850
SWIDTH 591 0
DWIDTH 24 0
BBX 24 24 0 -2
BITMAP
000000
000000
000000
000000
000000
000000
000000
003600
000000
004200
00E300
01E180
017180
007180
0071C0
0071C0
007180
003180
003300
001E00
000000
000000
000000
000000
ENDCHAR
STARTCHAR 06-91
ENCODING 9851
SWIDTH 591 0
DWIDTH 24 0
BBX 24 24 0 -2
BITMAP
000000
000000
001800
001800
000800
000800
000800
003600
000000
004200
00E300
01E180
017180
007180
0071C0
0071C0
007180
003180
003300
001E00
000000
000000
000000
000000
ENDCHAR
STARTCHAR 06-92
ENCODING 9852
SWIDTH 591 0
DWIDTH 24 0
BBX 24 24 0 -2
BITMAP
000000
000000
000000
001800
001800
000800
000800
000800
000000
004200
00C300
019980
0319C0
0318C0
0318C0
0318C0
0310C0
0319C0
01EF80
00C700
000000
000000
000000
000000
ENDCHAR
STARTCHAR 07-34
ENCODING 10050
SWIDTH 591 0
DWIDTH 24 0
BBX 24 24 0 -2
BITMAP
000000
000000
000000
000000
000000
03FFC0
0399C0
031840
031840
021840
001980
001FE0
001C60
001860
001860
001860
001860
001860
001C60
007F60
000360
0003E0
000000
000000
ENDCHAR
STARTCHAR 07-35
ENCODING 10051
SWIDTH 591 0
DWIDTH 24 0
BBX 24 24 0 -2
BITMAP
000000
000000
000600
000C00
001000
000000
01FF80
00E1C0
00C0C0
00C000
00C000
00C000
00C000
00C000
00C000
00C000
00C000
00C000
00E000
01F000
000000
000000
000000
000000
ENDCHAR
STARTCHAR 07-36
ENCODING 10052
SWIDTH 591 0
DWIDTH 24 0
BBX 24 24 0 -2
BITMAP
000000
000000
000000
000000
000000
007F00
00C300
01C180
0180C0
0380C0
038000
039C00
03FE00
03C300
038040
038040
0180C0
01C080
00FF00
003E00
000000
000000
000000
000000
ENDCHAR
STARTCHAR 07-37
ENCODING 10053
SWIDTH 591 0
DWIDTH 24 0
BBX 24 24 0 -2
BITMAP
000000
000000
000000
000000
000000
00FE80
00C380
018180
018080
01C080
00F000
00FF00
003F80
000380
0101C0
0181C0
0181C0
01C180
01FF00
013E00
000000
000000
000000
000000
ENDCHAR
STARTCHAR 07-38
ENCODING 10054
SWIDTH 591 0
DWIDTH 24 0
BBX 24 24 0 -2
BITMAP
000000
000000
000000
000000
000000
007E00
001800
001800
001800
001800
001800
001800
001800
001800
001800
001800
001800
001800
001C00
007F00
000000
000000
000000
000000
ENDCHAR
STARTCHAR 07-39
ENCODING 10055
SWIDTH 591 0
DWIDTH 24 0
BBX 24 24 0 -2
BITMAP
000000
000000
003600
002400
000000
007E00
001800
001800
001800
001800
001800
001800
001800
001800
001800
001800
001800
001800
001C00
007F00
000000
000000
000000
000000
ENDCHAR
STARTCHAR 07-40
ENCODING 10056
SWIDTH 591 0
DWIDTH 24 0
BBX 24 24 0 -2
BITMAP
000000
000000
000000
000000
000000
001F80
000600
000600
000600
000600
000600
000600
000600
000600
00C600
01C600
01C600
018600
01FE00
007800
000000
000000
000000
000000
ENDCHAR
STARTCHAR 07-41
ENCODING 10057
SWIDTH 591 0
DWIDTH 24 0
BBX 24 24 0 -2
BITMAP
000000
000000
000000
000000
000000
00FE00
007E00
007E00
007E00
007E00
007FC0
007FF0
007E30
007E38
0C7E38
1E7E38
1E7E38
1C7E30
0FEFF0
07C7C0
000000
000000
000000
000000
ENDCHAR
STARTCHAR 07-42
ENCODING 10058
SWIDTH 591 0
DWIDTH 24 0
BBX 24 24 0 -2
BITMAP
000000
000000
000000
000000
000000
1F9F80
060600
060600
060600
060600
0607E0
07FFF0
07FE18
060618
060618
060618
060618
060618
0E0FF0
3F9FE0
000000
000000
000000
000000
ENDCHAR
STARTCHAR 07-43
ENCODING 10059
SWIDTH 591 0
DWIDTH 24 0
BBX 24 24 0 -2
BITMAP
000000
000000
000000
000000
000000
03FFC0
0399C0
031840
031840
021840
001980
001FE0
001C60
001860
001860
001860
001860
001860
001C60
007FF8
000000
000000
000000
000000
ENDCHAR
STARTCHAR 07-44
ENCODING 10060
SWIDTH 591 0
DWIDTH 24 0
BBX 24 24 0 -2
BITMAP
000000
000000
000600
000C00
001000
000000
07E780
018300
018600
018C00
019800
01B000
01F000
01F800
019C00
019E00
018F00
018700
018380
07E7E0
000000
000000
000000
000000
ENDCHAR
STARTCHAR 07-45
ENCODING 10061
SWIDTH 591 0
DWIDTH 24 0
BBX 24 24 0 -2
BITMAP
000000
003600
003E00
000000
000000
03E3E0
01C1C0
00C180
00C180
00E100
00E100
006300
007200
007200
003600
003C00
001C00
001C00
001800
000800
001800
019000
01B000
01C000
ENDCHAR
STARTCHAR 07-46
ENCODING 10062
SWIDTH 591 0
DWIDTH 24 0
BBX 24 24 0 -2
BITMAP
000000
000000
000000
000000
000000
03C3E0
0181C0
0181C0
0181C0
0181C0
0181C0
0181C0
0181C0
0181C0
0181C0
0181C0
0181C0
01FFC0
07FFE0
001800
000800
000800
000000
000000
ENDCHAR
STARTCHAR 07-82
ENCODING 10098
SWIDTH 591 0
DWIDTH 24 0
BBX 24 24 0 -2
BITMAP
000000
000000
000000
000000
000000
00F000
003000
00FC00
00F800
003000
003300
003F80
0038C0
0030C0
0030C0
0030C0
0030C0
0030C0
0030C0
00FEC0
0006C0
000780
000000
000000
ENDCHAR
STARTCHAR 07-83
ENCODING 10099
SWIDTH 591 0
DWIDTH 24 0
BBX 24 24 0 -2
BITMAP
000000
000000
000000
000000
000C00
001C00
003000
000000
00FE00
00FF00
006700
006300
006200
006000
006000
006000
006000
006000
00F000
000000
000000
000000
000000
000000
ENDCHAR
STARTCHAR 07-84
ENCODING 10100
SWIDTH 591 0
DWIDTH 24 0
BBX 24 24 0 -2
BITMAP
000000
000000
000000
000000
000000
000000
000000
000000
000000
000000
001C00
003F00
006300
00C000
00FC00
00F200
00C000
006300
007E00
001C00
000000
000000
000000
000000
ENDCHAR
STARTCHAR 07-85
ENCODING 10101
SWIDTH 591 0
DWIDTH 24 0
BBX 24 24 0 -2
BITMAP
000000
000000
000000
000000
000000
000000
000000
000000
000000
000000
001E00
007E00
004200
007200
007C00
003E00
004300
004300
007F00
005C00
000000
000000
000000
000000
ENDCHAR
STARTCHAR 07-86
ENCODING 10102
SWIDTH 591 0
DWIDTH 24 0
BBX 24 24 0 -2
BITMAP
000000
000000
000000
000000
000000
001800
001800
001800
000000
000000
001800
003800
001800
001800
001800
001800
001800
001800
001800
003E00
000000
000000
000000
000000
ENDCHAR
STARTCHAR 07-87
ENCODING 10103
SWIDTH 591 0
DWIDTH 24 0
BBX 24 24 0 -2
BITMAP
000000
000000
000000
000000
000000
000000
000000
003600
003600
000000
003800
001800
001800
001800
001800
001800
001800
001800
001800
003E00
000000
000000
000000
000000
ENDCHAR
STARTCHAR 07-88
ENCODING 10104
SWIDTH 591 0
DWIDTH 24 0
BBX 24 24 0 -2
BITMAP
000000
000000
000000
000000
000000
000400
000E00
000600
000000
000000
000600
000E00
000600
000600
000600
000600
000600
000600
000600
000600
000600
002600
007400
003C00
ENDCHAR
STARTCHAR 07-89
ENCODING 10105
SWIDTH 591 0
DWIDTH 24 0
BBX 24 24 0 -2
BITMAP
000000
000000
000000
000000
000000
000000
000000
000000
000000
01FF00
00EE00
00CE00
00CE00
00CFE0
00CFF0
00CE70
02CE30
07CE70
07CFE0
038E00
000000
000000
000000
000000
ENDCHAR
STARTCHAR 07-90
ENCODING 10106
SWIDTH 591 0
DWIDTH 24 0
BBX 24 24 0 -2
BITMAP
000000
000000
000000
000000
000000
000000
000000
000000
000000
0F3C00
071800
071800
071800
073FC0
07FFE0
0718E0
071860
0718E0
073FC0
0F3E00
000000
000000
000000
000000
ENDCHAR
STARTCHAR 07-91
ENCODING 10107
SWIDTH 591 0
DWIDTH 24 0
BBX 24 24 0 -2
BITMAP
000000
000000
000000
000000
000000
01C000
00C000
01F800
01F000
00C000
00CC00
00FF00
00E300
00C300
00C300
00C300
00C300
00C300
00C300
01E7C0
000000
000000
000000
000000
ENDCHAR
STARTCHAR 07-92
ENCODING 10108
SWIDTH 591 0
DWIDTH 24 0
BBX 24 24 0 -2
BITMAP
000000
000000
000000
000000
000000
000600
000C00
001000
000000
000100
01C380
00C780
004800
007000
007800
005C00
004C00
004E00
004700
01E780
000000
000000
000000
000000
ENDCHAR
STARTCHAR 07-93
ENCODING 10109
SWIDTH 591 0
DWIDTH 24 0
BBX 24 24 0 -2
BITMAP
000000
000000
000000
000000
000000
000000
000000
003600
003E00
000000
01E780
01C300
00E300
006200
007600
007400
003C00
003800
001800
001800
001000
01B000
03E000
01C000
ENDCHAR
STARTCHAR 07-94
ENCODING 10110
SWIDTH 591 0
DWIDTH 24 0
BBX 24 24 0 -2
BITMAP
000000
000000
000000
000000
000000
000000
000000
000000
000000
00E700
00E700
00E700
00E700
00E700
00E700
00E700
00E700
00FF00
00FF00
000800
000800
000000
000000
000000
ENDCHAR
STARTCHAR AE
ENCODING 10529
SWIDTH 591 0
DWIDTH 24 0
BBX 24 24 0 -2
BITMAP
000000
000000
000000
000000
000000
00FFF8
006C38
006C18
004C48
00CC48
008C40
018FC0
010FC0
03FC40
03FC48
060C48
040C08
0C0C18
0C1FF8
1E3FF8
000000
000000
000000
000000
ENDCHAR
STARTCHAR Eth
ENCODING 10530
SWIDTH 591 0
DWIDTH 24 0
BBX 24 24 0 -2
BITMAP
000000
000000
000000
000000
000000
07FF00
01C780
00C180
00C1C0
00C0C0
00C0E0
00C0E0
03F0E0
01C0E0
00C0E0
00C0C0
00C1C0
00C180
03FF00
07FE00
000000
000000
000000
000000
ENDCHAR
STARTCHAR 09-04
ENCODING 10532
SWIDTH 591 0
DWIDTH 24 0
BBX 24 24 0 -2
BITMAP
000000
000000
000000
000000
000000
07E3E0
0181C0
3FFFFC
1FFFF8
0181C0
0181C0
01FFC0
01FFC0
0181C0
0181C0
0181C0
0181C0
0181C0
03C1C0
07E7F0
000000
000000
000000
000000
ENDCHAR
STARTCHAR 09-06
ENCODING 10534
SWIDTH 591 0
DWIDTH 24 0
BBX 24 24 0 -2
BITMAP
000000
000000
000000
000000
000000
03F1F8
00C060
00C060
00C060
00C060
00C060
00C060
00C060
00C060
00D860
00DC60
00DC60
00D8E0
01FFC0
07FF80
000000
000000
000000
000000
ENDCHAR
STARTCHAR Lslash
ENCODING 10536
SWIDTH 591 0
DWIDTH 24 0
BBX 24 24 0 -2
BITMAP
000000
000000
000000
000000
000000
03F000
00C000
00C000
00C000
00C000
00F800
00F000
00E000
01C000
03C040
00C040
00C0C0
00C0C0
00E3C0
03FF80
000000
000000
000000
000000
ENDCHAR
STARTCHAR 09-09
ENCODING 10537
SWIDTH 591 0
DWIDTH 24 0
BBX 24 24 0 -2
BITMAP
000000
000000
000000
000000
000000
03F000
00C000
00C000
00C000
00C000
00C000
00C000
00C000
00C000
00D840
00D840
00C040
00C0C0
00FFC0
03FF80
000000
000000
000000
000000
ENDCHAR
STARTCHAR 09-11
ENCODING 10539
SWIDTH 591 0
DWIDTH 24 0
BBX 24 24 0 -2
BITMAP
000000
000000
000000
000000
000000
000000
07FF00
01C180
018180
0181C0
0181C0
0181C0
0181C0
0181C0
0181C0
0181C0
0181C0
0181C0
0185C0
07EFC0
000F80
000300
000000
000000
ENDCHAR
STARTCHAR Oslash
ENCODING 10540
SWIDTH 591 0
DWIDTH 24 0
BBX 24 24 0 -2
BITMAP
000000
000000
000000
000000
000040
00FFC0
01C380
018380
0383C0
0306C0
070CE0
0718E0
0718E0
0730E0
0320C0
03C1C0
03C1C0
01C380
01FF00
037E00
060000
000000
000000
000000
ENDCHAR
STARTCHAR OE
ENCODING 10541
SWIDTH 591 0
DWIDTH 24 0
BBX 24 24 0 -2
BITMAP
000000
000000
000000
000000
000000
03FFF8
061C18
0E1C18
0C0C18
1C0C48
1C0CC0
1C0CC0
1C0FC0
1C0DC0
1C0CC8
1C0C48
0C0C08
0E1C18
073C38
01FFF8
000000
000000
000000
000000
ENDCHAR
STARTCHAR 09-15
ENCODING 10543
SWIDTH 591 0
DWIDTH 24 0
BBX 24 24 0 -2
BITMAP
000000
000000
000000
000000
000000
03FFC0
0399C0
031840
031840
021840
001C00
007E00
001800
001800
001800
001800
001800
001800
001C00
007F00
000000
000000
000000
000000
ENDCHAR
STARTCHAR Thorn
ENCODING 10544
SWIDTH 591 0
DWIDTH 24 0
BBX 24 24 0 -2
BITMAP
000000
000000
000000
000000
000000
03F000
00C000
00C000
00FE00
00FF80
00C1C0
00C1C0
00C1C0
00C1C0
00C3C0
00FF80
00E000
00C000
00E000
03F800
000000
000000
000000
000000
ENDCHAR
STARTCHAR ae
ENCODING 10561
SWIDTH 591 0
DWIDTH 24 0
BBX 24 24 0 -2
BITMAP
000000
000000
000000
000000
000000
000000
000000
000000
000000
000000
00F380
03FFE0
031C60
031860
00FFE0
039800
071800
061C20
07FFE0
03C3C0
000000
000000
000000
000000
ENDCHAR
STARTCHAR 09-34
ENCODING 10562
SWIDTH 591 0
DWIDTH 24 0
BBX 24 24 0 -2
BITMAP
000000
000000
000000
000000
000000
000700
000300
001F80
000F80
000300
003B00
00FF00
00C700
018300
018300
018300
018300
01C700
00FF00
003B80
000000
000000
000000
000000
ENDCHAR
STARTCHAR eth
ENCODING 10563
SWIDTH 591 0
DWIDTH 24 0
BBX 24 24 0 -2
BITMAP
000000
000000
000000
000000
000000
006000
003C00
003C00
000C00
000600
001F00
007F00
00C300
00C300
00C300
00C300
00C300
00C300
00FF00
003C00
000000
000000
000000
000000
ENDCHAR
STARTCHAR 09-36
ENCODING 10564
SWIDTH 591 0
DWIDTH 24 0
BBX 24 24 0 -2
BITMAP
000000
000000
000000
000000
000000
01C000
00C000
01F800
01F000
00C000
00CC00
00FF00
00E300
00C300
00C300
00C300
00C300
00C300
00C300
01E7C0
000000
000000
000000
000000
ENDCHAR
STARTCHAR dotlessi
ENCODING 10565
SWIDTH 591 0
DWIDTH 24 0
BBX 24 24 0 -2
BITMAP
000000
000000
000000
000000
000000
000000
000000
000000
000000
000000
001800
001800
001800
001800
001800
001800
001800
001800
001800
003E00
000000
000000
000000
000000
ENDCHAR
STARTCHAR 09-38
ENCODING 10566
SWIDTH 591 0
DWIDTH 24 0
BBX 24 24 0 -2
BITMAP
000000
000000
000000
000000
000000
002300
007300
003300
000000
000000
003300
007700
003300
003300
003300
003300
003300
003300
003300
00FF00
000300
001300
001B00
001E00
ENDCHAR
STARTCHAR 09-39
ENCODING 10567
SWIDTH 591 0
DWIDTH 24 0
BBX 24 24 0 -2
BITMAP
000000
000000
000000
000000
000000
000000
000000
000000
000000
000100
01C380
00C780
004800
007000
007800
005C00
004C00
004E00
004700
01E780
000000
000000
000000
000000
ENDCHAR
STARTCHAR lslash
ENCODING 10568
SWIDTH 591 0
DWIDTH 24 0
BBX 24 24 0 -2
BITMAP
000000
000000
000000
000000
000000
003800
001800
001800
001800
001A00
001E00
001C00
007800
001800
001800
001800
001800
001800
001800
003E00
000000
000000
000000
000000
ENDCHAR
STARTCHAR 09-41
ENCODING 10569
SWIDTH 591 0
DWIDTH 24 0
BBX 24 24 0 -2
BITMAP
000000
000000
000000
000000
000000
001800
003800
001800
001800
001800
001800
001800
001800
001800
001B00
001B00
001800
001800
001800
003E00
000000
000000
000000
000000
ENDCHAR
STARTCHAR 09-42
ENCODING 10570
SWIDTH 591 0
DWIDTH 24 0
BBX 24 24 0 -2
BITMAP
000000
000000
000000
000000
000000
000000
000000
000000
060000
060000
02CE00
03FF00
02E300
00C300
00C300
00C300
00C300
00C300
00C300
01E7C0
000000
000000
000000
000000
ENDCHAR
STARTCHAR 09-43
ENCODING 10571
SWIDTH 591 0
DWIDTH 24 0
BBX 24 24 0 -2
BITMAP
000000
000000
000000
000000
000000
000000
000000
000000
000000
000000
00CE00
01FF00
00E300
00C300
00C300
00C300
00C300
00C300
00CB00
01FB00
001F00
000400
000000
000000
ENDCHAR
STARTCHAR oslash
ENCODING 10572
SWIDTH 591 0
DWIDTH 24 0
BBX 24 24 0 -2
BITMAP
000000
000000
000000
000000
000000
000000
000000
000000
000300
000300
001E00
007E00
00CF00
00CB00
00DB00
00DB00
00D300
00F300
00FE00
007800
00C000
00C000
000000
000000
ENDCHAR
STARTCHAR oe
ENCODING 10573
SWIDTH 591 0
DWIDTH 24 0
BBX 24 24 0 -2
BITMAP
000000
000000
000000
000000
000000
000000
000000
000000
000000
000000
01E380
033EE0
061C60
061860
061FE0
061800
061800
061C20
03BFE0
00C380
000000
000000
000000
000000
ENDCHAR
STARTCHAR germandbls
ENCODING 10574
SWIDTH 591 0
DWIDTH 24 0
BBX 24 24 0 -2
BITMAP
000000
000000
000000
000000
000000
003F00
007380
006180
006180
006180
006300
006E00
006380
006180
0061C0
0061C0
0061C0
006DC0
006D80
01EF00
000200
000000
000000
000000
ENDCHAR
STARTCHAR 09-47
ENCODING 10575
SWIDTH 591 0
DWIDTH 24 0
BBX 24 24 0 -2
BITMAP
000000
000000
000000
000000
000000
000000
001000
001000
003000
003000
00FE00
003000
007800
003000
003000
003000
003100
003300
003E00
001E00
000000
000000
000000
000000
ENDCHAR
STARTCHAR thorn
ENCODING 10576
SWIDTH 591 0
DWIDTH 24 0
BBX 24 24 0 -2
BITMAP
000000
000000
000000
000000
000000
000000
004000
01C000
00C000
00C000
00CE00
00FF00
00E380
00C180
00C180
00C180
00C180
00E380
00FF00
00DE00
00C000
00C000
00C000
01F000
ENDCHAR
STARTCHAR Aacute
ENCODING 10785
SWIDTH 591 0
DWIDTH 24 0
BBX 24 24 0 -2
BITMAP
000000
000300
000600
000800
000000
001800
001800
001C00
003C00
002E00
006E00
006600
004700
00C700
00FF00
008380
008380
0181C0
0381C0
07C3E0
000000
000000
000000
000000
ENDCHAR
STARTCHAR Agrave
ENCODING 10786
SWIDTH 591 0
DWIDTH 24 0
BBX 24 24 0 -2
BITMAP
000000
00C000
006000
001000
000000
001800
001800
001C00
003C00
002E00
006E00
006600
004700
00C700
00FF00
008380
008380
0181C0
0381C0
07C3E0
000000
000000
000000
000000
ENDCHAR
STARTCHAR Adieresis
ENCODING 10787
SWIDTH 591 0
DWIDTH 24 0
BBX 24 24 0 -2
BITMAP
000000
000000
006600
002400
000000
001800
001800
001C00
003C00
002E00
006E00
006600
004700
00C700
00FF00
008380
008380
0181C0
0381C0
07C3E0
000000
000000
000000
000000
ENDCHAR
STARTCHAR Acircumflex
ENCODING 10788
SWIDTH 591 0
DWIDTH 24 0
BBX 24 24 0 -2
BITMAP
000000
000800
001C00
002200
000000
001800
001800
001C00
003C00
002E00
006E00
006600
004700
00C700
00FF00
008380
008380
0181C0
0381C0
07C3E0
000000
000000
000000
000000
ENDCHAR
STARTCHAR 10-05
ENCODING 10789
SWIDTH 591 0
DWIDTH 24 0
BBX 24 24 0 -2
BITMAP
000000
000200
003E00
001800
000000
001800
001800
001C00
003C00
002E00
006E00
006600
004700
00C700
00FF00
008380
008380
0181C0
0381C0
07C3E0
000000
000000
000000
000000
ENDCHAR
STARTCHAR 10-06
ENCODING 10790
SWIDTH 591 0
DWIDTH 24 0
BBX 24 24 0 -2
BITMAP
004200
006600
003C00
001800
000000
001800
001800
001C00
003C00
002E00
006E00
006600
004700
00C700
00FF00
008380
008380
0181C0
0381C0
07C3E0
000000
000000
000000
000000
ENDCHAR
STARTCHAR 10-07
ENCODING 10791
SWIDTH 591 0
DWIDTH 24 0
BBX 24 24 0 -2
BITMAP
000000
000000
000000
007E00
000000
001800
001800
001C00
003C00
002E00
006E00
006600
004700
00C700
00FF00
008380
008380
0181C0
0381C0
07C3E0
000000
000000
000000
000000
ENDCHAR
STARTCHAR 10-08
ENCODING 10792
SWIDTH 591 0
DWIDTH 24 0
BBX 24 24 0 -2
BITMAP
000000
000000
000000
000000
000000
001800
001800
001C00
003C00
002E00
006E00
006600
004700
00C700
00FF00
008380
008380
0181C0
0381C0
07C3E0
000080
0001C0
0001C0
000000
ENDCHAR
STARTCHAR Aring
ENCODING 10793
SWIDTH 591 0
DWIDTH 24 0
BBX 24 24 0 -2
BITMAP
001800
003C00
002400
003C00
000000
001800
001800
001C00
003C00
002E00
006E00
006600
004700
00C700
00FF00
008380
008380
0181C0
0381C0
07C3E0
000000
000000
000000
000000
ENDCHAR
STARTCHAR Atilde
ENCODING 10794
SWIDTH 591 0
DWIDTH 24 0
BBX 24 24 0 -2
BITMAP
000000
000000
003E00
004C00
000000
001800
001800
001C00
003C00
002E00
006E00
006600
004700
00C700
00FF00
008380
008380
0181C0
0381C0
07C3E0
000000
000000
000000
000000
ENDCHAR
STARTCHAR 10-11
ENCODING 10795
SWIDTH 591 0
DWIDTH 24 0
BBX 24 24 0 -2
BITMAP
000000
000C00
001C00
003000
000000
007FC0
00C3C0
01C1C0
0180C0
0380C0
038000
038000
038000
038000
038040
038040
0180C0
01C080
00FF00
003E00
000000
000000
000000
000000
ENDCHAR
STARTCHAR 10-12
ENCODING 10796
SWIDTH 591 0
DWIDTH 24 0
BBX 24 24 0 -2
BITMAP
000000
001800
003C00
004200
000000
007FC0
00C3C0
01C1C0
0180C0
0380C0
038000
038000
038000
038000
038040
038040
0180C0
01C080
00FF00
003E00
000000
000000
000000
000000
ENDCHAR
STARTCHAR 10-13
ENCODING 10797
SWIDTH 591 0
DWIDTH 24 0
BBX 24 24 0 -2
BITMAP
004200
006600
003C00
001800
000000
007FC0
00C3C0
01C1C0
0180C0
0380C0
038000
038000
038000
038000
038040
038040
0180C0
01C080
00FF00
003E00
000000
000000
000000
000000
ENDCHAR
STARTCHAR Ccedilla
ENCODING 10798
SWIDTH 591 0
DWIDTH 24 0
BBX 24 24 0 -2
BITMAP
000000
000000
000000
000000
000000
003FC0
00E3C0
01C1C0
0180C0
0380C0
038000
038000
038000
038000
038040
038040
0180C0
01C080
00F300
003E00
001000
001C00
000C00
003C00
ENDCHAR
STARTCHAR 10-15
ENCODING 10799
SWIDTH 591 0
DWIDTH 24 0
BBX 24 24 0 -2
BITMAP
000000
000000
001800
001800
000000
007FC0
00C3C0
01C1C0
0180C0
0380C0
038000
038000
038000
038000
038040
038040
0180C0
01C080
00FF00
003E00
000000
000000
000000
000000
ENDCHAR
STARTCHAR 10-16
ENCODING 10800
SWIDTH 591 0
DWIDTH 24 0
BBX 24 24 0 -2
BITMAP
004200
006600
003C00
001800
000000
03FF00
00C380
00C1C0
00C1C0
00C0E0
00C0E0
00C0E0
00C0E0
00C0E0
00C0E0
00C0E0
00C0C0
00C180
01FF80
07FE00
000000
000000
000000
000000
ENDCHAR
STARTCHAR Eacute
ENCODING 10801
SWIDTH 591 0
DWIDTH 24 0
BBX 24 24 0 -2
BITMAP
000100
000300
000600
000C00
000800
03FFC0
00C1C0
00C0C0
00C040
00C240
00C600
00FE00
00FE00
00C600
00C640
00C040
00C040
00C0C0
00FFC0
03FFC0
000000
000000
000000
000000
ENDCHAR
STARTCHAR Egrave
ENCODING 10802
SWIDTH 591 0
DWIDTH 24 0
BBX 24 24 0 -2
BITMAP
000000
003000
003800
000C00
000400
03FFC0
00C1C0
00C0C0
00C040
00C240
00C600
00FE00
00FE00
00C600
00C640
00C040
00C040
00C0C0
00FFC0
03FFC0
000000
000000
000000
000000
ENDCHAR
STARTCHAR Edieresis
ENCODING 10803
SWIDTH 591 0
DWIDTH 24 0
BBX 24 24 0 -2
BITMAP
000000
000000
003F00
001200
000000
03FFC0
00C1C0
00C0C0
00C040
00C240
00C600
00FE00
00FE00
00C600
00C640
00C040
00C040
00C0C0
00FFC0
03FFC0
000000
000000
000000
000000
ENDCHAR
STARTCHAR Ecircumflex
ENCODING 10804
SWIDTH 591 0
DWIDTH 24 0
BBX 24 24 0 -2
BITMAP
000800
001C00
003E00
002300
000000
03FFC0
00C1C0
00C0C0
00C040
00C240
00C600
00FE00
00FE00
00C600
00C640
00C040
00C040
00C0C0
00FFC0
03FFC0
000000
000000
000000
000000
ENDCHAR
STARTCHAR 10-21
ENCODING 10805
SWIDTH 591 0
DWIDTH 24 0
BBX 24 24 0 -2
BITMAP
004200
006600
003C00
001800
000000
03FFC0
00C1C0
00C0C0
00C040
00C240
00C600
00FE00
00FE00
00C600
00C640
00C040
00C040
00C0C0
00FFC0
03FFC0
000000
000000
000000
000000
ENDCHAR
STARTCHAR 10-22
ENCODING 10806
SWIDTH 591 0
DWIDTH 24 0
BBX 24 24 0 -2
BITMAP
000000
000000
001800
001800
000000
03FFC0
00C1C0
00C0C0
00C040
00C240
00C600
00FE00
00FE00
00C600
00C640
00C040
00C040
00C0C0
00FFC0
03FFC0
000000
000000
000000
000000
ENDCHAR
STARTCHAR 10-23
ENCODING 10807
SWIDTH 591 0
DWIDTH 24 0
BBX 24 24 0 -2
BITMAP
000000
000000
000000
007E00
007E00
03FFC0
00C1C0
00C0C0
00C040
00C240
00C600
00FE00
00FE00
00C600
00C640
00C040
00C040
00C0C0
00FFC0
03FFC0
000000
000000
000000
000000
ENDCHAR
STARTCHAR 10-24
ENCODING 10808
SWIDTH 591 0
DWIDTH 24 0
BBX 24 24 0 -2
BITMAP
000000
000000
000000
000000
000000
03FFC0
00C1C0
00C0C0
00C040
00C240
00C600
00FE00
00FE00
00C600
00C640
00C040
00C040
00C0C0
00FFC0
03FFC0
001000
003800
001800
000000
ENDCHAR
STARTCHAR 10-26
ENCODING 10810
SWIDTH 591 0
DWIDTH 24 0
BBX 24 24 0 -2
BITMAP
000000
001800
003C00
004200
000000
00FF80
01C780
038180
070180
060080
060080
060000
060000
0607E0
060180
060180
070180
030380
01FF80
007C80
000000
000000
000000
000000
ENDCHAR
STARTCHAR 10-27
ENCODING 10811
SWIDTH 591 0
DWIDTH 24 0
BBX 24 24 0 -2
BITMAP
000000
000200
003E00
001800
000000
00FF80
01C780
038180
070180
060080
060080
060000
060000
0607E0
060180
060180
070180
030380
01FF80
007C80
000000
000000
000000
000000
ENDCHAR
STARTCHAR 10-28
ENCODING 10812
SWIDTH 591 0
DWIDTH 24 0
BBX 24 24 0 -2
BITMAP
000000
000000
000000
000000
000000
00FF80
01C780
038180
070180
060080
060080
060000
060000
0607E0
060180
060180
070180
030380
01FF80
007C80
001000
001C00
000C00
003C00
ENDCHAR
STARTCHAR 10-29
ENCODING 10813
SWIDTH 591 0
DWIDTH 24 0
BBX 24 24 0 -2
BITMAP
000000
000000
001800
001800
000000
00FF80
01C780
038180
070180
060080
060080
060000
060000
0607E0
060180
060180
070180
030380
01FF80
007C80
000000
000000
000000
000000
ENDCHAR
STARTCHAR 10-30
ENCODING 10814
SWIDTH 591 0
DWIDTH 24 0
BBX 24 24 0 -2
BITMAP
000000
001800
003C00
004200
000000
07E3E0
0181C0
0181C0
0181C0
0181C0
0181C0
01FFC0
01FFC0
0181C0
0181C0
0181C0
0181C0
0181C0
03C1C0
07E7F0
000000
000000
000000
000000
ENDCHAR
STARTCHAR Iacute
ENCODING 10815
SWIDTH 591 0
DWIDTH 24 0
BBX 24 24 0 -2
BITMAP
000200
000600
000C00
001800
001000
007E00
001800
001800
001800
001800
001800
001800
001800
001800
001800
001800
001800
001800
001C00
007F00
000000
000000
000000
000000
ENDCHAR
STARTCHAR Igrave
ENCODING 10816
SWIDTH 591 0
DWIDTH 24 0
BBX 24 24 0 -2
BITMAP
000000
003000
003800
000C00
000400
007E00
001800
001800
001800
001800
001800
001800
001800
001800
001800
001800
001800
001800
001C00
007F00
000000
000000
000000
000000
ENDCHAR
STARTCHAR Idieresis
ENCODING 10817
SWIDTH 591 0
DWIDTH 24 0
BBX 24 24 0 -2
BITMAP
000000
000000
003600
002400
000000
007E00
001800
001800
001800
001800
001800
001800
001800
001800
001800
001800
001800
001800
001C00
007F00
000000
000000
000000
000000
ENDCHAR
STARTCHAR Icircumflex
ENCODING 10818
SWIDTH 591 0
DWIDTH 24 0
BBX 24 24 0 -2
BITMAP
000000
000800
001C00
002200
002000
007E00
001800
001800
001800
001800
001800
001800
001800
001800
001800
001800
001800
001800
001C00
007F00
000000
000000
000000
000000
ENDCHAR
STARTCHAR 10-35
ENCODING 10819
SWIDTH 591 0
DWIDTH 24 0
BBX 24 24 0 -2
BITMAP
004200
006600
003C00
001800
000000
007E00
001800
001800
001800
001800
001800
001800
001800
001800
001800
001800
001800
001800
001C00
007F00
000000
000000
000000
000000
ENDCHAR
STARTCHAR 10-36
ENCODING 10820
SWIDTH 591 0
DWIDTH 24 0
BBX 24 24 0 -2
BITMAP
000000
000000
001800
001800
000000
007E00
001800
001800
001800
001800
001800
001800
001800
001800
001800
001800
001800
001800
001C00
007F00
000000
000000
000000
000000
ENDCHAR
STARTCHAR 10-37
ENCODING 10821
SWIDTH 591 0
DWIDTH 24 0
BBX 24 24 0 -2
BITMAP
000000
000000
000000
007E00
007E00
007E00
001800
001800
001800
001800
001800
001800
001800
001800
001800
001800
001800
001800
001C00
007F00
000000
000000
000000
000000
ENDCHAR
STARTCHAR 10-38
ENCODING 10822
SWIDTH 591 0
DWIDTH 24 0
BBX 24 24 0 -2
BITMAP
000000
000000
000000
000000
000000
007E00
001800
001800
001800
001800
001800
001800
001800
001800
001800
001800
001800
001800
001C00
007F00
001000
003800
001800
000000
ENDCHAR
STARTCHAR 10-39
ENCODING 10823
SWIDTH 591 0
DWIDTH 24 0
BBX 24 24 0 -2
BITMAP
000000
000000
003E00
004C00
000000
007E00
001800
001800
001800
001800
001800
001800
001800
001800
001800
001800
001800
001800
001C00
007F00
000000
000000
000000
000000
ENDCHAR
STARTCHAR 10-40
ENCODING 10824
SWIDTH 591 0
DWIDTH 24 0
BBX 24 24 0 -2
BITMAP
000200
000700
000F80
001880
000000
001F80
000600
000600
000600
000600
000600
000600
000600
000600
00C600
01C600
01C600
018600
01FE00
007800
000000
000000
000000
000000
ENDCHAR
STARTCHAR 10-41
ENCODING 10825
SWIDTH 591 0
DWIDTH 24 0
BBX 24 24 0 -2
BITMAP
000000
000000
000000
000000
000000
07E7E0
018380
018300
018600
018C00
019800
01B800
01FC00
01CE00
018F00
018700
018380
018180
0381C0
07E3F0
001000
001C00
000C00
003C00
ENDCHAR
STARTCHAR 10-42
ENCODING 10826
SWIDTH 591 0
DWIDTH 24 0
BBX 24 24 0 -2
BITMAP
000000
000C00
001C00
003000
002000
03F000
00C000
00C000
00C000
00C000
00C000
00C000
00C000
00C000
00C040
00C040
00C040
00C0C0
00FFC0
03FF80
000000
000000
000000
000000
ENDCHAR
STARTCHAR 10-43
ENCODING 10827
SWIDTH 591 0
DWIDTH 24 0
BBX 24 24 0 -2
BITMAP
004200
006600
003C00
001800
000000
03F000
00C000
00C000
00C000
00C000
00C000
00C000
00C000
00C000
00C040
00C040
00C040
00C0C0
00FFC0
03FF80
000000
000000
000000
000000
ENDCHAR
STARTCHAR 10-44
ENCODING 10828
SWIDTH 591 0
DWIDTH 24 0
BBX 24 24 0 -2
BITMAP
000000
000000
000000
000000
000000
03F000
00C000
00C000
00C000
00C000
00C000
00C000
00C000
00C000
00C040
00C040
00C040
00C0C0
00FFC0
03FF80
001000
001C00
000C00
003C00
ENDCHAR
STARTCHAR 10-45
ENCODING 10829
SWIDTH 591 0
DWIDTH 24 0
BBX 24 24 0 -2
BITMAP
000000
000C00
001C00
003000
000000
0783E0
03C0C0
03C0C0
03E0C0
0370C0
0338C0
0338C0
031CC0
030EC0
030EC0
0307C0
0303C0
0301C0
0381C0
0FC080
000000
000000
000000
000000
ENDCHAR
STARTCHAR 10-46
ENCODING 10830
SWIDTH 591 0
DWIDTH 24 0
BBX 24 24 0 -2
BITMAP
004200
006600
003C00
001800
000000
0783E0
03C0C0
03C0C0
03E0C0
0370C0
0338C0
0338C0
031CC0
030EC0
030EC0
0307C0
0303C0
0301C0
0381C0
0FC080
000000
000000
000000
000000
ENDCHAR
STARTCHAR 10-47
ENCODING 10831
SWIDTH 591 0
DWIDTH 24 0
BBX 24 24 0 -2
BITMAP
000000
000000
000000
000000
000000
0783E0
03C0C0
03C0C0
03E0C0
0370C0
0338C0
0338C0
031CC0
030EC0
030EC0
0307C0
0303C0
0301C0
0381C0
0FC080
001000
001C00
000C00
003C00
ENDCHAR
STARTCHAR Ntilde
ENCODING 10832
SWIDTH 591 0
DWIDTH 24 0
BBX 24 24 0 -2
BITMAP
000000
000000
003F00
002600
000000
0783E0
03C0C0
03C0C0
03E0C0
0370C0
0338C0
0338C0
031CC0
030EC0
030EC0
0307C0
0303C0
0301C0
0381C0
0FC080
000000
000000
000000
000000
ENDCHAR
STARTCHAR Oacute
ENCODING 10833
SWIDTH 591 0
DWIDTH 24 0
BBX 24 24 0 -2
BITMAP
000200
000600
000C00
001800
001000
00FF00
01C380
018180
0381C0
0300C0
0700E0
0700E0
0700E0
0700E0
0700C0
0381C0
0381C0
018180
00FF00
007E00
000000
000000
000000
000000
ENDCHAR
STARTCHAR Ograve
ENCODING 10834
SWIDTH 591 0
DWIDTH 24 0
BBX 24 24 0 -2
BITMAP
000000
00C000
006000
001000
000000
00FF00
01C380
018180
0381C0
0300C0
0700E0
0700E0
0700E0
0700E0
0700C0
0381C0
0381C0
018180
00FF00
007E00
000000
000000
000000
000000
ENDCHAR
STARTCHAR Odieresis
ENCODING 10835
SWIDTH 591 0
DWIDTH 24 0
BBX 24 24 0 -2
BITMAP
000000
000000
003600
002400
000000
00FF00
01C380
018180
0381C0
0300C0
0700E0
0700E0
0700E0
0700E0
0700C0
0381C0
0381C0
018180
00FF00
007E00
000000
000000
000000
000000
ENDCHAR
STARTCHAR Ocircumflex
ENCODING 10836
SWIDTH 591 0
DWIDTH 24 0
BBX 24 24 0 -2
BITMAP
000000
001800
003C00
006600
000000
00FF00
01C380
018180
0381C0
0300C0
0700E0
0700E0
0700E0
0700E0
0700C0
0381C0
0381C0
018180
00FF00
007E00
000000
000000
000000
000000
ENDCHAR
STARTCHAR 10-53
ENCODING 10837
SWIDTH 591 0
DWIDTH 24 0
BBX 24 24 0 -2
BITMAP
004200
006600
003C00
001800
000000
00FF00
01C380
018180
0381C0
0300C0
0700E0
060060
060060
060060
0700C0
0300C0
0381C0
018180
00FF00
007E00
000000
000000
000000
000000
ENDCHAR
STARTCHAR 10-54
ENCODING 10838
SWIDTH 591 0
DWIDTH 24 0
BBX 24 24 0 -2
BITMAP
001600
003400
002C00
002000
000000
00FF00
01C380
018180
0381C0
0300C0
0700E0
060060
060060
060060
0700C0
0300C0
0381C0
018180
00FF00
007E00
000000
000000
000000
000000
ENDCHAR
STARTCHAR 10-55
ENCODING 10839
SWIDTH 591 0
DWIDTH 24 0
BBX 24 24 0 -2
BITMAP
000000
000000
000000
007E00
003C00
00FF00
01C380
018180
0381C0
0300C0
0700E0
060060
060060
060060
0700C0
0300C0
0381C0
018180
00FF00
007E00
000000
000000
000000
000000
ENDCHAR
STARTCHAR Otilde
ENCODING 10840
SWIDTH 591 0
DWIDTH 24 0
BBX 24 24 0 -2
BITMAP
000000
000000
003E00
004C00
000000
00FF00
01C380
018180
0381C0
0300C0
0700E0
0700E0
0700E0
0700E0
0700C0
0381C0
0381C0
018180
00FF00
007E00
000000
000000
000000
000000
ENDCHAR
STARTCHAR 10-57
ENCODING 10841
SWIDTH 591 0
DWIDTH 24 0
BBX 24 24 0 -2
BITMAP
000000
000C00
001C00
003000
002000
03FF00
00C380
00C180
00C1C0
00C1C0
00C180
00C700
00FE00
00E700
00C300
00C300
00C320
00C320
00E3E0
03F9C0
000000
000000
000000
000000
ENDCHAR
STARTCHAR 10-58
ENCODING 10842
SWIDTH 591 0
DWIDTH 24 0
BBX 24 24 0 -2
BITMAP
004200
006600
003C00
001800
000000
03FF00
00C380
00C180
00C1C0
00C1C0
00C180
00C700
00FE00
00E700
00C300
00C300
00C320
00C320
00E3E0
03F9C0
000000
000000
000000
000000
ENDCHAR
STARTCHAR 10-59
ENCODING 10843
SWIDTH 591 0
DWIDTH 24 0
BBX 24 24 0 -2
BITMAP
000000
000000
000000
000000
000000
03FF00
00C380
00C180
00C1C0
00C1C0
00C180
00C700
00FE00
00E700
00C300
00C300
00C320
00C320
00E3E0
03F9C0
001000
001C00
000C00
003C00
ENDCHAR
STARTCHAR 10-60
ENCODING 10844
SWIDTH 591 0
DWIDTH 24 0
BBX 24 24 0 -2
BITMAP
000000
000C00
001C00
003000
002000
00FE80
00C380
018180
018080
01C080
00F000
00FF00
003F80
000380
0101C0
0181C0
0181C0
01C180
01FF00
013E00
000000
000000
000000
000000
ENDCHAR
STARTCHAR 10-61
ENCODING 10845
SWIDTH 591 0
DWIDTH 24 0
BBX 24 24 0 -2
BITMAP
000000
001800
003C00
004200
000000
00FE80
00C380
018180
018080
01C080
00F000
00FF00
003F80
000380
0101C0
0181C0
0181C0
01C180
01FF00
013E00
000000
000000
000000
000000
ENDCHAR
STARTCHAR 10-62
ENCODING 10846
SWIDTH 591 0
DWIDTH 24 0
BBX 24 24 0 -2
BITMAP
004200
006600
003C00
001800
000000
00FE80
00C380
018180
018080
01C080
00F000
00FF00
003F80
000380
0101C0
0181C0
0181C0
01C180
01FF00
013E00
000000
000000
000000
000000
ENDCHAR
STARTCHAR 10-63
ENCODING 10847
SWIDTH 591 0
DWIDTH 24 0
BBX 24 24 0 -2
BITMAP
000000
000000
000000
000000
000000
00FE80
00C380
018180
018080
01C080
00F000
00FF00
003F80
000380
0101C0
0181C0
0181C0
01C180
01FF00
013E00
001000
001C00
000C00
003C00
ENDCHAR
STARTCHAR 10-64
ENCODING 10848
SWIDTH 591 0
DWIDTH 24 0
BBX 24 24 0 -2
BITMAP
004200
006600
003C00
001800
000000
03FFC0
0399C0
031840
031840
021840
001800
001800
001800
001800
001800
001800
001800
001800
001C00
007F00
000000
000000
000000
000000
ENDCHAR
STARTCHAR 10-65
ENCODING 10849
SWIDTH 591 0
DWIDTH 24 0
BBX 24 24 0 -2
BITMAP
000000
000000
000000
000000
000000
03FFC0
0399C0
031840
031840
021840
001800
001800
001800
001800
001800
001800
001800
001800
001C00
007F00
001000
001C00
000C00
003C00
ENDCHAR
STARTCHAR Uacute
ENCODING 10850
SWIDTH 591 0
DWIDTH 24 0
BBX 24 24 0 -2
BITMAP
000100
000300
000600
000C00
000000
07C3E0
0380C0
0380C0
0380C0
0380C0
0380C0
0380C0
0380C0
0380C0
0380C0
0380C0
018080
01C180
00FF00
007C00
000000
000000
000000
000000
ENDCHAR
STARTCHAR Ugrave
ENCODING 10851
SWIDTH 591 0
DWIDTH 24 0
BBX 24 24 0 -2
BITMAP
000000
003000
001800
000400
000000
07C3E0
0380C0
0380C0
0380C0
0380C0
0380C0
0380C0
0380C0
0380C0
0380C0
0380C0
018080
01C180
00FF00
007C00
000000
000000
000000
000000
ENDCHAR
STARTCHAR Udieresis
ENCODING 10852
SWIDTH 591 0
DWIDTH 24 0
BBX 24 24 0 -2
BITMAP
000000
000000
003700
002200
000000
07C3E0
0380C0
0380C0
0380C0
0380C0
0380C0
0380C0
0380C0
0380C0
0380C0
0380C0
018080
01C180
00FF00
007C00
000000
000000
000000
000000
ENDCHAR
STARTCHAR Ucircumflex
ENCODING 10853
SWIDTH 591 0
DWIDTH 24 0
BBX 24 24 0 -2
BITMAP
000000
000800
001C00
002200
000000
07C3E0
0380C0
0380C0
0380C0
0380C0
0380C0
0380C0
0380C0
0380C0
0380C0
0380C0
018080
01C180
00FF00
007C00
000000
000000
000000
000000
ENDCHAR
STARTCHAR 10-70
ENCODING 10854
SWIDTH 591 0
DWIDTH 24 0
BBX 24 24 0 -2
BITMAP
000000
000200
003E00
001800
000000
07C3E0
0380C0
0380C0
0380C0
0380C0
0380C0
0380C0
0380C0
0380C0
0380C0
0380C0
018080
01C180
00FF00
007C00
000000
000000
000000
000000
ENDCHAR
STARTCHAR 10-71
ENCODING 10855
SWIDTH 591 0
DWIDTH 24 0
BBX 24 24 0 -2
BITMAP
004200
006600
003C00
001800
000000
07C3E0
0380C0
0380C0
0380C0
0380C0
0380C0
0380C0
0380C0
0380C0
0380C0
0380C0
018080
01C180
00FF00
007C00
000000
000000
000000
000000
ENDCHAR
STARTCHAR 10-72
ENCODING 10856
SWIDTH 591 0
DWIDTH 24 0
BBX 24 24 0 -2
BITMAP
001600
003400
002C00
002000
000000
07C3E0
0380C0
0380C0
0380C0
0380C0
0380C0
0380C0
0380C0
0380C0
0380C0
0380C0
018080
01C180
00FF00
007C00
000000
000000
000000
000000
ENDCHAR
STARTCHAR 10-73
ENCODING 10857
SWIDTH 591 0
DWIDTH 24 0
BBX 24 24 0 -2
BITMAP
000000
000000
000000
007E00
006200
07C3E0
0380C0
0380C0
0380C0
0380C0
0380C0
0380C0
0380C0
0380C0
0380C0
0380C0
018080
01C180
00FF00
007C00
000000
000000
000000
000000
ENDCHAR
STARTCHAR 10-74
ENCODING 10858
SWIDTH 591 0
DWIDTH 24 0
BBX 24 24 0 -2
BITMAP
000000
000000
000000
000000
000000
07C3E0
0380C0
0380C0
0380C0
0380C0
0380C0
0380C0
0380C0
0380C0
0380C0
0380C0
018080
01C180
00FF00
007C00
001000
003800
001800
000000
ENDCHAR
STARTCHAR 10-75
ENCODING 10859
SWIDTH 591 0
DWIDTH 24 0
BBX 24 24 0 -2
BITMAP
003C00
002400
002400
001800
000000
07C3E0
0380C0
0380C0
0380C0
0380C0
0380C0
0380C0
0380C0
0380C0
0380C0
0380C0
018080
01C180
00FF00
007C00
000000
000000
000000
000000
ENDCHAR
STARTCHAR 10-76
ENCODING 10860
SWIDTH 591 0
DWIDTH 24 0
BBX 24 24 0 -2
BITMAP
000000
000000
003E00
004C00
000000
07C3E0
0380C0
0380C0
0380C0
0380C0
0380C0
0380C0
0380C0
0380C0
0380C0
0380C0
018080
01C180
00FF00
007C00
000000
000000
000000
000000
ENDCHAR
STARTCHAR 10-77
ENCODING 10861
SWIDTH 591 0
DWIDTH 24 0
BBX 24 24 0 -2
BITMAP
000600
000C00
003700
002200
000000
07C3E0
0380C0
0380C0
0380C0
0380C0
0380C0
0380C0
0380C0
0380C0
0380C0
0380C0
018080
01C180
00FF00
007C00
000000
000000
000000
000000
ENDCHAR
STARTCHAR 10-78
ENCODING 10862
SWIDTH 591 0
DWIDTH 24 0
BBX 24 24 0 -2
BITMAP
003000
003800
003F00
002600
000000
07C3E0
0380C0
0380C0
0380C0
0380C0
0380C0
0380C0
0380C0
0380C0
0380C0
0380C0
018080
01C180
00FF00
007C00
000000
000000
000000
000000
ENDCHAR
STARTCHAR 10-79
ENCODING 10863
SWIDTH 591 0
DWIDTH 24 0
BBX 24 24 0 -2
BITMAP
002300
003E00
003F00
002200
000000
07C3E0
0380C0
0380C0
0380C0
0380C0
0380C0
0380C0
0380C0
0380C0
0380C0
0380C0
018080
01C180
00FF00
007C00
000000
000000
000000
000000
ENDCHAR
STARTCHAR 10-80
ENCODING 10864
SWIDTH 591 0
DWIDTH 24 0
BBX 24 24 0 -2
BITMAP
007F00
002200
003700
002200
000000
07C3E0
0380C0
0380C0
0380C0
0380C0
0380C0
0380C0
0380C0
0380C0
0380C0
0380C0
018080
01C180
00FF00
007C00
000000
000000
000000
000000
ENDCHAR
STARTCHAR 10-81
ENCODING 10865
SWIDTH 591 0
DWIDTH 24 0
BBX 24 24 0 -2
BITMAP
000000
001800
003C00
004200
000000
1F3E78
0E1830
061C30
061C20
071E20
031E60
031E60
03B660
03A740
01A340
01E3C0
00C380
00C380
00C180
00C100
000000
000000
000000
000000
ENDCHAR
STARTCHAR Yacute
ENCODING 10866
SWIDTH 591 0
DWIDTH 24 0
BBX 24 24 0 -2
BITMAP
000000
000300
000600
000800
000000
03C3E0
01C180
00C180
00E300
00F300
007200
003E00
003C00
001800
001800
001800
001800
001800
001C00
007F00
000000
000000
000000
000000
ENDCHAR
STARTCHAR 10-83
ENCODING 10867
SWIDTH 591 0
DWIDTH 24 0
BBX 24 24 0 -2
BITMAP
000000
000000
002400
003600
000000
03C3E0
01C180
00C180
00E300
00F300
007200
003E00
003C00
001800
001800
001800
001800
001800
001C00
007F00
000000
000000
000000
000000
ENDCHAR
STARTCHAR 10-84
ENCODING 10868
SWIDTH 591 0
DWIDTH 24 0
BBX 24 24 0 -2
BITMAP
000000
001800
003C00
004200
000000
03C3E0
01C180
00C180
00E300
00F300
007200
003E00
003C00
001800
001800
001800
001800
001800
001C00
007F00
000000
000000
000000
000000
ENDCHAR
STARTCHAR 10-85
ENCODING 10869
SWIDTH 591 0
DWIDTH 24 0
BBX 24 24 0 -2
BITMAP
000000
000C00
001C00
003000
002000
00FFC0
00C380
008300
008700
008F00
000E00
001C00
001C00
003800
003040
0070C0
00E0C0
00E0C0
01FFC0
01FF80
000000
000000
000000
000000
ENDCHAR
STARTCHAR 10-86
ENCODING 10870
SWIDTH 591 0
DWIDTH 24 0
BBX 24 24 0 -2
BITMAP
004200
006600
003C00
001800
000000
00FFC0
00C380
008300
008700
008F00
000E00
001C00
001C00
003800
003040
0070C0
00E0C0
00E0C0
01FFC0
01FF80
000000
000000
000000
000000
ENDCHAR
STARTCHAR 10-87
ENCODING 10871
SWIDTH 591 0
DWIDTH 24 0
BBX 24 24 0 -2
BITMAP
000000
000000
001800
001800
000000
00FFC0
00C380
008300
008700
008F00
000E00
001C00
001C00
003800
003040
0070C0
00E0C0
00E0C0
01FFC0
01FF80
000000
000000
000000
000000
ENDCHAR
STARTCHAR aacute
ENCODING 11041
SWIDTH 591 0
DWIDTH 24 0
BBX 24 24 0 -2
BITMAP
000000
000000
000000
000000
000000
000000
000600
000C00
001800
002000
003800
00FE00
00C600
00C600
003E00
00E600
018600
018600
01FF80
00F300
000000
000000
000000
000000
ENDCHAR
STARTCHAR agrave
ENCODING 11042
SWIDTH 591 0
DWIDTH 24 0
BBX 24 24 0 -2
BITMAP
000000
000000
000000
000000
000000
000000
006000
003000
001800
000400
003800
00FE00
00C600
00C600
003E00
00E600
018600
018600
01FF80
00F300
000000
000000
000000
000000
ENDCHAR
STARTCHAR adieresis
ENCODING 11043
SWIDTH 591 0
DWIDTH 24 0
BBX 24 24 0 -2
BITMAP
000000
000000
000000
000000
000000
000000
000000
006C00
006C00
000000
003800
00FE00
00C600
00C600
003E00
00E600
018600
018600
01FF80
00F300
000000
000000
000000
000000
ENDCHAR
STARTCHAR acircumflex
ENCODING 11044
SWIDTH 591 0
DWIDTH 24 0
BBX 24 24 0 -2
BITMAP
000000
000000
000000
000000
000000
000000
001000
003800
007C00
00C400
003800
00FE00
00C600
00C600
003E00
00E600
018600
018600
01FF80
00F300
000000
000000
000000
000000
ENDCHAR
STARTCHAR 11-05
ENCODING 11045
SWIDTH 591 0
DWIDTH 24 0
BBX 24 24 0 -2
BITMAP
000000
000000
000000
000000
000000
000000
000000
000200
003E00
001800
007800
00FE00
00C600
000600
003E00
00E600
018600
018600
01FF80
00F300
000000
000000
000000
000000
ENDCHAR
STARTCHAR 11-06
ENCODING 11046
SWIDTH 591 0
DWIDTH 24 0
BBX 24 24 0 -2
BITMAP
000000
000000
000000
000000
000000
000000
004200
006600
003C00
001800
007800
00FE00
00C600
000600
003E00
00E600
018600
018600
01FF80
00F300
000000
000000
000000
000000
ENDCHAR
STARTCHAR 11-07
ENCODING 11047
SWIDTH 591 0
DWIDTH 24 0
BBX 24 24 0 -2
BITMAP
000000
000000
000000
000000
000000
000000
000000
007E00
007E00
000000
007800
00FE00
00C600
000600
003E00
00E600
018600
018600
01FF80
00F300
000000
000000
000000
000000
ENDCHAR
STARTCHAR 11-08
ENCODING 11048
SWIDTH 591 0
DWIDTH 24 0
BBX 24 24 0 -2
BITMAP
000000
000000
000000
000000
000000
000000
000000
000000
000000
000000
007800
00FE00
00C600
000600
003E00
00E600
018600
018600
01FF80
00F300
000200
000700
000300
000000
ENDCHAR
STARTCHAR aring
ENCODING 11049
SWIDTH 591 0
DWIDTH 24 0
BBX 24 24 0 -2
BITMAP
000000
000000
000000
000000
000000
000000
003800
004800
006800
003800
003800
00FE00
00C600
00C600
003E00
00E600
018600
018600
01FF80
00F300
000000
000000
000000
000000
ENDCHAR
STARTCHAR atilde
ENCODING 11050
SWIDTH 591 0
DWIDTH 24 0
BBX 24 24 0 -2
BITMAP
000000
000000
000000
000000
000000
000000
000000
007200
00FC00
000000
003800
00FE00
00C600
00C600
003E00
00E600
018600
018600
01FF80
00F300
000000
000000
000000
000000
ENDCHAR
STARTCHAR 11-11
ENCODING 11051
SWIDTH 591 0
DWIDTH 24 0
BBX 24 24 0 -2
BITMAP
000000
000000
000000
000000
000000
000600
000C00
001000
000000
000000
001C00
003F00
006700
00C200
00C000
00C000
00C000
006300
007E00
001C00
000000
000000
000000
000000
ENDCHAR
STARTCHAR 11-12
ENCODING 11052
SWIDTH 591 0
DWIDTH 24 0
BBX 24 24 0 -2
BITMAP
000000
000000
000000
000000
000000
000000
000000
001800
003C00
004200
001C00
003F00
006700
00C200
00C000
00C000
00C000
006300
007E00
001C00
000000
000000
000000
000000
ENDCHAR
STARTCHAR 11-13
ENCODING 11053
SWIDTH 591 0
DWIDTH 24 0
BBX 24 24 0 -2
BITMAP
000000
000000
000000
000000
000000
000000
004200
006600
003C00
001800
001C00
003F00
006700
00C200
00C000
00C000
00C000
006300
007E00
001C00
000000
000000
000000
000000
ENDCHAR
STARTCHAR ccedilla
ENCODING 11054
SWIDTH 591 0
DWIDTH 24 0
BBX 24 24 0 -2
BITMAP
000000
000000
000000
000000
000000
000000
000000
000000
000000
000000
001C00
003F00
006700
00C200
00C000
00C000
00E000
006300
007E00
001800
001000
001C00
000C00
003C00
ENDCHAR
STARTCHAR 11-15
ENCODING 11055
SWIDTH 591 0
DWIDTH 24 0
BBX 24 24 0 -2
BITMAP
000000
000000
000000
000000
000000
000000
000000
000000
001800
001800
001C00
003F00
006700
00C200
00C000
00C000
00C000
006300
007E00
001C00
000000
000000
000000
000000
ENDCHAR
STARTCHAR 11-16
ENCODING 11056
SWIDTH 591 0
DWIDTH 24 0
BBX 24 24 0 -2
BITMAP
004200
006600
003C00
001800
000000
000700
000300
000300
000300
000300
003B00
00FF00
00C700
018300
018300
018300
018300
01C700
00FF00
003B80
000000
000000
000000
000000
ENDCHAR
STARTCHAR eacute
ENCODING 11057
SWIDTH 591 0
DWIDTH 24 0
BBX 24 24 0 -2
BITMAP
000000
000000
000000
000000
000000
000000
000300
000600
000C00
001800
001C00
007F00
00C300
00C300
00FF00
00C000
00C000
00E100
007F00
001C00
000000
000000
000000
000000
ENDCHAR
STARTCHAR egrave
ENCODING 11058
SWIDTH 591 0
DWIDTH 24 0
BBX 24 24 0 -2
BITMAP
000000
000000
000000
000000
000000
000000
006000
003000
001800
000400
001C00
007F00
00C300
00C300
00FF00
00C000
00C000
00E100
007F00
001C00
000000
000000
000000
000000
ENDCHAR
STARTCHAR edieresis
ENCODING 11059
SWIDTH 591 0
DWIDTH 24 0
BBX 24 24 0 -2
BITMAP
000000
000000
000000
000000
000000
000000
000000
003600
003600
000000
001C00
007F00
00C300
00C300
00FF00
00C000
00C000
00E100
007F00
001C00
000000
000000
000000
000000
ENDCHAR
STARTCHAR ecircumflex
ENCODING 11060
SWIDTH 591 0
DWIDTH 24 0
BBX 24 24 0 -2
BITMAP
000000
000000
000000
000000
000000
000000
000000
001800
003C00
004200
001C00
007F00
00C300
00C300
00FF00
00C000
00C000
00E100
007F00
001C00
000000
000000
000000
000000
ENDCHAR
STARTCHAR 11-21
ENCODING 11061
SWIDTH 591 0
DWIDTH 24 0
BBX 24 24 0 -2
BITMAP
000000
000000
000000
000000
000000
000000
004200
006600
003C00
001800
001C00
007F00
00C300
00C300
00FF00
00C000
00C000
00C100
00FF00
003C00
000000
000000
000000
000000
ENDCHAR
STARTCHAR 11-22
ENCODING 11062
SWIDTH 591 0
DWIDTH 24 0
BBX 24 24 0 -2
BITMAP
000000
000000
000000
000000
000000
000000
000000
000000
001800
001800
001C00
007F00
00C300
00C300
00FF00
00C000
00C000
00C100
00FF00
003C00
000000
000000
000000
000000
ENDCHAR
STARTCHAR 11-23
ENCODING 11063
SWIDTH 591 0
DWIDTH 24 0
BBX 24 24 0 -2
BITMAP
000000
000000
000000
000000
000000
000000
000000
007E00
007E00
000000
001C00
007F00
00C300
00C300
00FF00
00C000
00C000
00C100
00FF00
003C00
000000
000000
000000
000000
ENDCHAR
STARTCHAR 11-24
ENCODING 11064
SWIDTH 591 0
DWIDTH 24 0
BBX 24 24 0 -2
BITMAP
000000
000000
000000
000000
000000
000000
000000
000000
000000
000000
001C00
007F00
00C300
00C300
00FF00
00C000
00C000
00C100
00FF00
003C00
001000
003800
001800
000000
ENDCHAR
STARTCHAR 11-25
ENCODING 11065
SWIDTH 591 0
DWIDTH 24 0
BBX 24 24 0 -2
BITMAP
000000
000000
000000
000000
000000
000600
000C00
001000
000000
000000
003B80
00FF80
00C600
00C600
00C600
00FC00
00F800
008000
00FE00
00FF00
008300
018300
01C700
00FE00
ENDCHAR
STARTCHAR 11-26
ENCODING 11066
SWIDTH 591 0
DWIDTH 24 0
BBX 24 24 0 -2
BITMAP
000000
000000
000000
000000
000000
000000
000000
001800
003C00
004200
003B80
00FF80
00C600
00C600
00C600
00FC00
00F800
008000
00FE00
00FF00
008300
018300
01C700
00FE00
ENDCHAR
STARTCHAR 11-27
ENCODING 11067
SWIDTH 591 0
DWIDTH 24 0
BBX 24 24 0 -2
BITMAP
000000
000000
000000
000000
000000
000000
000000
000200
003E00
001800
003B80
00FF80
00C600
00C600
00C600
00FC00
00F800
008000
00FE00
00FF00
008300
018300
01C700
00FE00
ENDCHAR
STARTCHAR 11-29
ENCODING 11069
SWIDTH 591 0
DWIDTH 24 0
BBX 24 24 0 -2
BITMAP
000000
000000
000000
000000
000000
000000
000000
000000
001800
001800
003B80
00FF80
00C600
00C600
00C600
00FC00
00F800
008000
00FE00
00FF00
008300
018300
01C700
00FE00
ENDCHAR
STARTCHAR 11-30
ENCODING 11070
SWIDTH 591 0
DWIDTH 24 0
BBX 24 24 0 -2
BITMAP
000000
001800
003C00
004200
000000
01C000
00C000
00C000
00C000
00C000
00CC00
00FF00
00E300
00C300
00C300
00C300
00C300
00C300
00C300
01E7C0
000000
000000
000000
000000
ENDCHAR
STARTCHAR iacute
ENCODING 11071
SWIDTH 591 0
DWIDTH 24 0
BBX 24 24 0 -2
BITMAP
000000
000000
000000
000000
000000
000000
000600
000E00
001800
001000
003800
001800
001800
001800
001800
001800
001800
001800
001800
003E00
000000
000000
000000
000000
ENDCHAR
STARTCHAR igrave
ENCODING 11072
SWIDTH 591 0
DWIDTH 24 0
BBX 24 24 0 -2
BITMAP
000000
000000
000000
000000
000000
000000
006000
003000
001800
000400
003800
001800
001800
001800
001800
001800
001800
001800
001800
003E00
000000
000000
000000
000000
ENDCHAR
STARTCHAR idieresis
ENCODING 11073
SWIDTH 591 0
DWIDTH 24 0
BBX 24 24 0 -2
BITMAP
000000
000000
000000
000000
000000
000000
000000
003600
003600
000000
003800
001800
001800
001800
001800
001800
001800
001800
001800
003E00
000000
000000
000000
000000
ENDCHAR
STARTCHAR icircumflex
ENCODING 11074
SWIDTH 591 0
DWIDTH 24 0
BBX 24 24 0 -2
BITMAP
000000
000000
000000
000000
000000
000000
000000
001800
003C00
004200
003800
001800
001800
001800
001800
001800
001800
001800
001800
003E00
000000
000000
000000
000000
ENDCHAR
STARTCHAR 11-35
ENCODING 11075
SWIDTH 591 0
DWIDTH 24 0
BBX 24 24 0 -2
BITMAP
000000
000000
000000
000000
000000
000000
004200
006600
003C00
001800
001800
001800
001800
001800
001800
001800
001800
001800
001800
003E00
000000
000000
000000
000000
ENDCHAR
STARTCHAR 11-37
ENCODING 11077
SWIDTH 591 0
DWIDTH 24 0
BBX 24 24 0 -2
BITMAP
000000
000000
000000
000000
000000
000000
000000
007E00
007E00
000000
001800
001800
001800
001800
001800
001800
001800
001800
001800
003E00
000000
000000
000000
000000
ENDCHAR
STARTCHAR 11-38
ENCODING 11078
SWIDTH 591 0
DWIDTH 24 0
BBX 24 24 0 -2
BITMAP
000000
000000
000000
000000
000000
001800
001800
001800
000000
000000
001800
003800
001800
001800
001800
001800
001800
001800
001800
003E00
001000
003800
001800
000000
ENDCHAR
STARTCHAR 11-39
ENCODING 11079
SWIDTH 591 0
DWIDTH 24 0
BBX 24 24 0 -2
BITMAP
000000
000000
000000
000000
000000
000000
000000
000000
003E00
004C00
001800
001800
001800
001800
001800
001800
001800
001800
001800
003E00
000000
000000
000000
000000
ENDCHAR
STARTCHAR 11-40
ENCODING 11080
SWIDTH 591 0
DWIDTH 24 0
BBX 24 24 0 -2
BITMAP
000000
000000
000000
000000
000000
000000
000000
000E00
001F00
001080
000600
000E00
000600
000600
000600
000600
000600
000600
000600
000600
000600
002600
007400
003C00
ENDCHAR
STARTCHAR 11-41
ENCODING 11081
SWIDTH 591 0
DWIDTH 24 0
BBX 24 24 0 -2
BITMAP
000000
000000
000000
000000
000000
01C000
00C000
00C000
00C000
00C000
00CF80
00C600
00CC00
00D800
00F800
00FC00
00CE00
00C700
00C380
01E7C0
001000
001C00
000C00
003C00
ENDCHAR
STARTCHAR 11-42
ENCODING 11082
SWIDTH 591 0
DWIDTH 24 0
BBX 24 24 0 -2
BITMAP
000000
000C00
001C00
003000
000000
001800
003800
001800
001800
001800
001800
001800
001800
001800
001800
001800
001800
001800
001800
003E00
000000
000000
000000
000000
ENDCHAR
STARTCHAR 11-43
ENCODING 11083
SWIDTH 591 0
DWIDTH 24 0
BBX 24 24 0 -2
BITMAP
004200
006600
003C00
001800
000000
001800
003800
001800
001800
001800
001800
001800
001800
001800
001800
001800
001800
001800
001800
003E00
000000
000000
000000
000000
ENDCHAR
STARTCHAR 11-44
ENCODING 11084
SWIDTH 591 0
DWIDTH 24 0
BBX 24 24 0 -2
BITMAP
000000
000000
000000
000000
000000
001800
003800
001800
001800
001800
001800
001800
001800
001800
001800
001800
001800
001800
001800
003E00
001000
001C00
000C00
003C00
ENDCHAR
STARTCHAR 11-45
ENCODING 11085
SWIDTH 591 0
DWIDTH 24 0
BBX 24 24 0 -2
BITMAP
000000
000000
000000
000000
000000
000600
000C00
001000
000000
000000
00CE00
01FF00
00E300
00C300
00C300
00C300
00C300
00C300
00C300
01E7C0
000000
000000
000000
000000
ENDCHAR
STARTCHAR 11-46
ENCODING 11086
SWIDTH 591 0
DWIDTH 24 0
BBX 24 24 0 -2
BITMAP
000000
000000
000000
000000
000000
000000
004200
006600
003C00
001800
00CE00
01FF00
00E300
00C300
00C300
00C300
00C300
00C300
00C300
01E7C0
000000
000000
000000
000000
ENDCHAR
STARTCHAR 11-47
ENCODING 11087
SWIDTH 591 0
DWIDTH 24 0
BBX 24 24 0 -2
BITMAP
000000
000000
000000
000000
000000
000000
000000
000000
000000
000000
00CE00
01FF00
00E300
00C300
00C300
00C300
00C300
00C300
00C300
01E7C0
001000
001C00
000C00
003C00
ENDCHAR
STARTCHAR ntilde
ENCODING 11088
SWIDTH 591 0
DWIDTH 24 0
BBX 24 24 0 -2
BITMAP
000000
000000
000000
000000
000000
000000
000000
003B00
007E00
000000
00CE00
01FF00
00E300
00C300
00C300
00C300
00C300
00C300
00C300
01E7C0
000000
000000
000000
000000
ENDCHAR
STARTCHAR oacute
ENCODING 11089
SWIDTH 591 0
DWIDTH 24 0
BBX 24 24 0 -2
BITMAP
000000
000000
000000
000000
000000
000000
000300
000600
000C00
001800
001800
007E00
00C300
00C300
00C300
00C300
00C300
00C300
00FF00
001800
000000
000000
000000
000000
ENDCHAR
STARTCHAR ograve
ENCODING 11090
SWIDTH 591 0
DWIDTH 24 0
BBX 24 24 0 -2
BITMAP
000000
000000
000000
000000
000000
000000
006000
007000
001800
000800
001800
007E00
00C300
00C300
00C300
00C300
00C300
00C300
00FF00
001800
000000
000000
000000
000000
ENDCHAR
STARTCHAR odieresis
ENCODING 11091
SWIDTH 591 0
DWIDTH 24 0
BBX 24 24 0 -2
BITMAP
000000
000000
000000
000000
000000
000000
000000
006C00
006C00
000000
001800
007E00
00C300
00C300
00C300
00C300
00C300
00C300
007E00
001800
000000
000000
000000
000000
ENDCHAR
STARTCHAR ocircumflex
ENCODING 11092
SWIDTH 591 0
DWIDTH 24 0
BBX 24 24 0 -2
BITMAP
000000
000000
000000
000000
000000
000000
000000
001800
003C00
004200
001800
007E00
00C300
00C300
00C300
00C300
00C300
00C300
007E00
001800
000000
000000
000000
000000
ENDCHAR
STARTCHAR 11-53
ENCODING 11093
SWIDTH 591 0
DWIDTH 24 0
BBX 24 24 0 -2
BITMAP
000000
000000
000000
000000
000000
000000
004200
006600
003C00
001800
001800
007E00
00C300
00C300
00C300
00C300
00C300
00C300
007E00
001800
000000
000000
000000
000000
ENDCHAR
STARTCHAR 11-54
ENCODING 11094
SWIDTH 591 0
DWIDTH 24 0
BBX 24 24 0 -2
BITMAP
000000
000000
000000
000000
000000
000000
001600
003400
002C00
002000
001800
007E00
00C300
00C300
00C300
00C300
00C300
00C300
007E00
001800
000000
000000
000000
000000
ENDCHAR
STARTCHAR 11-55
ENCODING 11095
SWIDTH 591 0
DWIDTH 24 0
BBX 24 24 0 -2
BITMAP
000000
000000
000000
000000
000000
000000
000000
007E00
007E00
000000
001800
007E00
00C300
00C300
00C300
00C300
00C300
00C300
007E00
001800
000000
000000
000000
000000
ENDCHAR
STARTCHAR otilde
ENCODING 11096
SWIDTH 591 0
DWIDTH 24 0
BBX 24 24 0 -2
BITMAP
000000
000000
000000
000000
000000
000000
000000
003B00
007E00
000000
001800
007E00
00C300
00C300
00C300
00C300
00C300
00C300
007E00
001800
000000
000000
000000
000000
ENDCHAR
STARTCHAR 11-57
ENCODING 11097
SWIDTH 591 0
DWIDTH 24 0
BBX 24 24 0 -2
BITMAP
000000
000000
000000
000000
000000
000600
000C00
001000
000000
000000
006700
00FF00
007300
007000
007000
007000
007000
007000
007000
00F800
000000
000000
000000
000000
ENDCHAR
STARTCHAR 11-58
ENCODING 11098
SWIDTH 591 0
DWIDTH 24 0
BBX 24 24 0 -2
BITMAP
000000
000000
000000
000000
000000
000000
004200
006600
003C00
001800
006700
00FF00
007300
007000
007000
007000
007000
007000
007000
00F800
000000
000000
000000
000000
ENDCHAR
STARTCHAR 11-59
ENCODING 11099
SWIDTH 591 0
DWIDTH 24 0
BBX 24 24 0 -2
BITMAP
000000
000000
000000
000000
000000
000000
000000
000000
000000
000000
006700
00FF00
007300
007000
007000
007000
007000
007000
007000
00F800
002000
007000
001000
007000
ENDCHAR
STARTCHAR 11-60
ENCODING 11100
SWIDTH 591 0
DWIDTH 24 0
BBX 24 24 0 -2
BITMAP
000000
000000
000000
000000
000000
000600
000C00
001000
000000
000000
001E00
007E00
004200
007200
007C00
003E00
004300
004300
007F00
005C00
000000
000000
000000
000000
ENDCHAR
STARTCHAR 11-61
ENCODING 11101
SWIDTH 591 0
DWIDTH 24 0
BBX 24 24 0 -2
BITMAP
000000
000000
000000
000000
000000
000000
000000
001800
003C00
004200
001E00
007E00
004200
007200
007C00
003E00
004300
004300
007F00
005C00
000000
000000
000000
000000
ENDCHAR
STARTCHAR scaron
ENCODING 11102
SWIDTH 591 0
DWIDTH 24 0
BBX 24 24 0 -2
BITMAP
000000
000000
000000
000000
000000
000000
004200
006600
003C00
001800
003E00
006600
004200
007200
007C00
003E00
004300
004300
007300
005E00
000000
000000
000000
000000
ENDCHAR
STARTCHAR 11-63
ENCODING 11103
SWIDTH 591 0
DWIDTH 24 0
BBX 24 24 0 -2
BITMAP
000000
000000
000000
000000
000000
000000
000000
000000
000000
000000
001E00
007E00
004200
007200
007C00
003E00
004300
004300
007F00
005C00
001000
001C00
000C00
003C00
ENDCHAR
STARTCHAR 11-64
ENCODING 11104
SWIDTH 591 0
DWIDTH 24 0
BBX 24 24 0 -2
BITMAP
000000
000000
004200
003C00
001800
000000
001000
001000
003000
003000
00FE00
003000
003000
003000
003000
003000
003100
003300
003E00
001E00
000000
000000
000000
000000
ENDCHAR
STARTCHAR 11-65
ENCODING 11105
SWIDTH 591 0
DWIDTH 24 0
BBX 24 24 0 -2
BITMAP
000000
000000
000000
000000
000000
000000
001000
001000
003000
003000
00FE00
003000
003000
003000
003000
003000
003100
003300
003E00
001E00
001000
001C00
000C00
003C00
ENDCHAR
STARTCHAR uacute
ENCODING 11106
SWIDTH 591 0
DWIDTH 24 0
BBX 24 24 0 -2
BITMAP
000000
000000
000000
000000
000000
000000
000600
000E00
001800
001000
00C300
01C700
00C300
00C300
00C300
00C300
00C300
00C300
007F80
007B00
000000
000000
000000
000000
ENDCHAR
STARTCHAR ugrave
ENCODING 11107
SWIDTH 591 0
DWIDTH 24 0
BBX 24 24 0 -2
BITMAP
000000
000000
000000
000000
000000
000000
006000
003000
001800
000400
00C300
01C700
00C300
00C300
00C300
00C300
00C300
00C300
007F80
007B00
000000
000000
000000
000000
ENDCHAR
STARTCHAR udieresis
ENCODING 11108
SWIDTH 591 0
DWIDTH 24 0
BBX 24 24 0 -2
BITMAP
000000
000000
000000
000000
000000
000000
000000
003600
003600
000000
00C300
01C700
00C300
00C300
00C300
00C300
00C300
00C300
007F80
007B00
000000
000000
000000
000000
ENDCHAR
STARTCHAR ucircumflex
ENCODING 11109
SWIDTH 591 0
DWIDTH 24 0
BBX 24 24 0 -2
BITMAP
000000
000000
000000
000000
000000
000000
000000
001800
003C00
004200
00C300
01C700
00C300
00C300
00C300
00C300
00C300
00C300
007F80
007B00
000000
000000
000000
000000
ENDCHAR
STARTCHAR 11-70
ENCODING 11110
SWIDTH 591 0
DWIDTH 24 0
BBX 24 24 0 -2
BITMAP
000000
000000
000000
000000
000000
000000
000000
000200
003E00
001800
00C300
01C700
00C300
00C300
00C300
00C300
00C300
00C300
00FF80
007B00
000000
000000
000000
000000
ENDCHAR
STARTCHAR 11-71
ENCODING 11111
SWIDTH 591 0
DWIDTH 24 0
BBX 24 24 0 -2
BITMAP
000000
000000
000000
000000
000000
000000
004200
006600
003C00
001800
00C300
01C700
00C300
00C300
00C300
00C300
00C300
00C300
00FF80
007B00
000000
000000
000000
000000
ENDCHAR
STARTCHAR 11-72
ENCODING 11112
SWIDTH 591 0
DWIDTH 24 0
BBX 24 24 0 -2
BITMAP
000000
000000
000000
000000
000000
000000
001600
003400
002C00
002000
00C300
01C700
00C300
00C300
00C300
00C300
00C300
00C300
00FF80
007B00
000000
000000
000000
000000
ENDCHAR
STARTCHAR 11-73
ENCODING 11113
SWIDTH 591 0
DWIDTH 24 0
BBX 24 24 0 -2
BITMAP
000000
000000
000000
000000
000000
000000
000000
007E00
007E00
000000
00C300
01C700
00C300
00C300
00C300
00C300
00C300
00C300
00FF80
007B00
000000
000000
000000
000000
ENDCHAR
STARTCHAR 11-74
ENCODING 11114
SWIDTH 591 0
DWIDTH 24 0
BBX 24 24 0 -2
BITMAP
000000
000000
000000
000000
000000
000000
000000
000000
000000
000000
00C300
01C700
00C300
00C300
00C300
00C300
00C300
00C300
00FF80
007B00
000200
000700
000300
000000
ENDCHAR
STARTCHAR 11-75
ENCODING 11115
SWIDTH 591 0
DWIDTH 24 0
BBX 24 24 0 -2
BITMAP
000000
000000
000000
000000
000000
000000
003C00
002400
002400
001800
00C300
01C700
00C300
00C300
00C300
00C300
00C300
00C300
00FF80
007B00
000000
000000
000000
000000
ENDCHAR
STARTCHAR 11-76
ENCODING 11116
SWIDTH 591 0
DWIDTH 24 0
BBX 24 24 0 -2
BITMAP
000000
000000
000000
000000
000000
000000
000000
000000
003E00
004C00
00C300
01C700
00C300
00C300
00C300
00C300
00C300
00C300
00FF80
007B00
000000
000000
000000
000000
ENDCHAR
STARTCHAR 11-77
ENCODING 11117
SWIDTH 591 0
DWIDTH 24 0
BBX 24 24 0 -2
BITMAP
000000
000000
000000
000600
000C00
001800
002000
003600
003600
000000
00C300
01C700
00C300
00C300
00C300
00C300
00C300
00C300
007F80
007B00
000000
000000
000000
000000
ENDCHAR
STARTCHAR 11-78
ENCODING 11118
SWIDTH 591 0
DWIDTH 24 0
BBX 24 24 0 -2
BITMAP
000000
000000
000000
003000
001800
000C00
000400
003600
003600
000000
00C300
01C700
00C300
00C300
00C300
00C300
00C300
00C300
007F80
007B00
000000
000000
000000
000000
ENDCHAR
STARTCHAR 11-79
ENCODING 11119
SWIDTH 591 0
DWIDTH 24 0
BBX 24 24 0 -2
BITMAP
000000
000000
000000
004200
006600
003C00
001800
003600
003600
000000
00C300
01C700
00C300
00C300
00C300
00C300
00C300
00C300
007F80
007B00
000000
000000
000000
000000
ENDCHAR
STARTCHAR 11-80
ENCODING 11120
SWIDTH 591 0
DWIDTH 24 0
BBX 24 24 0 -2
BITMAP
000000
000000
000000
000000
000000
007E00
007E00
003600
003600
000000
00C300
01C700
00C300
00C300
00C300
00C300
00C300
00C300
007F80
007B00
000000
000000
000000
000000
ENDCHAR
STARTCHAR 11-81
ENCODING 11121
SWIDTH 591 0
DWIDTH 24 0
BBX 24 24 0 -2
BITMAP
000000
000000
000000
000000
000000
000000
000000
001800
003C00
004200
07BCE0
031840
039CC0
019C80
019C80
01FF80
00E700
00E700
00C300
004200
000000
000000
000000
000000
ENDCHAR
STARTCHAR yacute
ENCODING 11122
SWIDTH 591 0
DWIDTH 24 0
BBX 24 24 0 -2
BITMAP
000000
000000
000000
000000
000000
000000
000300
000600
000C00
001800
01F380
00E180
006100
007300
003200
003600
001C00
001C00
001C00
000800
001800
019000
01B000
01C000
ENDCHAR
STARTCHAR ydieresis
ENCODING 11123
SWIDTH 591 0
DWIDTH 24 0
BBX 24 24 0 -2
BITMAP
000000
000000
000000
000000
000000
000000
000000
003600
003600
000000
01E780
01C300
00E300
006200
007600
007400
003C00
003800
001800
001800
001000
01B000
03E000
01C000
ENDCHAR
STARTCHAR 11-84
ENCODING 11124
SWIDTH 591 0
DWIDTH 24 0
BBX 24 24 0 -2
BITMAP
000000
000000
000000
000000
000000
000000
000000
001800
003C00
004200
01E780
00C300
00E300
006200
007600
007400
003C00
003800
001800
001800
001000
01B000
03E000
01C000
ENDCHAR
STARTCHAR 11-85
ENCODING 11125
SWIDTH 591 0
DWIDTH 24 0
BBX 24 24 0 -2
BITMAP
000000
000000
000000
000000
000000
000600
000C00
001000
000000
000000
007F00
006700
004600
004E00
001C00
001800
003800
007100
006300
00FF00
000000
000000
000000
000000
ENDCHAR
STARTCHAR zcaron
ENCODING 11126
SWIDTH 591 0
DWIDTH 24 0
BBX 24 24 0 -2
BITMAP
000000
000000
000000
000000
000000
000000
000000
003200
001C00
000800
007F00
006700
004600
004E00
001C00
001800
003900
007100
006300
00FF00
000000
000000
000000
000000
ENDCHAR
STARTCHAR 11-87
ENCODING 11127
SWIDTH 591 0
DWIDTH 24 0
BBX 24 24 0 -2
BITMAP
000000
000000
000000
000000
000000
000000
000000
000000
001800
001800
007F00
006700
004600
004E00
001C00
001800
003800
007100
006300
00FF00
000000
000000
000000
000000
ENDCHAR
STARTCHAR CNS4-2126
ENCODING 12321
SWIDTH 591 0
DWIDTH 24 0
BBX 24 24 0 -2
BITMAP
000004
00000E
FFFFFE
018000
030000
030000
060000
060030
0FFFF8
040038
000038
000038
000038
000038
000030
000030
000030
000060
000060
0000C0
0000C0
007F80
001F00
000600
ENDCHAR
STARTCHAR CNS3-2126
ENCODING 12322
SWIDTH 591 0
DWIDTH 24 0
BBX 24 24 0 -2
BITMAP
001000
001C00
001800
001800
001800
001800
001800
001800
001800
001800
001800
001800
001800
001800
001800
001800
001800
001800
001800
001800
001800
001800
003807
FFFFFF
ENDCHAR
STARTCHAR CNS3-2125
ENCODING 12323
SWIDTH 591 0
DWIDTH 24 0
BBX 24 24 0 -2
BITMAP
000004
00000E
7FFFFE
001800
001800
001800
001800
001800
001800
001800
001800
001800
001800
001800
001800
001800
001800
001800
001800
001800
001800
001800
001800
001000
ENDCHAR
STARTCHAR CNS2-2127
ENCODING 12324
SWIDTH 591 0
DWIDTH 24 0
BBX 24 24 0 -2
BITMAP
000000
000007
FFFFFF
038180
038180
038180
038180
038180
038180
038180
038180
038180
038180
030180
030180
030180
060180
060180
060180
0C0180
0C0180
180180
300180
600180
ENDCHAR
STARTCHAR CNS4-2139
ENCODING 12325
SWIDTH 591 0
DWIDTH 24 0
BBX 24 24 0 -2
BITMAP
000000
00000C
3FFFFE
00700C
00700C
0C700C
07700C
00F00C
00600C
00700C
00780C
00EC0C
00CE0C
00C40C
01800C
03000C
06001C
0C0038
1807F0
3000E0
E00040
000000
000007
FFFFFF
ENDCHAR
STARTCHAR CNS1-4723
ENCODING 12326
SWIDTH 591 0
DWIDTH 24 0
BBX 24 24 0 -2
BITMAP
000000
00000C
3FFFFC
001800
001800
001800
001830
1FFFF8
001800
001800
001800
001802
FFFFFF
006000
00E000
00C000
00C000
018020
030010
060008
0C000C
1FFFFE
3FE006
1C0006
ENDCHAR
STARTCHAR CNS4-2335
ENCODING 12327
SWIDTH 591 0
DWIDTH 24 0
BBX 24 24 0 -2
BITMAP
000004
00000E
7FFFFE
00C300
00C300
00C300
20C30C
3FC3FE
30C30E
30C30C
30C30C
30C30C
30C30C
31C38C
7FC3FC
00C30C
00C300
018300
018300
030300
070300
0E0300
1C0300
300300
ENDCHAR
STARTCHAR CNS3-243F
ENCODING 12328
SWIDTH 591 0
DWIDTH 24 0
BBX 24 24 0 -2
BITMAP
000004
00000E
7FFFFE
018300
018300
41830C
7FFFFE
61838E
61830C
61830C
61830C
61830C
63C38C
63638C
63764C
63364C
66146C
660C7C
6C083C
68100C
60000C
6000FC
60003C
600018
ENDCHAR
STARTCHAR CNS3-2121
ENCODING 12329
SWIDTH 591 0
DWIDTH 24 0
BBX 24 24 0 -2
BITMAP
001800
001800
001800
001800
001800
001800
001800
001800
001800
001800
001800
001800
001800
001800
001800
001800
001800
001800
001800
001800
001800
001800
001800
001000
ENDCHAR
STARTCHAR CNS1-4439
ENCODING 12330
SWIDTH 591 0
DWIDTH 24 0
BBX 24 24 0 -2
BITMAP
000070
0C0070
0700E0
0380E0
01C1C0
00E380
007700
007600
003C00
001800
001800
001800
001800
001800
001800
001800
001800
001800
001800
001800
001800
001800
001800
001000
ENDCHAR
STARTCHAR CNS2-2130
ENCODING 12331
SWIDTH 591 0
DWIDTH 24 0
BBX 24 24 0 -2
BITMAP
000000
0001C0
3FFFE0
00C0C0
00C0C0
00C0C0
00C0C0
01CCC0
1FFCC0
00C0C0
00C0C0
00C0C0
00C0C0
01CEC0
1FFEC0
00C0C0
00C0C0
00C0C1
00C0C1
00C0C1
00C0C3
00C0FF
00C07F
00803E
ENDCHAR
STARTCHAR CNS4-213A
ENCODING 12332
SWIDTH 591 0
DWIDTH 24 0
BBX 24 24 0 -2
BITMAP
001800
001800
001860
001BF0
003F00
01F800
0F1800
001800
001860
001BF0
003F00
01F800
0F1800
001800
001830
001BF8
003F80
01F800
1F1800
001800
001800
001800
001800
001000
ENDCHAR
STARTCHAR CNS1-4464
ENCODING 12333
SWIDTH 591 0
DWIDTH 24 0
BBX 24 24 0 -2
BITMAP
001800
001800
0018E0
007FF0
03F800
1F1800
001800
001800
001810
1FFFF8
003800
001800
001800
001800
001806
FFFFFF
001800
001800
001800
001800
001800
001800
001800
001000
ENDCHAR
STARTCHAR CNS4-2B5E
ENCODING 12334
SWIDTH 591 0
DWIDTH 24 0
BBX 24 24 0 -2
BITMAP
00E700
10E71C
08C638
0CC630
06C660
00C646
FFFFFF
0200E0
0101C0
008180
00C300
004618
3FFFFC
001800
001800
001800
003807
FFFFFF
001800
001800
001800
001800
001800
001000
ENDCHAR
STARTCHAR CNS4-2122
ENCODING 12335
SWIDTH 591 0
DWIDTH 24 0
BBX 24 24 0 -2
BITMAP
002000
00F000
03F000
0F3000
3C3000
F03800
601800
001800
001800
001800
001800
000C00
000E00
000600
000600
000300
000300
000180
0000C0
000060
000038
00001F
00000F
000007
ENDCHAR
STARTCHAR CNS4-2123
ENCODING 12336
SWIDTH 591 0
DWIDTH 24 0
BBX 24 24 0 -2
BITMAP
000000
007000
FFF800
003000
003000
003000
003000
001800
001800
001800
001800
000C00
000C00
000E00
000600
000700
000300
000180
0000C0
000060
000038
00001F
00000F
000007
ENDCHAR
STARTCHAR CNS6-2123
ENCODING 12337
SWIDTH 591 0
DWIDTH 24 0
BBX 24 24 0 -2
BITMAP
000000
000000
000000
000078
000078
0E0070
0700E0
01C0C0
0061C0
003180
001F00
000E00
000E00
001F00
003180
0060C0
00C060
018030
070018
1C0008
700000
000000
000000
000000
ENDCHAR
STARTCHAR CNS2-2128
ENCODING 12338
SWIDTH 591 0
DWIDTH 24 0
BBX 24 24 0 -2
BITMAP
0001C0
0007E0
003F00
03F000
1E7000
007000
007000
007000
007000
007000
007004
7FFFFE
007000
007000
007000
007000
007000
007001
007001
007003
007003
003FFF
001FFF
000FFC
ENDCHAR
STARTCHAR CNS4-2227
ENCODING 12339
SWIDTH 591 0
DWIDTH 24 0
BBX 24 24 0 -2
BITMAP
0001F8
001FFC
07FE00
3E1800
001800
001800
001808
01981C
03983C
061870
0C1CC0
381F00
E01A00
001B00
009980
01D8C0
031860
0E183C
18181F
60180F
801802
001800
001800
001000
ENDCHAR
STARTCHAR CNS4-2124
ENCODING 12340
SWIDTH 591 0
DWIDTH 24 0
BBX 24 24 0 -2
BITMAP
060000
060000
060000
060000
060000
060000
060000
060000
060000
060000
060000
060000
060000
060000
060000
060000
060000
060004
06000C
060008
060018
07FFFC
07FFF8
03FFE0
ENDCHAR
STARTCHAR CNS2-2122
ENCODING 12341
SWIDTH 591 0
DWIDTH 24 0
BBX 24 24 0 -2
BITMAP
070000
070000
060000
060000
060000
060018
060FFC
07FC1C
7E0018
060018
060038
060030
060030
060060
060040
060000
060000
060001
060001
060003
070003
07FFFF
03FFFF
00FFFC
ENDCHAR
STARTCHAR CNS3-2145
ENCODING 12342
SWIDTH 591 0
DWIDTH 24 0
BBX 24 24 0 -2
BITMAP
040E00
070E00
0E0E00
0C0E00
0C0E00
180E00
100E00
308E00
61EE00
71CE00
1B8E00
0F0E00
070E00
060E00
060E00
0C0E00
198E00
38CE01
31EE03
676E02
FC7E06
703FFF
0007FE
0003F8
ENDCHAR
STARTCHAR CNS3-2264
ENCODING 12343
SWIDTH 591 0
DWIDTH 24 0
BBX 24 24 0 -2
BITMAP
0701C0
0701C0
060180
0C0180
0C0180
18C180
106180
303180
603980
FFF980
F81980
600980
000180
006180
3FF180
307180
307180
307180
307181
307181
307183
3FF1FF
3061FF
20007E
ENDCHAR
STARTCHAR CNS1-4726
ENCODING 12344
SWIDTH 591 0
DWIDTH 24 0
BBX 24 24 0 -2
BITMAP
060380
060380
060300
060300
060300
062300
07F300
060300
060300
060300
060300
060300
066300
FFE300
E06300
E06300
E06300
E06300
E06301
E06301
E06303
FFE3FF
E061FF
C040FE
ENDCHAR
STARTCHAR CNS4-2531
ENCODING 12345
SWIDTH 591 0
DWIDTH 24 0
BBX 24 24 0 -2
BITMAP
06083E
060DFE
064FC0
FFEC00
0E0C07
060FFF
1FCC38
FE0C38
E61838
463838
7E7038
1CE038
098010
000060
1FFFF0
0007C0
001E00
00F000
03C004
1E0004
38000C
7FFFFC
3FFFFC
1FFFF8
ENDCHAR
STARTCHAR CNS4-2530
ENCODING 12346
SWIDTH 591 0
DWIDTH 24 0
BBX 24 24 0 -2
BITMAP
0C0380
060380
060300
FFF300
006300
206300
30C300
10C300
188300
198300
093300
FFF300
060300
060300
060300
062300
7FF300
060300
060301
060301
060303
0603FF
0601FF
0600FE
ENDCHAR
STARTCHAR CNS3-2B23
ENCODING 12347
SWIDTH 591 0
DWIDTH 24 0
BBX 24 24 0 -2
BITMAP
070380
070380
062300
7FF300
070300
060300
066300
7FF300
607300
607300
607300
7FF300
607300
607300
7FF300
460300
060300
063301
FFFB01
060303
060303
0603FF
0601FF
0600FC
ENDCHAR
STARTCHAR CNS2-334E
ENCODING 12348
SWIDTH 591 0
DWIDTH 24 0
BBX 24 24 0 -2
BITMAP
03E1C0
1FF1C0
782180
8C3980
E67180
626180
20C180
040180
0C0180
18C180
31C180
338180
1F0180
0CC180
186180
7FF180
7F3180
661180
064181
366181
263183
4619FF
8619FF
06007E
ENDCHAR
STARTCHAR CNS2-2129
ENCODING 12349
SWIDTH 591 0
DWIDTH 24 0
BBX 24 24 0 -2
BITMAP
000020
000070
0FFFF0
000000
000000
000000
000000
000004
7FFFFE
001800
001800
001800
001800
001800
001800
001800
001800
001800
001800
001800
001800
01F800
007800
003000
ENDCHAR
STARTCHAR CNS4-213B
ENCODING 12350
SWIDTH 591 0
DWIDTH 24 0
BBX 24 24 0 -2
BITMAP
000020
000070
0FFFF0
000000
000000
000000
000000
000000
00000C
3FFFFE
000000
000000
000000
000000
000070
0FFFF0
000000
000000
000000
000000
000000
000000
00000C
3FFFFC
ENDCHAR
STARTCHAR CNS3-216C
ENCODING 12351
SWIDTH 591 0
DWIDTH 24 0
BBX 24 24 0 -2
BITMAP
001000
001C00
001800
001800
201808
38180E
30180C
30180C
30180C
30180C
30381C
7FFFF8
000000
000000
000000
000000
000038
1FFFF8
000000
000000
000000
000006
7FFFFF
000000
ENDCHAR
STARTCHAR CNS3-2742
ENCODING 12352
SWIDTH 591 0
DWIDTH 24 0
BBX 24 24 0 -2
BITMAP
006000
00E000
00C180
0180C0
070FE0
0FF830
060018
000048
0E0060
1C00C0
188198
30430C
73E7FE
7E67C6
703306
300000
000000
000030
3FFFF8
000000
000000
000000
000007
FFFFFF
ENDCHAR
STARTCHAR CNS3-2B26
ENCODING 12353
SWIDTH 591 0
DWIDTH 24 0
BBX 24 24 0 -2
BITMAP
003000
001800
00180E
7FFFFE
000000
000040
07FFE0
0600E0
060060
060060
060060
07FFE0
060040
000000
300018
3FFFFC
300018
300018
3FFFF8
380018
300018
300018
3FFFF8
300018
ENDCHAR
STARTCHAR CNS2-6D44
ENCODING 12354
SWIDTH 591 0
DWIDTH 24 0
BBX 24 24 0 -2
BITMAP
003000
001806
FFFFFF
000000
034318
1E7F7C
1C5F18
1F4378
1C5F18
1C7718
1F7778
1C5B18
3C431A
3FFFFF
600007
E3FFC4
4380E0
0380C0
03FFC0
0380C0
03FFC0
0380C0
0380C7
FFFFFF
ENDCHAR
STARTCHAR CNS1-4470
ENCODING 12355
SWIDTH 591 0
DWIDTH 24 0
BBX 24 24 0 -2
BITMAP
038000
038000
070002
06FFFF
0601C0
0C01C0
1C01C0
1C01C0
3C01C0
3C01C0
7C01C0
5C01C0
9C01C0
1C01C0
1C01C0
1C01C0
1C01C0
1C01C0
1C01C0
1C01C0
1C01C0
1C1F80
1C0F80
180300
ENDCHAR
STARTCHAR CNS4-213C
ENCODING 12356
SWIDTH 591 0
DWIDTH 24 0
BBX 24 24 0 -2
BITMAP
001800
001800
003800
007400
006200
00C300
018180
0310E0
061C78
0C181F
30180E
E01800
001808
00381C
3FFFFC
001800
001800
001800
001800
001800
001800
001800
001800
001000
ENDCHAR
STARTCHAR CNS2-214A
ENCODING 12357
SWIDTH 591 0
DWIDTH 24 0
BBX 24 24 0 -2
BITMAP
001800
003800
003800
006400
00C200
018180
0300C0
060060
0C103C
181C1F
30180E
E01800
001800
081820
1C1838
1C1830
1C1830
1C1830
1C1830
1C1830
1C1830
1C1830
1FFFF0
000030
ENDCHAR
STARTCHAR CNS4-215B
ENCODING 12358
SWIDTH 591 0
DWIDTH 24 0
BBX 24 24 0 -2
BITMAP
070008
07003C
0603FC
061F80
0CFE00
0C0E00
1C0E00
1C0E00
3C0E00
7C0E00
7C0E07
DDFFFF
1C0E00
1C0E00
1C0E00
1C0E00
1C0E00
1C0E00
1C0E01
1C0E01
1C0E03
1C0FFF
1C07FF
1803FE
ENDCHAR
STARTCHAR CNS3-216D
ENCODING 12359
SWIDTH 591 0
DWIDTH 24 0
BBX 24 24 0 -2
BITMAP
038000
03800C
033FFC
030180
060180
060180
0C0180
0C0180
1C0180
1C0180
3C0187
6C7FFF
4C0180
0C0180
0C0180
0C0180
0C0180
0C0180
0C0180
0C0180
0C0180
0C0180
0C0180
0C0180
ENDCHAR
STARTCHAR CNS2-2148
ENCODING 12360
SWIDTH 591 0
DWIDTH 24 0
BBX 24 24 0 -2
BITMAP
038E00
038E00
071C00
061804
06180E
0C3FFE
1C6000
1C4000
3C8010
3C3FF8
7C0038
5C0060
9C00C0
1C0180
1C0300
1C0600
1C0C00
1C1800
1C3001
1C6001
1C6003
1C7FFF
1C7FFF
181FFE
ENDCHAR
STARTCHAR CNS4-215A
ENCODING 12361
SWIDTH 591 0
DWIDTH 24 0
BBX 24 24 0 -2
BITMAP
071800
071800
061800
063800
0C3006
0C3FFF
1C6007
1C6007
3CC007
7CC007
7D8807
DC0607
1C0307
1C0387
1C0187
1C0007
1C0007
1C0007
1C0006
1C0006
1C000E
1C03FC
1C00F8
180030
ENDCHAR
STARTCHAR CNS2-2145
ENCODING 12362
SWIDTH 591 0
DWIDTH 24 0
BBX 24 24 0 -2
BITMAP
070000
070000
06000E
06FFFE
0C0000
0C0000
180000
180000
380000
780000
780000
D80018
183FFC
180000
180000
180000
180000
180000
180000
180000
180002
19FFFF
180000
180000
ENDCHAR
STARTCHAR CNS3-2268
ENCODING 12363
SWIDTH 591 0
DWIDTH 24 0
BBX 24 24 0 -2
BITMAP
0381C0
0381C0
070180
060180
060180
0C1190
1C1998
1C198C
3C3186
3C3187
6C6183
4C6181
8C418C
0CC18C
0C8198
0C01B8
0C0130
0C0060
0C00C0
0C0180
0C0700
0C0C00
0C3000
0DC000
ENDCHAR
STARTCHAR CNS2-216F
ENCODING 12364
SWIDTH 591 0
DWIDTH 24 0
BBX 24 24 0 -2
BITMAP
038300
038700
070700
060F80
060CC0
0C1CC0
1C1860
1C1030
3C3038
3C605C
7CFFEF
5C8007
9D0002
1C0020
1C7FF0
1C0030
1C0030
1C0060
1C0060
1C00C0
1C00C0
1C0180
1C0180
180300
ENDCHAR
STARTCHAR CNS1-4738
ENCODING 12365
SWIDTH 591 0
DWIDTH 24 0
BBX 24 24 0 -2
BITMAP
0770E0
0770E0
0660C0
0660C0
0C60C0
0C60C0
1860C0
1860C0
3860C0
787EFE
7860C0
D860C0
1860C0
1860C0
1860C0
1860C0
1860C0
1860C0
1860C1
1862C1
187CC3
1878FF
18707F
18603E
ENDCHAR
STARTCHAR CNS2-216D
ENCODING 12366
SWIDTH 591 0
DWIDTH 24 0
BBX 24 24 0 -2
BITMAP
039800
039800
071800
063800
06300C
0C3FFC
1C6180
1C6180
3CC180
3CC180
7C8180
5C0180
9C0186
1CFFFF
1C0180
1C0180
1C0180
1C0180
1C0180
1C0180
1C0180
1C0180
1C0180
180180
ENDCHAR
STARTCHAR CNS1-4739
ENCODING 12367
SWIDTH 591 0
DWIDTH 24 0
BBX 24 24 0 -2
BITMAP
0380C0
039840
071C60
061860
061820
0C1830
1C3018
1C3018
3C600C
3C600F
7CC007
5C9FFE
9C0E18
1C0E18
1C0E18
1C0C18
1C0C18
1C1818
1C1818
1C3038
1C3038
1C63F0
1CC1E0
1B80C0
ENDCHAR
STARTCHAR CNS4-222D
ENCODING 12368
SWIDTH 591 0
DWIDTH 24 0
BBX 24 24 0 -2
BITMAP
038004
03800E
077FFE
060E00
060E00
0C0E00
1C0C00
1C0C38
3C0FF8
3C0C38
6C1838
4C1838
8C1830
0C1830
0C1830
0C3FF0
0C1060
0C0060
0C0060
0C0060
0C0060
0C0062
0CFFFF
0C0000
ENDCHAR
STARTCHAR CNS1-472B
ENCODING 12369
SWIDTH 591 0
DWIDTH 24 0
BBX 24 24 0 -2
BITMAP
070600
070300
060180
060180
0C0087
0CFFFF
1C0C00
1C0C00
3C0C00
7C0C18
7C0FFC
DC0C0C
1C0C0C
1C180C
1C180C
1C180C
1C180C
1C300C
1C301C
1C6018
1C6038
1CC7F0
1D81E0
1B00C0
ENDCHAR
STARTCHAR CNS2-2170
ENCODING 12370
SWIDTH 591 0
DWIDTH 24 0
BBX 24 24 0 -2
BITMAP
038180
038080
0700C0
060040
061C60
0C1C60
1C1830
1C1830
3C3038
3C3218
7C630C
5C630E
9CC60F
1CC607
1D8E00
1D0C00
1C0800
1C1830
1C1818
1C300C
1C30FC
1C7F8C
1C7004
181004
ENDCHAR
STARTCHAR CNS2-2174
ENCODING 12371
SWIDTH 591 0
DWIDTH 24 0
BBX 24 24 0 -2
BITMAP
0381C0
0381C0
070180
060186
06FFFF
0C0180
1C0180
1C218C
3C7FFE
3C718E
7C718C
5C718C
9C718C
1C718C
1C718C
1C718C
1C718C
1C718C
1C71BC
1C71BC
1C6198
1C0180
1C0180
180180
ENDCHAR
STARTCHAR CNS3-226D
ENCODING 12372
SWIDTH 591 0
DWIDTH 24 0
BBX 24 24 0 -2
BITMAP
070000
070038
061FFC
060030
0C0060
0C0640
180380
180380
380186
78FFFF
780186
D8018C
180188
180180
180180
180180
180180
180180
180180
180180
180180
181F80
180F00
180200
ENDCHAR
STARTCHAR CNS2-2172
ENCODING 12373
SWIDTH 591 0
DWIDTH 24 0
BBX 24 24 0 -2
BITMAP
038000
038200
070300
060180
0601C0
0C08C0
1C0CC0
1C0C40
3C0C00
3C0C00
7C0C00
5C4C00
9C4C00
1C4C08
1C4C0C
1CCC06
1CCC06
1CCC07
1DCC03
1D8C13
1D8C31
1C0FF0
1C07F0
1803E0
ENDCHAR
STARTCHAR CNS1-473B
ENCODING 12374
SWIDTH 591 0
DWIDTH 24 0
BBX 24 24 0 -2
BITMAP
070020
070070
06FFF8
061830
0C1830
0C1860
181860
181860
38186C
781FFC
781A0C
D8320C
183218
183318
187138
1861B0
1860E0
1860E0
18C0E0
18C1B0
19831C
19060F
1A1807
187000
ENDCHAR
STARTCHAR CNS4-222A
ENCODING 12375
SWIDTH 591 0
DWIDTH 24 0
BBX 24 24 0 -2
BITMAP
070000
072007
067FFF
067000
0C7000
0C740E
1C77FF
1C7606
3C7606
7C7606
7C7606
DC7606
1C7606
1C7606
1C76FE
1C661C
1C6608
1C6600
1CC601
1CC601
1C8603
1D87FF
1D03FF
1B01FE
ENDCHAR
STARTCHAR CNS2-217A
ENCODING 12376
SWIDTH 591 0
DWIDTH 24 0
BBX 24 24 0 -2
BITMAP
03803C
0380FE
071FE0
061800
061800
0C1800
1C1800
1C1806
3C1FFF
3C1830
7C1830
5C1830
9C1830
1C1830
1C3030
1C3030
1C3030
1C3030
1C7030
1C6030
1C6030
1CC030
1C8030
190030
ENDCHAR
STARTCHAR CNS1-472F
ENCODING 12377
SWIDTH 591 0
DWIDTH 24 0
BBX 24 24 0 -2
BITMAP
070380
070380
060300
060300
0C0308
0CFFFC
1C0300
1C0300
3C0300
7C0300
7C0386
DCFFFE
1C0380
1C0380
1C06C0
1C0640
1C0C60
1C0C20
1C1830
1C1818
1C301E
1C600F
1CC007
1F0000
ENDCHAR
STARTCHAR CNS3-2270
ENCODING 12378
SWIDTH 591 0
DWIDTH 24 0
BBX 24 24 0 -2
BITMAP
070E00
070E00
060C00
060C00
0C0C07
0CFFFF
180C00
180C00
381C08
781FFC
781C1C
D81C18
181E38
181230
183330
183360
1861E0
1861C0
1841E0
18C330
19861C
190C0F
181807
18E000
ENDCHAR
STARTCHAR CNS3-2277
ENCODING 12379
SWIDTH 591 0
DWIDTH 24 0
BBX 24 24 0 -2
BITMAP
001800
001800
001800
003800
003400
006600
00C300
0181C0
0300F0
0E007F
18001E
E20084
0381E0
0301C0
0301C0
0301C0
0781C0
06C1A0
06E330
0C6318
0C761C
182C0F
301807
607000
ENDCHAR
STARTCHAR CNS1-472D
ENCODING 12380
SWIDTH 591 0
DWIDTH 24 0
BBX 24 24 0 -2
BITMAP
038300
038300
070300
060300
060308
0C830E
1CC31C
1C6318
3C7330
3C7320
7C3340
5C0700
9C0700
1C0780
1C0E80
1C0CC0
1C0C40
1C1860
1C3870
1C3038
1C601E
1CC00F
1D8007
1B0000
ENDCHAR
STARTCHAR CNS4-2339
ENCODING 12381
SWIDTH 591 0
DWIDTH 24 0
BBX 24 24 0 -2
BITMAP
0E7000
0E7000
0C6004
1C6DFE
186EC6
186F46
33FE46
33CE46
70CE46
70CE46
F0CE46
B0CC6C
30CC6C
30CC6C
31983C
31D838
31F838
303838
306C68
30666C
30C6C6
318187
330303
300E01
ENDCHAR
STARTCHAR CNS3-2450
ENCODING 12382
SWIDTH 591 0
DWIDTH 24 0
BBX 24 24 0 -2
BITMAP
070700
070700
060600
060F00
0C0D80
0C1CC0
1C1860
1C3038
3C621F
7CC38F
7D8304
DE0300
1C0300
1C7B60
1C7330
1C6318
1C630C
1CC30C
1CC30E
1D8306
1F0300
1C3F00
1C1E00
180C00
ENDCHAR
STARTCHAR CNS1-4923
ENCODING 12383
SWIDTH 591 0
DWIDTH 24 0
BBX 24 24 0 -2
BITMAP
039800
039800
071800
063000
063006
0C7FFF
1C6187
1CC184
3C8188
3C0180
7C0180
5C3990
9C3998
1C318C
1C718E
1C6186
1CC187
1C8187
1D0182
1C0180
1C0180
1C1F80
1C0F00
180200
ENDCHAR
STARTCHAR CNS2-2329
ENCODING 12384
SWIDTH 591 0
DWIDTH 24 0
BBX 24 24 0 -2
BITMAP
030338
032338
077330
067330
067330
0C7330
1C7330
1C7330
3C7332
3DFFFF
7C7330
5C7330
9C7330
1C7330
1C7330
1C7330
1C73F0
1C7230
1C7000
1C7000
1C7000
1C7006
1C7FFE
180000
ENDCHAR
STARTCHAR CNS3-244F
ENCODING 12385
SWIDTH 591 0
DWIDTH 24 0
BBX 24 24 0 -2
BITMAP
070000
070006
067FFF
066667
0C6667
0C6667
1C6667
1C6667
3C6667
7C6667
7C6667
DC6667
1C6E77
1C6C7F
1C7C3F
1C7807
1C6007
1C6007
1C6007
1C6007
1C6007
1C7FFF
1C6002
184000
ENDCHAR
STARTCHAR CNS3-2446
ENCODING 12386
SWIDTH 591 0
DWIDTH 24 0
BBX 24 24 0 -2
BITMAP
0381C0
0381C0
070180
060180
060180
0C0180
1C6186
1C7FFE
3C6186
3C6186
7C6186
5C6186
9C6186
1C6186
1C7FFE
1C6186
1C6186
1C6186
1C6186
1C6186
1C6186
1C7FFE
1C6006
186004
ENDCHAR
STARTCHAR CNS3-2445
ENCODING 12387
SWIDTH 591 0
DWIDTH 24 0
BBX 24 24 0 -2
BITMAP
038000
039030
071FF8
061838
061838
0C1838
1C1838
1C1838
3C1838
3C1FF8
7C1838
5C1838
9C1838
1C1838
1C1838
1C1FF8
1C1838
1C1838
1C1838
1C1838
1C1838
1C183A
1DFFFF
180000
ENDCHAR
STARTCHAR CNS2-227B
ENCODING 12388
SWIDTH 591 0
DWIDTH 24 0
BBX 24 24 0 -2
BITMAP
038000
03800C
073FFC
060180
060188
0C218E
1C119C
1C1998
3C0DB0
3C0DA0
7C0DA0
5C0182
9C7FFF
1C0180
1C0180
1C0180
1C0180
1C0180
1C0180
1C0180
1C0180
1C0180
1C0180
180180
ENDCHAR
STARTCHAR CNS2-2322
ENCODING 12389
SWIDTH 591 0
DWIDTH 24 0
BBX 24 24 0 -2
BITMAP
070000
070006
067FFE
060180
0C0180
0C0300
1C0300
1C0700
3C0720
7C0F10
7C1B08
DC1B0C
1C330E
1C6306
1CC307
1D8302
1C0300
1C0300
1C0300
1C0300
1C0300
1C0302
1DFFFF
180000
ENDCHAR
STARTCHAR CNS3-244E
ENCODING 12390
SWIDTH 591 0
DWIDTH 24 0
BBX 24 24 0 -2
BITMAP
070000
071008
061FFC
06180C
0C180C
0C180C
1C180C
1C180C
3C180C
7C1FFC
7C1808
DC1800
1C1804
1C180E
1C1FFF
1C1806
1C1806
1C1806
1C1806
1C1806
1C1806
1C1FFE
1C1804
181000
ENDCHAR
STARTCHAR CNS3-2449
ENCODING 12391
SWIDTH 591 0
DWIDTH 24 0
BBX 24 24 0 -2
BITMAP
070000
070004
067FFE
0601C0
0C01C0
0C01C0
1C01C0
1C01C0
3C11C0
7C1DC0
7C19C4
DC19FE
1C19C0
1C19C0
1C19C0
1C19C0
1C19C0
1C19C0
1C19C0
1C19C0
1C19C0
1C19C6
1CFFFF
180000
ENDCHAR
STARTCHAR CNS1-4929
ENCODING 12392
SWIDTH 591 0
DWIDTH 24 0
BBX 24 24 0 -2
BITMAP
038300
038300
070300
060606
06FFFF
0C0FC0
1C0DC0
1C19C0
3C19CC
3C3FFE
7C39CE
5C79CC
9C79CC
1CF9CC
1D99CC
1D19CC
1C19CC
1C19CC
1C19CC
1C19FC
1C19D8
1C11D0
1C01C0
180180
ENDCHAR
STARTCHAR CNS2-227D
ENCODING 12393
SWIDTH 591 0
DWIDTH 24 0
BBX 24 24 0 -2
BITMAP
038380
038380
070300
060300
060300
0C030C
1C7FFC
1C0300
3C0300
3C0300
7C0300
5C0306
9DFFFF
1C0600
1C0600
1C0C00
1C0C00
1C1818
1C180C
1C300E
1C33FE
1C7F07
1C7003
181000
ENDCHAR
STARTCHAR CNS3-244C
ENCODING 12394
SWIDTH 591 0
DWIDTH 24 0
BBX 24 24 0 -2
BITMAP
070004
07000E
067FFF
060306
0C0306
0C0606
1C0606
1C0606
3C0C0E
7C0C7C
7C183C
DC3018
1C6000
1CF00C
1D9FFE
1C180C
1C180C
1C180C
1C180C
1C180C
1C180C
1C1FFC
1C180C
181000
ENDCHAR
STARTCHAR CNS2-253D
ENCODING 12395
SWIDTH 591 0
DWIDTH 24 0
BBX 24 24 0 -2
BITMAP
070060
070860
060E60
060C60
0C0C60
0C0C60
180C60
188C60
38EC60
78CC7E
78CFE0
D8CC60
18CC60
18CC60
18CC60
18CC60
18CC60
18CC60
18CC60
18CC61
18CFE1
1BFE7F
1BE07F
19803E
ENDCHAR
STARTCHAR CNS2-2324
ENCODING 12396
SWIDTH 591 0
DWIDTH 24 0
BBX 24 24 0 -2
BITMAP
038380
038380
070300
060300
060300
0C6318
1C7FFC
1C7318
3C7318
3C7318
7C7318
5C7318
9C7318
1C7318
1DFFFF
1C0300
1C0300
1C0660
1C0E30
1C0C18
1C180C
1C300E
1C6006
198006
ENDCHAR
STARTCHAR CNS1-487C
ENCODING 12397
SWIDTH 591 0
DWIDTH 24 0
BBX 24 24 0 -2
BITMAP
0381C0
0381C0
070180
060180
060180
0C0186
1C01FE
1C0180
3C0180
3C0180
7C0180
5C0180
9C618C
1C7FFE
1C700E
1C700C
1C700C
1C700C
1C700C
1C700C
1C700C
1C7FFC
1C700C
186000
ENDCHAR
STARTCHAR CNS2-227A
ENCODING 12398
SWIDTH 591 0
DWIDTH 24 0
BBX 24 24 0 -2
BITMAP
038000
03830C
07018E
0600CC
06004C
0C0F18
1C0E18
1C0E30
3C0E30
3C0E60
7C0E60
5C4EC0
9C4ECC
1C4F86
1CCF87
1CCF03
1CCF03
1C8E05
1C0E04
1C1E0C
1C37FC
1C63FC
1CC000
1B8000
ENDCHAR
STARTCHAR CNS2-2327
ENCODING 12399
SWIDTH 591 0
DWIDTH 24 0
BBX 24 24 0 -2
BITMAP
001800
003800
003800
006400
00C200
018180
0300C0
060060
0C003C
1BFF9F
30000E
E00000
000000
000038
1FFFF8
001800
021800
0718C0
061860
0C1830
081838
101818
201808
001000
ENDCHAR
STARTCHAR CNS2-2325
ENCODING 12400
SWIDTH 591 0
DWIDTH 24 0
BBX 24 24 0 -2
BITMAP
039C00
039C00
071810
061FF8
061838
0C3830
1C6C60
1C4460
3C86C0
3C03C0
7C0380
5C0380
9C06C0
1C0C60
1C183C
1C371F
1C61C7
1D80C0
1C0040
1C0E00
1C0380
1C01C0
1C00E0
180060
ENDCHAR
STARTCHAR CNS1-4921
ENCODING 12401
SWIDTH 591 0
DWIDTH 24 0
BBX 24 24 0 -2
BITMAP
038000
03A007
077FFF
0671C7
0671C7
0C71C7
1C71C7
1C71C7
3C7FFF
3C71C7
7C71C7
5C71C7
9C71C7
1C71C7
1C71C7
1C7FFF
1C71C7
1C61C7
1C61C7
1C41C7
1CC1C7
1CC1DF
1D818E
1B000C
ENDCHAR
STARTCHAR CNS2-253F
ENCODING 12402
SWIDTH 591 0
DWIDTH 24 0
BBX 24 24 0 -2
BITMAP
038000
038006
077FFF
067007
067007
0C7007
1C7007
1C7267
3C73F7
3C7367
7C7367
5C7367
9C7367
1C7367
1C7367
1C73E7
1C7267
1C7007
1C7007
1C7007
1C7FFF
1C7006
1C2000
180000
ENDCHAR
STARTCHAR CNS1-4B71
ENCODING 12403
SWIDTH 591 0
DWIDTH 24 0
BBX 24 24 0 -2
BITMAP
038380
038380
070300
060310
067FFF
0C0306
1C030C
1C0318
3C0332
3CFFFF
6C00C0
4C0180
8C0300
0C0600
0C0E04
0C1FFE
0C3600
0C6600
0CC600
0D8600
0C0600
0C07FE
0C03FF
0C01FF
ENDCHAR
STARTCHAR CNS2-254C
ENCODING 12404
SWIDTH 591 0
DWIDTH 24 0
BBX 24 24 0 -2
BITMAP
038300
038300
070380
060680
0606C0
0C0C60
1C0C70
1C1838
3C301C
3C600F
7CC037
5D9FF3
9F0000
1C0000
1C3018
1C3FFC
1C3018
1C3018
1C3018
1C3018
1C3018
1C3FF8
1C3018
183000
ENDCHAR
STARTCHAR CNS4-253E
ENCODING 12405
SWIDTH 591 0
DWIDTH 24 0
BBX 24 24 0 -2
BITMAP
001800
003800
007C00
00C600
018300
0301C0
0600F8
0C003F
3FFFEF
E00002
000000
00000C
3FFFFC
001800
001800
061800
061C30
061FF0
061800
061800
061800
061802
FFFFFF
000000
ENDCHAR
STARTCHAR CNS2-253C
ENCODING 12406
SWIDTH 591 0
DWIDTH 24 0
BBX 24 24 0 -2
BITMAP
038000
03B038
073FFC
063018
063018
0C3018
1C3FF8
1C3018
3C3018
3C3018
7C3018
5C3FF8
9C3210
1C3200
1C330E
1C331C
1C31B0
1C30C0
1C30E0
1C3070
1C33BC
1C3E1F
1C380E
183000
ENDCHAR
STARTCHAR CNS2-2543
ENCODING 12407
SWIDTH 591 0
DWIDTH 24 0
BBX 24 24 0 -2
BITMAP
038018
0381FC
073FFC
060180
060180
0C0180
1C0180
1C0187
3CFFFF
3C0180
7C0180
5C0180
9C0180
1C718C
1C7FFE
1C700C
1C700C
1C700C
1C700C
1C700C
1C700C
1C7FFC
1C700C
186000
ENDCHAR
STARTCHAR CNS2-2541
ENCODING 12408
SWIDTH 591 0
DWIDTH 24 0
BBX 24 24 0 -2
BITMAP
039C00
039C00
071870
061FF8
063060
0C3040
1C6086
1CFFFF
3C7000
3C7008
7C77FC
5C760C
9C760C
1C760C
1C760C
1C761C
1C66FC
1C6638
1C6611
1CC601
1CC603
1CC7FF
1C83FF
1901FE
ENDCHAR
STARTCHAR CNS1-4C21
ENCODING 12409
SWIDTH 591 0
DWIDTH 24 0
BBX 24 24 0 -2
BITMAP
038600
038300
070380
0603C0
060640
0C0E20
1C0C30
1C181C
3C300F
3C6007
6CC002
4D7FFC
8C0300
0C0300
0C0300
0C0300
0C0398
0C3FF8
0C0300
0C0300
0C0300
0C0304
0C038E
0CFFFE
ENDCHAR
STARTCHAR CNS2-2535
ENCODING 12410
SWIDTH 591 0
DWIDTH 24 0
BBX 24 24 0 -2
BITMAP
0E0380
0E0380
0C0300
1C0300
180300
18060E
33E7FF
3004CC
700CC8
7008C0
F010C0
B000C0
3000C0
3041E0
37E1E0
3001A0
3001B0
300310
300318
30060C
30060E
300C0F
301807
30E000
ENDCHAR
STARTCHAR CNS1-4B7C
ENCODING 12411
SWIDTH 591 0
DWIDTH 24 0
BBX 24 24 0 -2
BITMAP
0700C0
070060
061C20
061830
0C1818
0C101C
1C300F
1C6007
3CD01B
7D9FFC
7C1818
DC1E18
1C1BD8
1C18D8
1C1818
1C1838
1C19D8
1C3F18
1C3618
1C3018
1C6018
1C61F8
1CC078
198030
ENDCHAR
STARTCHAR CNS2-2542
ENCODING 12412
SWIDTH 591 0
DWIDTH 24 0
BBX 24 24 0 -2
BITMAP
0381C0
0381C0
071980
061980
061980
0C318C
1C3FFE
1C6180
3C6180
3CC180
7C0180
5C0182
9CFFFF
1C0E60
1C0E60
1C0C60
1C0C60
1C1C60
1C1860
1C1861
1C3061
1C607F
1CC03F
1F001E
ENDCHAR
STARTCHAR CNS2-2549
ENCODING 12413
SWIDTH 591 0
DWIDTH 24 0
BBX 24 24 0 -2
BITMAP
038300
038180
0740C2
067FFF
066000
0C603C
1C63FC
1C6FC0
3C61C0
3C61C0
7C61C0
5C61C0
9C6FFE
1C61C0
1C61C0
1C61C0
1CC1C0
1CC1C0
1CC1C1
1CC1C1
1C81C3
1D81FF
1F00FF
1A007E
ENDCHAR
STARTCHAR CNS2-253B
ENCODING 12414
SWIDTH 591 0
DWIDTH 24 0
BBX 24 24 0 -2
BITMAP
038000
038006
077FFE
060300
060600
0C0610
1C0C18
1C180C
3C3006
3C7FFF
7C7FC3
5C31C0
9C01C0
1C01C0
1C01C4
1C1FFE
1C01C0
1C01C0
1C01C0
1C01C0
1C01C0
1C01C2
1CFFFF
180000
ENDCHAR
STARTCHAR CNS2-2534
ENCODING 12577
SWIDTH 591 0
DWIDTH 24 0
BBX 24 24 0 -2
BITMAP
038600
038300
070180
060180
060087
0CFFFF
1C0180
1C0300
3C0600
3C0C38
7C1838
5C3870
9C3EE0
1C03C0
1C038E
1C070C
1C0E18
1C1830
1CE060
1C00C0
1C03F8
1C070E
1C1C06
18F003
ENDCHAR
STARTCHAR CNS2-253A
ENCODING 12578
SWIDTH 591 0
DWIDTH 24 0
BBX 24 24 0 -2
BITMAP
038300
038300
070300
060706
06FFFE
0C0E40
1C0C40
1C1820
3C3038
3C7FFF
7CC00F
5D8006
9F7FFC
1C1C00
1C1800
1C1818
1C3FFC
1C1018
1C0018
1C0038
1C0030
1C03F0
1C01E0
1800C0
ENDCHAR
STARTCHAR CNS3-2744
ENCODING 12579
SWIDTH 591 0
DWIDTH 24 0
BBX 24 24 0 -2
BITMAP
070380
070380
06430E
06631C
0C3318
0C3B18
1C1B30
1C1B20
3C0300
7C0306
7CFFFE
DC0C60
1C0C60
1C0C60
1C0C60
1C0C60
1C1860
1C1860
1C3861
1C3061
1C7063
1C607F
1CC07F
1B803E
ENDCHAR
STARTCHAR CNS3-2751
ENCODING 12580
SWIDTH 591 0
DWIDTH 24 0
BBX 24 24 0 -2
BITMAP
001800
003800
003400
006300
01C1C0
07FFFF
1E001F
7001C6
C3FFC0
000180
000300
000630
0FFFF0
000000
00000C
3FFFFE
007000
00F000
01C0C0
038060
060FF0
1FF838
0F0018
060000
ENDCHAR
STARTCHAR CNS3-2748
ENCODING 12581
SWIDTH 591 0
DWIDTH 24 0
BBX 24 24 0 -2
BITMAP
0701C0
0701C0
062188
06318E
0C199C
0C1998
180DB0
180DA0
380182
787FFF
780180
D80180
180180
181D90
181998
18398C
183186
186187
18C183
188183
190181
180180
180180
180180
ENDCHAR
STARTCHAR CNS2-2544
ENCODING 12582
SWIDTH 591 0
DWIDTH 24 0
BBX 24 24 0 -2
BITMAP
038200
038380
070300
060700
060600
0C0C00
1C080C
1CFFFE
3CCECE
3CCECC
7CCECC
5CCECC
9CCECC
1CCECC
1CCECC
1CCECC
1CCECC
1CCECC
1CCECC
1CCECC
1CCECC
1CCECC
1DFFFF
180000
ENDCHAR
STARTCHAR CNS2-2548
ENCODING 12583
SWIDTH 591 0
DWIDTH 24 0
BBX 24 24 0 -2
BITMAP
038200
038300
070180
064186
067FFF
0CC007
1CCE04
1C8E08
3C0E00
3C0E20
7C0C30
5C0C32
9DFFFF
1C1860
1C1860
1C3860
1C3060
1C3EC0
1C07C0
1C03E0
1C0778
1C0E1C
1C380C
19E004
ENDCHAR
STARTCHAR CNS3-2743
ENCODING 12584
SWIDTH 591 0
DWIDTH 24 0
BBX 24 24 0 -2
BITMAP
038300
038300
070310
067FF8
060738
0C0338
1C033A
1DFFFF
3C0338
3C0338
7C0738
5C7FF0
9C0300
1C0308
1CFFFC
1C0300
1C0300
1C0306
1DFFFF
1C0300
1C0300
1C0300
1C0300
180200
ENDCHAR
STARTCHAR CNS2-2546
ENCODING 12585
SWIDTH 591 0
DWIDTH 24 0
BBX 24 24 0 -2
BITMAP
038E00
038E00
070C00
061810
063008
0C60FC
1CFFCE
1C7006
3C21C0
3C7180
7C7180
5C618C
9C7FFE
1C4180
1CC180
1C8180
1C0187
1CFFFF
1C0180
1C0180
1C0180
1C0180
1C0180
180180
ENDCHAR
STARTCHAR CNS2-253E
ENCODING 12586
SWIDTH 591 0
DWIDTH 24 0
BBX 24 24 0 -2
BITMAP
030000
032007
077FFF
067007
067007
0C7017
1C7FFF
1C7007
3C7007
3C7037
7C77F7
5C7637
9C7637
1C7637
1C7637
1C77F7
1C7637
1C7627
1C7007
1C7007
1C7007
1C703F
1C700E
18600C
ENDCHAR
STARTCHAR CNS4-2536
ENCODING 12587
SWIDTH 591 0
DWIDTH 24 0
BBX 24 24 0 -2
BITMAP
0700E0
0700E8
0600C6
0600C6
0C00C0
0C00C2
1DFFFF
1C00C0
3C00C0
7C0060
7C0260
DCFE60
1C1860
1C1860
1C1860
1C1870
1C1830
1C3F31
1DF819
1CC019
1C000F
1C000F
1C0007
180003
ENDCHAR
STARTCHAR CNS2-2540
ENCODING 12588
SWIDTH 591 0
DWIDTH 24 0
BBX 24 24 0 -2
BITMAP
03B800
03B800
073000
063000
067007
0C7FFF
1C4007
1CC007
3CA0C7
3C3FE7
7C30C7
5C30C7
9C3FC7
1C30C7
1C30C7
1C30C7
1C3FC7
1C30C7
1C0006
1C0006
1C000E
1C00FC
1C0078
180030
ENDCHAR
STARTCHAR CNS2-2547
ENCODING 12589
SWIDTH 591 0
DWIDTH 24 0
BBX 24 24 0 -2
BITMAP
067000
067000
067000
067000
0C7606
0C767F
187F67
1BFE67
39F667
786667
786667
D86667
18CE67
18CE67
18CC67
198C67
18D867
187867
183867
183C67
186E7F
18C666
198060
1F0000
ENDCHAR
STARTCHAR CNS3-274C
ENCODING 12590
SWIDTH 591 0
DWIDTH 24 0
BBX 24 24 0 -2
BITMAP
070700
070700
060602
06FFFF
0C0E00
0C0E00
1C0C00
1C0C0C
3C1FFE
7C181C
7C3018
DC3030
1C7060
1CF060
1CB062
1D3FFF
1C3060
1C3060
1C3060
1C3060
1C3060
1C33E0
1C31E0
183040
ENDCHAR
STARTCHAR CNS2-2922
ENCODING 12591
SWIDTH 591 0
DWIDTH 24 0
BBX 24 24 0 -2
BITMAP
030000
032004
077FFE
067000
067000
0C7008
1C7FFC
1C7000
3C7000
3C7004
7C700E
5C7FFE
9C7E40
1C6E46
1C6E6F
1C6E7C
1C6E30
1CCE30
1CCE18
1CCE5C
1C8F8E
1D8F0F
1D0E07
180600
ENDCHAR
STARTCHAR CNS1-5021
ENCODING 12592
SWIDTH 591 0
DWIDTH 24 0
BBX 24 24 0 -2
BITMAP
038000
03B00C
073FFE
06300C
06300C
0C300C
1C3FFC
1C3000
3C3002
3C3FFF
7C3007
5C7007
9C7067
1C7FF7
1C6E77
1C6E67
1C6E67
1CCFE7
1CCC67
1CC007
1D8006
1D00FE
1C003C
180018
ENDCHAR
STARTCHAR CNS2-2930
ENCODING 12593
SWIDTH 591 0
DWIDTH 24 0
BBX 24 24 0 -2
BITMAP
0C0008
0C003C
0C20FC
1FF3E0
187060
186060
306060
30C060
70C064
7193FE
F1F860
B03060
303060
303060
323060
317060
31F060
30E7FE
30E000
30F000
30F800
319FFF
330FFF
3603FC
ENDCHAR
STARTCHAR CNS2-2929
ENCODING 12594
SWIDTH 591 0
DWIDTH 24 0
BBX 24 24 0 -2
BITMAP
038840
038C60
071C30
061830
061818
0C300C
1C600F
1C7FFF
3CB00C
3C300C
7C300C
5C300C
9C300C
1C3FFC
1C0668
1C0660
1C0660
1C0E60
1C0C61
1C0C61
1C1863
1C307F
1C607F
19803E
ENDCHAR
STARTCHAR CNS4-2838
ENCODING 12595
SWIDTH 591 0
DWIDTH 24 0
BBX 24 24 0 -2
BITMAP
0701C0
0701C0
060180
067FFE
0C0180
0C0182
1C7FFF
1CE007
3CC006
7C8030
7C3FF8
DC0078
1C00E0
1C0180
1C0182
1CFFFF
1C0180
1C0180
1C0180
1C0180
1C0180
1C1F80
1C0F00
180200
ENDCHAR
STARTCHAR CNS4-283E
ENCODING 12596
SWIDTH 591 0
DWIDTH 24 0
BBX 24 24 0 -2
BITMAP
070004
07400E
067FFF
066186
0C6186
0C6186
1C7FFE
1C6186
3C6186
7C6186
7C7FFE
DC6304
1C0380
1C0306
1CFFFF
1C0307
1C0307
1C0607
1C0E07
1C0C07
1C1806
1C30FE
1C603C
198018
ENDCHAR
STARTCHAR CNS3-2B2B
ENCODING 12597
SWIDTH 591 0
DWIDTH 24 0
BBX 24 24 0 -2
BITMAP
060300
060300
06030C
0C030E
0C7FFC
1C0318
180330
180362
39FFFF
780180
780300
D80630
180FF8
181870
1830C0
186180
18C186
19FFFE
1B0180
180180
180180
180F80
180700
180200
ENDCHAR
STARTCHAR CNS2-292F
ENCODING 12598
SWIDTH 591 0
DWIDTH 24 0
BBX 24 24 0 -2
BITMAP
070078
0703FC
06FF80
060004
0C0206
0C618E
1C718C
1C2018
3C0000
7C0E00
7C0E20
DC0C32
1CFFFF
1C1C30
1C1830
1C1860
1C3060
1C7860
1C0FC0
1C01C0
1C03F0
1C0E1C
1C180E
18E004
ENDCHAR
STARTCHAR CNS2-2925
ENCODING 12599
SWIDTH 591 0
DWIDTH 24 0
BBX 24 24 0 -2
BITMAP
038000
039838
071FF8
061838
06D838
0CF838
1CDFF8
1CD800
3CC000
3CC018
7CFFFC
5C0618
9C0618
1C0618
1C0618
1CFFFF
1C0E00
1C0C20
1C0C18
1C180C
1C300E
1C6007
1CC007
1B8000
ENDCHAR
STARTCHAR CNS2-287E
ENCODING 12600
SWIDTH 591 0
DWIDTH 24 0
BBX 24 24 0 -2
BITMAP
0381C0
0381C0
070198
06018C
06018C
0CFFFF
1C0180
1C0180
3C4184
3C3187
7C198C
5C1998
9C19A0
1C0180
1C0180
1C05E0
1C19B8
1C719E
1DE18F
1CC187
1C0180
1C1F80
1C0F00
180200
ENDCHAR
STARTCHAR CNS3-2B32
ENCODING 12601
SWIDTH 591 0
DWIDTH 24 0
BBX 24 24 0 -2
BITMAP
038300
038300
070380
060780
060640
0C0C60
1C1C30
1C1838
3C301E
3C7FFF
7CC386
5C0300
9C0300
1C0308
1CFFFC
1C0300
1C3300
1C3B30
1C7318
1C630C
1CE306
1CCF07
1D8F02
180200
ENDCHAR
STARTCHAR CNS3-2B2F
ENCODING 12602
SWIDTH 591 0
DWIDTH 24 0
BBX 24 24 0 -2
BITMAP
0701C0
0731C0
063180
063180
0C3180
0C718C
187FFE
184180
38C180
78C180
780182
D9FFFF
180000
180000
18600C
187FFE
18700C
18700C
18700C
18700C
18700C
187FFC
18700C
186000
ENDCHAR
STARTCHAR CNS2-2923
ENCODING 12603
SWIDTH 591 0
DWIDTH 24 0
BBX 24 24 0 -2
BITMAP
030000
03000C
077FFC
060E00
060E00
0C0E10
1C7FF8
1C0E1C
3C0E18
3C0C18
7C0C18
5C0C18
9CFFFF
1C0000
1C0000
1C0018
1C3FFC
1C300C
1C300C
1C300C
1C300C
1C300C
1C3FFC
183008
ENDCHAR
STARTCHAR CNS2-2924
ENCODING 12604
SWIDTH 591 0
DWIDTH 24 0
BBX 24 24 0 -2
BITMAP
039000
039838
071FFC
061818
061818
0C1818
1C1FF8
1C0000
3C000C
3C7FFE
7C718E
5C718C
9C718C
1C718C
1C7FFC
1C700C
1C7000
1C7000
1C7001
1C7001
1C7003
1C7FFF
1C3FFF
181FFE
ENDCHAR
STARTCHAR CNS3-2B33
ENCODING 12605
SWIDTH 591 0
DWIDTH 24 0
BBX 24 24 0 -2
BITMAP
070300
070320
060318
060318
0C038B
0CFFFF
180300
18C30C
38FFFE
78C30E
78C30C
D8C30C
18FFFC
18E38C
18C30C
18C30C
18E38C
18FFFC
18C30C
18C30C
18C30C
18C37C
18C33C
18C018
ENDCHAR
STARTCHAR CNS2-287D
ENCODING 12606
SWIDTH 591 0
DWIDTH 24 0
BBX 24 24 0 -2
BITMAP
038600
038300
072310
067FF8
06701C
0C7018
1C7018
1C7018
3C7FF8
3C7018
7C7018
5C7018
9C7FF8
1C7400
1C760E
1C721C
1C7330
1C71C0
1C70C0
1C7060
1C7630
1C7C1F
1C700F
183006
ENDCHAR
STARTCHAR CNS1-4F70
ENCODING 12607
SWIDTH 591 0
DWIDTH 24 0
BBX 24 24 0 -2
BITMAP
0381C0
0381C2
0731C7
0619C6
060DCC
0C0FD8
1C05D0
1C31C6
3C3FFF
3C3006
6C3706
4C31E6
8C3066
0C3006
0C301E
0C30F6
0C3786
0C7606
0C6206
0C6006
0C6006
0CC0FE
0C803C
0D0008
ENDCHAR
STARTCHAR CNS3-2B28
ENCODING 12608
SWIDTH 591 0
DWIDTH 24 0
BBX 24 24 0 -2
BITMAP
070200
070300
060182
067FFF
0C6007
0CC006
18C004
180008
383FFC
780000
780000
D80000
180006
18FFFE
180E60
180E60
180C60
180C60
181861
181861
183063
18607F
18C07F
1B803E
ENDCHAR
STARTCHAR CNS2-2927
ENCODING 12609
SWIDTH 591 0
DWIDTH 24 0
BBX 24 24 0 -2
BITMAP
0381C0
0381C0
07218C
067FFE
06718C
0C718C
1C7FFC
1C718C
3C718C
3C718C
6C7FFC
4C0000
8CFFFF
0C1C00
0C1800
0C180C
0C3FFE
0C100E
0C000C
0C000C
0C001C
0C03F8
0C00F0
0C0060
ENDCHAR
STARTCHAR CNS1-4F6E
ENCODING 12610
SWIDTH 591 0
DWIDTH 24 0
BBX 24 24 0 -2
BITMAP
070380
070380
060300
060306
0DFFFF
0C0300
187318
187318
387318
787318
787B3C
D8CB36
198B63
1903C0
180380
180640
180640
180C20
181830
181818
18301E
18600F
18C007
1F0000
ENDCHAR
STARTCHAR CNS4-283F
ENCODING 12611
SWIDTH 591 0
DWIDTH 24 0
BBX 24 24 0 -2
BITMAP
071800
071800
061802
063FFF
0C3818
0C6C18
1C4630
1C8360
3C01C0
7C03E0
7C063C
DC1C5F
1C70E7
1DC180
1C0710
1C0C38
1C3060
1C41C7
1C070E
1C1818
1CF070
1C01C0
1C0E00
18F800
ENDCHAR
STARTCHAR CNS3-2F48
ENCODING 12612
SWIDTH 591 0
DWIDTH 24 0
BBX 24 24 0 -2
BITMAP
0E0C00
0E3E00
0CF000
1D3046
18307F
183067
33FE67
303067
703067
707067
F07867
B07C67
30F667
30F267
30B067
31B067
313067
333067
323067
30307F
303066
303040
303000
303000
ENDCHAR
STARTCHAR CNS3-2F4D
ENCODING 12613
SWIDTH 591 0
DWIDTH 24 0
BBX 24 24 0 -2
BITMAP
0CC070
0C6070
0C3660
1FFF60
180060
18C860
30CC66
3186FF
718667
730867
F20C67
B08C67
30D867
307867
303067
307867
3078C7
30ECC6
30CFC6
31858E
33038C
36037C
300638
300C30
ENDCHAR
STARTCHAR CNS3-2F4C
ENCODING 12614
SWIDTH 591 0
DWIDTH 24 0
BBX 24 24 0 -2
BITMAP
070600
070300
060302
067FFF
0C0E00
0C0C10
18180C
1830FE
387FC7
783002
780008
D81FFC
18180C
181F0C
1819EC
18186C
18183C
181FCC
18370C
18330C
18700C
1860FC
18C078
198030
ENDCHAR
STARTCHAR CNS3-2F56
ENCODING 12615
SWIDTH 591 0
DWIDTH 24 0
BBX 24 24 0 -2
BITMAP
0E0C60
0E3C60
0DF060
1D8060
198060
1980C2
3180FF
31FEF7
7199B6
719930
F19830
B19830
319830
319830
319870
319878
319878
339848
3398CC
33188C
331986
321907
341A03
300400
ENDCHAR
STARTCHAR CNS3-2F46
ENCODING 12616
SWIDTH 591 0
DWIDTH 24 0
BBX 24 24 0 -2
BITMAP
0701C0
0701C0
0601C6
0601FE
0C01C0
0C61C2
187FFF
186306
386310
787FF8
786300
D86380
1861FC
186000
18E460
18C770
18C660
18C660
18CE60
198C61
198C61
1B187F
1A303F
18E01E
ENDCHAR
STARTCHAR CNS1-5431
ENCODING 12617
SWIDTH 591 0
DWIDTH 24 0
BBX 24 24 0 -2
BITMAP
038000
03F018
077FF8
067000
067020
0C7FF0
1C7000
1C7000
3C7030
3C7FF0
7C7000
5C7004
9DFFFE
1C6600
1C6208
1C621C
1C6130
1C61E0
1C60C0
1C6060
1C6E38
1C7C1F
1C700E
186004
ENDCHAR
STARTCHAR CNS4-2B62
ENCODING 12618
SWIDTH 591 0
DWIDTH 24 0
BBX 24 24 0 -2
BITMAP
0CC000
0CC000
0CC000
1CC040
198667
19FE7F
333067
333067
723067
703067
F03067
B3FF67
303067
303067
303067
307067
307867
306C67
304667
30C37F
308366
318040
330000
360000
ENDCHAR
STARTCHAR CNS3-2F47
ENCODING 12619
SWIDTH 591 0
DWIDTH 24 0
BBX 24 24 0 -2
BITMAP
072018
071878
060FE0
0603E0
0C0E78
0C381C
18E80C
180E00
380C02
79FFFF
781800
D8181C
183FFC
18380C
187B8C
1878EC
18D80C
19983C
1B1BEC
181F0C
18330C
18607C
184038
188030
ENDCHAR
STARTCHAR CNS2-2D6B
ENCODING 12620
SWIDTH 591 0
DWIDTH 24 0
BBX 24 24 0 -2
BITMAP
038600
038300
070182
067FFF
066007
0CC006
1CD804
1C1800
3C1B46
3C3F7F
7C3366
5C7366
9C6766
1CF666
1C9E66
1C1E7E
1C0C6E
1C1C6C
1C1860
1C1861
1C3061
1C607F
1CC07F
1B803E
ENDCHAR
STARTCHAR CNS4-2B64
ENCODING 12621
SWIDTH 591 0
DWIDTH 24 0
BBX 24 24 0 -2
BITMAP
0700C0
071860
061C30
061818
0C180C
0C330E
1C6707
1CC607
3D8C20
7C0810
7C1018
DC7FFC
1C7C0C
1C2004
1C0180
1C00C0
1C1C40
1C5C04
1C5806
1CD80B
1DD81B
1D9FF1
1C0FF0
1807E0
ENDCHAR
STARTCHAR CNS1-5421
ENCODING 12622
SWIDTH 591 0
DWIDTH 24 0
BBX 24 24 0 -2
BITMAP
070600
070300
064302
06FFFF
0CC007
0D8006
1D0004
1C3FF0
3C3038
7C3038
7C3038
DC3038
1C3FF0
1C3000
1C3000
1C3FFC
1C301C
1C300C
1C300C
1C300C
1C300C
1C3FFC
1C301C
183008
ENDCHAR
STARTCHAR CNS2-2D7E
ENCODING 12623
SWIDTH 591 0
DWIDTH 24 0
BBX 24 24 0 -2
BITMAP
038EC0
038EC0
070EC0
066ED8
067FFC
0C6ECC
1C6ECC
1C6ECC
3C6ECC
3C6ECC
7C7FFC
5C6ECC
9C6ECC
1C6ECC
1C6ECC
1C6ECC
1DFFFF
1C1000
1C3830
1C3018
1C600C
1CC00E
1D8007
1B0003
ENDCHAR
STARTCHAR CNS3-2F53
ENCODING 12624
SWIDTH 591 0
DWIDTH 24 0
BBX 24 24 0 -2
BITMAP
0E0E00
0E0E0C
0C0FFE
1C1C0E
181A18
1BB130
1BA0E0
3381E0
33833F
738C0F
73B082
F3C1C0
B391CC
3399CC
338DC8
338FD0
3385C0
3383A0
338330
338318
33061C
300C0F
301807
30E000
ENDCHAR
STARTCHAR CNS2-2D6C
ENCODING 12625
SWIDTH 591 0
DWIDTH 24 0
BBX 24 24 0 -2
BITMAP
038380
038380
07230C
06331C
061B30
0C0B00
1C0740
1C0630
3C0C1C
3C180E
7C3006
5CC380
9C0380
1C0300
1C430E
1C339C
1C1BB0
1C1EC0
1C0640
1C0C60
1C1C3C
1C381F
1C700E
19C000
ENDCHAR
STARTCHAR CNS2-2D77
ENCODING 12626
SWIDTH 591 0
DWIDTH 24 0
BBX 24 24 0 -2
BITMAP
0E0040
0E8E67
0CFE7F
1CCE67
18CE67
18CE67
30CE67
30CE67
70FE7F
70CE67
F0CE67
B0CE67
30CE67
30CE67
30FE7F
30CE67
318E47
318EC7
318EC7
318EC7
330F87
337DBF
32190E
34020C
ENDCHAR
STARTCHAR CNS1-5438
ENCODING 12627
SWIDTH 591 0
DWIDTH 24 0
BBX 24 24 0 -2
BITMAP
0701C0
0701C0
06218E
06318C
0C119C
0C1998
1C19B0
1C19B0
3CFFFF
7CC007
7CC007
DCC467
1CCFF7
1CCE67
1CCE67
1CCE67
1CCE67
1CCFE7
1CCC67
1CC007
1CC007
1CC03F
1CC01E
18C00C
ENDCHAR
STARTCHAR CNS2-2D6F
ENCODING 12628
SWIDTH 591 0
DWIDTH 24 0
BBX 24 24 0 -2
BITMAP
039C38
039C38
071838
061838
06FFFE
0C1838
1C1838
1C1838
3C1FF8
3C1838
7C1838
5C1838
9C1FF8
1C1C38
1C1838
1C1838
1C1C3F
1CFFFF
1C1800
1C1818
1C300C
1C6006
1CC007
198003
ENDCHAR
STARTCHAR CNS2-2D78
ENCODING 12629
SWIDTH 591 0
DWIDTH 24 0
BBX 24 24 0 -2
BITMAP
038000
03A007
077FFF
0671C7
0671C7
0C71C7
1C77F7
1C71C7
3C71C7
3C71C7
7C71DF
5C7FFF
9C7007
1C7637
1C77FF
1C6637
1C6637
1C6637
1C47F7
1CC627
1CC007
1D803F
1D801E
1B000C
ENDCHAR
STARTCHAR CNS3-2F45
ENCODING 12630
SWIDTH 591 0
DWIDTH 24 0
BBX 24 24 0 -2
BITMAP
0E01C0
0E01C0
0C41C0
FFE1C0
0C01C0
0C01C0
FFC1C0
E1C1C0
E0C1C0
E0C1C0
FFC1C0
E0C1C0
E0C1C0
E1C1E0
FF8320
0C0320
0C4330
FFE630
0C0E18
0C0C0C
0C1C0E
0C380F
0C7007
0CC000
ENDCHAR
STARTCHAR CNS2-2D69
ENCODING 12631
SWIDTH 591 0
DWIDTH 24 0
BBX 24 24 0 -2
BITMAP
038300
038180
0701C2
067FFF
060000
0C0000
1C100C
1C1FFE
3C180E
3C180C
7C180C
5C180C
9C1FFC
1C11CC
1C01C0
1C01C0
1C1DD8
1C19CC
1C31C6
1C61C3
1CC1C3
1D8FC1
1C0780
180300
ENDCHAR
STARTCHAR CNS2-2D6D
ENCODING 12632
SWIDTH 591 0
DWIDTH 24 0
BBX 24 24 0 -2
BITMAP
0381C0
0381C0
070180
067FFE
060180
0C0180
1C1FFC
1C019C
3C018C
3C7FFF
7C019C
5C018C
9C1FFC
1C0188
1C1180
1C1980
1C198C
1C19FC
1C3980
1C3D80
1C7780
1C63FF
1CC1FF
1B807C
ENDCHAR
STARTCHAR CNS2-2D7A
ENCODING 12633
SWIDTH 591 0
DWIDTH 24 0
BBX 24 24 0 -2
BITMAP
038200
038300
074182
067FFF
06E007
0CC006
1C8004
1C0018
3C1FF8
3C0000
7C0000
5C0004
9C7FFE
1C0180
1C0180
1C1180
1C1998
1C318C
1C318E
1C6187
1C6183
1CC183
1D8180
180180
ENDCHAR
STARTCHAR CNS3-2F51
ENCODING 12634
SWIDTH 591 0
DWIDTH 24 0
BBX 24 24 0 -2
BITMAP
070008
07401C
067FFC
06630C
0C630C
0C630C
187FFC
18630C
38630C
78630C
787FFC
D86308
180300
180386
18FFFE
180780
180FC0
181F60
183B38
18731C
18E30F
19C306
1E0300
180300
ENDCHAR
STARTCHAR CNS2-2D6E
ENCODING 12635
SWIDTH 591 0
DWIDTH 24 0
BBX 24 24 0 -2
BITMAP
0381C0
0381C0
070188
061FFC
060180
0C0180
1C0182
1CFFFF
3C0C30
3C1830
7C1838
5C343F
9C671F
1C8600
1C2FF8
1C1C38
1C1C60
1C36C0
1CC3C0
1C03C0
1C07F8
1C0C3F
1C380E
19E004
ENDCHAR
STARTCHAR CNS3-2F43
ENCODING 12636
SWIDTH 591 0
DWIDTH 24 0
BBX 24 24 0 -2
BITMAP
0701C0
0701C0
060182
06FFFF
0C0180
0C0180
187FFE
18718E
38718C
78718C
787FFC
D8718C
18718C
18718C
187FFC
18238C
1807C0
180DE0
1819B8
18319C
18618F
18C186
1B0180
180180
ENDCHAR
STARTCHAR CNS2-2D72
ENCODING 12637
SWIDTH 591 0
DWIDTH 24 0
BBX 24 24 0 -2
BITMAP
038380
038380
070300
06FFFE
060380
0C430C
1C7FFC
1C630C
3C630C
3C7FFC
7C0300
5C030C
9CFFFE
1C030C
1C030C
1DFFFF
1C030C
1C030C
1CFFFC
1C030C
1C0300
1C1F00
1C0700
180600
ENDCHAR
STARTCHAR CNS2-2D7B
ENCODING 12638
SWIDTH 591 0
DWIDTH 24 0
BBX 24 24 0 -2
BITMAP
0380C0
0380C0
0704DC
067ECE
0600C6
0C00C0
1C00C0
1DFFFE
3C00C0
3C18C0
7C1860
5C1860
9CD860
1CD860
1CDF60
1CD860
1CD860
1CD831
1CD931
1CDF19
1CFC1F
1FE00F
1D800F
188007
ENDCHAR
STARTCHAR CNS2-3366
ENCODING 12639
SWIDTH 591 0
DWIDTH 24 0
BBX 24 24 0 -2
BITMAP
071C1C
071C1C
061818
067F7E
0C1818
0C1998
1C0180
1C0180
3C319C
7C3FFC
7C318C
DC318C
1C318C
1C318C
1C318C
1CFFFF
1C0300
1C0320
1C0618
1C0E0C
1C1C06
1C3807
1C7003
19C000
ENDCHAR
STARTCHAR CNS2-335A
ENCODING 12640
SWIDTH 591 0
DWIDTH 24 0
BBX 24 24 0 -2
BITMAP
0700F8
070FFC
067C04
060306
0C218C
0C38C8
1C1810
1C0100
3C018C
7C7FFE
7C718E
DC718C
1C718C
1C7FFC
1C718C
1C718C
1C718E
1CFFFF
1C700C
1C700C
1C700C
1C707C
1C703C
186018
ENDCHAR
STARTCHAR CNS3-343C
ENCODING 12641
SWIDTH 591 0
DWIDTH 24 0
BBX 24 24 0 -2
BITMAP
070030
071070
061860
060C60
0C0CC7
0CFFFF
1C0000
18CE0E
38FF0E
78C66C
78C66C
D8C66C
18FE6C
18C66C
18C66C
18C66C
18FE6C
18C66C
18C66C
18C60C
19860C
19BE3C
1B1E3C
1A0C18
ENDCHAR
STARTCHAR CNS2-335F
ENCODING 12642
SWIDTH 591 0
DWIDTH 24 0
BBX 24 24 0 -2
BITMAP
070078
0703FC
067FC0
060180
0C0182
0CFFFF
1C0180
1C0180
3C7FFE
7C718E
7C718C
DC718C
1C7FFC
1C718C
1C718C
1C7FFC
1C2180
1C0180
1C0184
1C7FFE
1C0180
1C0180
1C0187
18FFFF
ENDCHAR
STARTCHAR CNS2-3365
ENCODING 12643
SWIDTH 591 0
DWIDTH 24 0
BBX 24 24 0 -2
BITMAP
070380
070380
06030C
067FFE
0C0380
0C0300
1C3FF8
1C0700
3C0600
7CFFFE
7C0E40
DC0C20
1C1818
1C301C
1C7FFF
1CD83B
1F1838
1C1838
1C1FF8
1C1838
1C1838
1C1838
1C1FF0
181000
ENDCHAR
STARTCHAR CNS2-335C
ENCODING 12644
SWIDTH 591 0
DWIDTH 24 0
BBX 24 24 0 -2
BITMAP
0700F8
070FFC
063D80
060180
0C018C
0C7FFE
18718E
18718C
38718C
787FFC
78018C
D8C180
18E182
19FFFF
18C187
18C1A7
18C1B7
18C1FF
18FF9F
18DC0F
18C807
18C03F
18C01E
18C00C
ENDCHAR
STARTCHAR CNS1-5877
ENCODING 12645
SWIDTH 591 0
DWIDTH 24 0
BBX 24 24 0 -2
BITMAP
07181C
07181C
06181A
06FE7F
0C1818
0C1018
1C0300
1C0300
3C0300
7C0700
7C0607
DCFFFF
1C0C00
1C1800
1C180C
1C3FFE
1C7C0E
1C780C
1CD80C
1D980C
1C180C
1C1FFC
1C1C0C
181800
ENDCHAR
STARTCHAR CNS1-587C
ENCODING 12646
SWIDTH 591 0
DWIDTH 24 0
BBX 24 24 0 -2
BITMAP
070000
077038
067FFC
067318
0C7318
0C7318
187FF8
187318
387318
787318
787FF8
D86018
180002
19FFFF
18720C
18720E
18731C
1871B0
1871C0
1870E0
18767C
187C3F
18700E
183004
ENDCHAR
STARTCHAR CNS2-336A
ENCODING 12647
SWIDTH 591 0
DWIDTH 24 0
BBX 24 24 0 -2
BITMAP
074008
07601C
067FFC
06600C
0C604C
0C7FEC
18630C
18630C
38630C
786FEC
786FFC
D86B6C
186B6C
186B6C
18EB6C
18CFEC
18CB0C
18C30C
18C36C
1883B5
19BFFF
193C1F
1B1013
1A0003
ENDCHAR
STARTCHAR CNS3-3441
ENCODING 12648
SWIDTH 591 0
DWIDTH 24 0
BBX 24 24 0 -2
BITMAP
038000
03B038
073FF8
063038
063038
0C3FF8
1C3038
1C3038
3C3FF0
3C0000
7C0007
5CFFFF
9C3804
1C3FFE
1C766E
1C6EEC
1CCCCC
1C1DCC
1C398C
1C730C
1CC60C
1C0DFC
1C1878
187030
ENDCHAR
STARTCHAR CNS2-3354
ENCODING 12649
SWIDTH 591 0
DWIDTH 24 0
BBX 24 24 0 -2
BITMAP
060004
06400E
067FFF
066006
0C6006
0C7FFE
186004
186000
386002
787FFE
786300
D8620C
18640E
186C7E
187FC7
18CCC2
18C0C0
18C0C4
18DFFE
1880C0
1980C0
1B00C0
1A00C7
181FFF
ENDCHAR
STARTCHAR CNS2-3369
ENCODING 12650
SWIDTH 591 0
DWIDTH 24 0
BBX 24 24 0 -2
BITMAP
0381C0
0381C0
071990
061D88
061984
0C3196
1C61BB
1C41F3
3C81E1
3D0180
7C0308
5C0FFC
9C1C0C
1C780C
1DD80C
1F1FFC
1C180C
1C180C
1C1FFC
1C181C
1C180C
1C180C
1C1FFC
181008
ENDCHAR
STARTCHAR CNS3-343D
ENCODING 12651
SWIDTH 591 0
DWIDTH 24 0
BBX 24 24 0 -2
BITMAP
070600
070300
060304
067FFE
0C1038
0C1838
181C30
184C66
38FFFF
79C307
798304
D80300
187FFC
18639C
18630C
18630C
18630C
18630C
18630C
18631C
186378
184330
180300
180300
ENDCHAR
STARTCHAR CNS2-3360
ENCODING 12652
SWIDTH 591 0
DWIDTH 24 0
BBX 24 24 0 -2
BITMAP
070600
070600
060C08
067FFC
0C601C
0C600C
1C600C
1C7FFC
3C600C
7C600C
7C601C
DC7FF8
1C4000
1C0004
1CFFFE
1C0300
1C0300
1C0308
1C7FFC
1C0380
1C0300
1C0300
1C0387
19FFFF
ENDCHAR
STARTCHAR CNS2-3353
ENCODING 12653
SWIDTH 591 0
DWIDTH 24 0
BBX 24 24 0 -2
BITMAP
060004
07000E
06FFFE
060EC0
0C0EC0
0CFFFE
1CCECE
1CCECC
3CCECC
7CCECC
7CEECC
DCFFFC
1C0E20
1C0E30
1C0C32
1DFFFF
1C1830
1C1860
1C30E0
1C79C0
1C07E0
1C0F78
1C180E
19E007
ENDCHAR
STARTCHAR CNS2-335D
ENCODING 12654
SWIDTH 591 0
DWIDTH 24 0
BBX 24 24 0 -2
BITMAP
0C0870
0C3C70
0DFC60
1C7060
187060
187064
307266
33FF6C
7071E8
7071F0
F0F860
B0FC60
30FE70
31F470
317070
337078
3670C8
3C70C8
30718C
30718C
307306
307307
307603
306C00
ENDCHAR
STARTCHAR CNS2-3363
ENCODING 12655
SWIDTH 591 0
DWIDTH 24 0
BBX 24 24 0 -2
BITMAP
070600
070300
060304
067FFE
0C2038
0C3038
1C1830
1C1830
3C0C60
7C0C60
7C04C7
DCFFFF
1C0000
1C3018
1C3FFC
1C3018
1C3018
1C3018
1C3FF8
1C3018
1C3018
1C3018
1C3FF8
183018
ENDCHAR
STARTCHAR CNS3-3440
ENCODING 12656
SWIDTH 591 0
DWIDTH 24 0
BBX 24 24 0 -2
BITMAP
038004
03800E
073FFF
0601C4
0619C8
0C1DFE
1C19C0
1C19C0
3C3FC0
3C33FF
7C61FE
5CC000
9C1FFC
1C181C
1C1E0C
1C1BCC
1C186C
1C180C
1C31EC
1C378C
1C360C
1C627C
1C403C
188018
ENDCHAR
STARTCHAR CNS4-3047
ENCODING 12657
SWIDTH 591 0
DWIDTH 24 0
BBX 24 24 0 -2
BITMAP
070700
070700
060602
06FFFF
0C0C60
0C1830
1C3E1C
1C6E0F
3CCFF7
7F9832
7C3C60
DC67C0
1CC380
1C03C0
1C06EE
1C19FF
1CE306
1C0F0C
1C78D8
1C00E0
1C00C0
1C0300
1C0C00
18F000
ENDCHAR
STARTCHAR CNS2-3350
ENCODING 12658
SWIDTH 591 0
DWIDTH 24 0
BBX 24 24 0 -2
BITMAP
070000
070007
067FFF
060000
0C300C
0C3FFC
1C300C
1C300C
3C300C
7C3FFC
7C3008
DC0000
1C4004
1C7FFE
1C6186
1C6186
1C6186
1C7FFE
1C6186
1C6186
1C6186
1C7FFE
1C6006
186004
ENDCHAR
STARTCHAR CNS1-5926
ENCODING 12659
SWIDTH 591 0
DWIDTH 24 0
BBX 24 24 0 -2
BITMAP
070000
070006
06FFFF
060300
0C0600
0C0400
18C806
18FFFE
38CE66
78CE66
78CE66
D8CE66
18CFE6
18CE66
18CE66
18CE66
18CEE6
18CFE6
18CE66
18CE66
18CE66
18FFFE
18E006
18C004
ENDCHAR
STARTCHAR CNS2-334F
ENCODING 12660
SWIDTH 591 0
DWIDTH 24 0
BBX 24 24 0 -2
BITMAP
061800
061800
061AFF
06FF37
0C1837
0CFE37
1C1837
1C1867
3DFE67
7DF867
7CD8FE
DC198C
1C1308
1C0300
1C0380
1C0306
1CFFFF
1C0300
1C0610
1C0E0C
1C1C06
1C3807
1C7003
19C003
ENDCHAR
STARTCHAR CNS3-3443
ENCODING 12661
SWIDTH 591 0
DWIDTH 24 0
BBX 24 24 0 -2
BITMAP
070078
0741FC
067F00
0660E0
0C60E0
0C60C2
187FFF
1860C0
3860C0
7860C0
7864CC
D86FFE
186E0C
186E0C
186FFC
186E0C
18CE0C
18CE0C
18CFFC
18CE0C
198E0C
198FFC
190E0C
180C00
ENDCHAR
STARTCHAR 17-86
ENCODING 12662
SWIDTH 591 0
DWIDTH 24 0
BBX 24 24 0 -2
BITMAP
070044
07036E
06FF7F
066666
0C6664
0C666C
1C7E6C
1C6668
3C6678
7C6668
7C6664
DC7E66
1C6667
1C6663
1C6663
1C6E63
1C7E63
1DE67F
1CC66E
1C0664
1C0660
1C0660
1C0660
180640
ENDCHAR
STARTCHAR CNS3-3975
ENCODING 12663
SWIDTH 591 0
DWIDTH 24 0
BBX 24 24 0 -2
BITMAP
0389C0
039DC4
0771BE
066186
066186
0C6986
1C7DBE
1C6186
3C6186
3C7DBE
7C4184
5C0188
9C3FFC
1C081C
1C0818
1C0C38
1C0630
1C0770
1C03E0
1C01C0
1C03F0
1C0F7F
1C383F
19F00C
ENDCHAR
STARTCHAR CNS2-3A3B
ENCODING 12664
SWIDTH 591 0
DWIDTH 24 0
BBX 24 24 0 -2
BITMAP
070380
070380
06030C
06FFFE
0C0300
0C0310
183FF8
180300
380302
79FFFF
780E00
D81870
1839E0
180F00
180E10
1838F8
18FFCC
187B04
180320
183B38
18731C
18C30E
198306
180300
ENDCHAR
STARTCHAR CNS4-3634
ENCODING 12665
SWIDTH 591 0
DWIDTH 24 0
BBX 24 24 0 -2
BITMAP
070380
070380
060302
07FFFF
0CC643
0C6C37
1C381C
1C300C
3C6007
7CFFFF
7DB00C
DC300C
1C300C
1C3FFC
1C300C
1C300C
1C300C
1C3FFC
1C300C
1C300C
1C300C
1C3FFC
1C301C
183008
ENDCHAR
STARTCHAR CNS4-3633
ENCODING 12666
SWIDTH 591 0
DWIDTH 24 0
BBX 24 24 0 -2
BITMAP
060000
06C007
06FFFF
06C1C0
0CC1C0
0CC98E
1CCFFF
1CCC06
3CCC06
7CCFFE
7CCC06
DCCC06
1CCC06
1CCFFE
1CC864
1CC060
1CCE6C
1CCE66
1CCC63
1CD863
1DB063
1D27E0
1E03C0
180180
ENDCHAR
STARTCHAR CNS4-3636
ENCODING 12667
SWIDTH 591 0
DWIDTH 24 0
BBX 24 24 0 -2
BITMAP
070000
07300C
063FFE
06300C
0C300C
0C300C
1C3FFC
1C0000
3C200E
7C7FFF
7C7006
DC7006
1C7FFE
1C7006
1C7006
1C7FFE
1C7006
1C7006
1C7FFE
1C1800
1C381C
1C700E
1CC007
1B8003
ENDCHAR
STARTCHAR CNS2-3A3D
ENCODING 12668
SWIDTH 591 0
DWIDTH 24 0
BBX 24 24 0 -2
BITMAP
070380
070380
060304
06FFFE
0C0700
0C0210
183FF8
18301C
383018
783FF8
783018
D83018
183FF8
183018
183018
183FF8
183018
183018
18FFFF
180C20
181C30
18381C
18600E
198006
ENDCHAR
STARTCHAR CNS3-396F
ENCODING 12669
SWIDTH 591 0
DWIDTH 24 0
BBX 24 24 0 -2
BITMAP
038300
038180
07418E
067FFE
0661C0
0C61C8
1C6FFC
1C61DC
3C61CC
3C7FFF
7C61DC
5C61CC
9C6FFC
1C61C8
1C61C0
1C69D8
1CCFFC
1CCC0C
1CCC0C
1CCC0C
1D8C0C
1D8FFC
1D0C1C
180C08
ENDCHAR
STARTCHAR CNS4-3631
ENCODING 12670
SWIDTH 591 0
DWIDTH 24 0
BBX 24 24 0 -2
BITMAP
070300
070180
060186
06FFFF
0C0000
0C1018
1C1FFC
1C1818
3C1818
7C1FF8
7C0000
DCC006
1CFFFF
1CC007
1CC467
1CCFF7
1CCE67
1CCE67
1CCFE7
1CC407
1CC007
1CC07F
1CC01E
18C00C
ENDCHAR
STARTCHAR CNS2-3A41
ENCODING 12833
SWIDTH 591 0
DWIDTH 24 0
BBX 24 24 0 -2
BITMAP
070070
0703F8
06FF0C
06060E
0C630C
0C7118
182610
180E00
381870
7831E0
783380
D81E30
180C78
183FDC
187F0C
18330C
180300
180606
19FFFE
180C60
181838
18301C
18600E
198006
ENDCHAR
STARTCHAR CNS4-363C
ENCODING 12834
SWIDTH 591 0
DWIDTH 24 0
BBX 24 24 0 -2
BITMAP
07007C
0747FE
067E00
066006
0C7FFE
0C6006
1C6006
1C6006
3C7FFE
7C6000
7C6106
DC7FBF
1C6187
1C6187
1C6DB7
1C6D9F
1CC187
1CC38F
1CDDBF
1CD9E7
1C81A7
1D8FBF
1F070E
1A020C
ENDCHAR
STARTCHAR CNS2-3A37
ENCODING 12835
SWIDTH 591 0
DWIDTH 24 0
BBX 24 24 0 -2
BITMAP
070038
073038
061870
061860
0C0CCC
0CFFFC
1819C0
181DCC
387FFC
7819CC
7819CC
D9FFFF
1819CC
1819CC
1819CC
18FFFC
1819C0
1839E0
1879F0
1879F8
18D9DE
1999CE
1919C4
181980
ENDCHAR
STARTCHAR CNS1-5E2F
ENCODING 12836
SWIDTH 591 0
DWIDTH 24 0
BBX 24 24 0 -2
BITMAP
070300
070380
060380
060640
0C0C60
0C1C30
1C3FFC
1C700F
3CE007
7DFFFA
7D3018
DC3018
1C3FF8
1C3018
1C3018
1C3FF8
1C7000
1C700C
1C7FFC
1C580C
1CD80C
1CD80C
1D9FFC
181808
ENDCHAR
STARTCHAR CNS2-3A35
ENCODING 12837
SWIDTH 591 0
DWIDTH 24 0
BBX 24 24 0 -2
BITMAP
070600
070300
064184
067FFE
0CE00E
0CD80C
189C68
181830
383318
782398
784300
D80680
180C40
181830
18301C
187FFF
18F03E
1BB038
183038
183038
183038
183FF8
183030
183000
ENDCHAR
STARTCHAR CNS2-3A40
ENCODING 12838
SWIDTH 591 0
DWIDTH 24 0
BBX 24 24 0 -2
BITMAP
070700
070700
060E18
060FFC
0C1C38
0C3770
1863E0
1819C0
38F380
78CE00
781800
D8780C
19FFFC
183180
186180
18C186
19FFFF
180180
18718C
18718C
18718C
18718C
187FFC
18000C
ENDCHAR
STARTCHAR CNS2-3A38
ENCODING 12839
SWIDTH 591 0
DWIDTH 24 0
BBX 24 24 0 -2
BITMAP
071038
071838
060C70
060C60
0C0CCC
0C7FFC
180300
180308
383FFC
780300
780300
D80306
18FFFE
181800
181800
183808
183FFC
187180
186180
18C180
188180
190186
18FFFF
180000
ENDCHAR
STARTCHAR CNS4-3639
ENCODING 12840
SWIDTH 591 0
DWIDTH 24 0
BBX 24 24 0 -2
BITMAP
0700C0
070860
061C30
06181C
0C338F
0C6307
1CC632
1D8C18
3C187C
7C7FCC
7C3004
DC1402
1CFE7F
1C0707
1C6637
1C763F
1C2617
1C0E0F
1CFEFF
1DC6E7
1CC6C7
1C3E3F
1C0E0E
180C0C
ENDCHAR
STARTCHAR CNS4-3630
ENCODING 12841
SWIDTH 591 0
DWIDTH 24 0
BBX 24 24 0 -2
BITMAP
0C8007
0CC007
0C6006
1C6006
182C06
1BFDFF
300006
300006
71F806
700086
F00046
B01866
31F866
300026
300806
33FC06
338C06
338C06
338C06
338C06
338C06
33FC7E
33083C
300008
ENDCHAR
STARTCHAR CNS4-363A
ENCODING 12842
SWIDTH 591 0
DWIDTH 24 0
BBX 24 24 0 -2
BITMAP
0E0080
0E0040
0D8060
1CC060
18C026
1FFBFE
301000
30180E
721A0E
721B0C
F21B0C
B3310C
33310C
33318C
31A18C
31E1DC
3141D8
30F9D8
37C0F8
3F80B0
320030
300022
300FFF
300000
ENDCHAR
STARTCHAR CNS1-5E29
ENCODING 12843
SWIDTH 591 0
DWIDTH 24 0
BBX 24 24 0 -2
BITMAP
038600
038300
074304
06FFFE
06C006
0C8004
1C0000
1C7FF8
3C0600
3C0C00
7C1A0C
5C731C
9DC7B0
1C0CE0
1C18C0
1C71E0
1CC3E0
1D0EF0
1C38DC
1C60CF
1D81C7
1C1F82
1C0F00
180200
ENDCHAR
STARTCHAR CNS3-4039
ENCODING 12844
SWIDTH 591 0
DWIDTH 24 0
BBX 24 24 0 -2
BITMAP
038E00
038E40
070C60
061FF0
061E30
0C2C20
1C7030
1C6464
3CCE4E
3CFAFB
7CC3E0
5C4380
9C06C0
1C0C60
1C1BBC
1C671F
1CCE47
1D18E0
1C2380
1C0E3C
1C3870
1C01C0
1C0700
183C00
ENDCHAR
STARTCHAR CNS1-6334
ENCODING 12845
SWIDTH 591 0
DWIDTH 24 0
BBX 24 24 0 -2
BITMAP
070600
070600
06CC08
06FFFC
0CE39C
0CDBEC
18CF7C
18C66C
38CFCC
78D98C
78C3CC
D8DEEC
18FFFC
18C01C
180108
181980
1818C0
1898C4
189806
199813
199C33
1B9FF3
190FF0
1803E0
ENDCHAR
STARTCHAR CNS2-4162
ENCODING 12846
SWIDTH 591 0
DWIDTH 24 0
BBX 24 24 0 -2
BITMAP
0701C0
0741C4
067187
066186
0C6186
0CFFFE
1C4004
1C0000
3CFE7F
7CCE67
7CCE67
DCCE67
1CFE7F
1CEE77
1CCE67
1CCE67
1CEE77
1CFE7F
1CCE67
1CCE67
1C8E47
1DBEDF
1F1D8E
1E1B0C
ENDCHAR
STARTCHAR CNS3-403A
ENCODING 12847
SWIDTH 591 0
DWIDTH 24 0
BBX 24 24 0 -2
BITMAP
038600
038300
07031C
067FFC
061030
0C1830
1C0C60
1C0C47
3CFFFF
3C0008
7C7FFC
5C7018
9C7018
1C7FF8
1C7018
1C7018
1C7FF8
1C0EC0
1C0CC0
1C0CC1
1C18C1
1C30FF
1C607F
19803E
ENDCHAR
STARTCHAR CNS2-4164
ENCODING 12848
SWIDTH 591 0
DWIDTH 24 0
BBX 24 24 0 -2
BITMAP
039800
039800
071B0E
063FFF
0633CC
0C7B48
1C5F70
1C8E30
3C3E30
3CEC18
6CD80E
4C3027
8C6FF3
0CC000
0C8004
0C7FFE
0C0180
0C1180
0C3998
0C318C
0C6186
0C4187
0C8182
0C0180
ENDCHAR
STARTCHAR CNS2-4159
ENCODING 12849
SWIDTH 591 0
DWIDTH 24 0
BBX 24 24 0 -2
BITMAP
038300
038180
07018C
067FFE
060838
0C0C30
1C0622
1CFFFF
3C0000
3C1FF8
6C181C
4C1818
8C1FF8
0C1818
0C1818
0C1FF8
0C1198
0C0182
0CFFFF
0C0180
0C0180
0C0180
0C0180
0C0180
ENDCHAR
STARTCHAR CNS4-3C29
ENCODING 12850
SWIDTH 591 0
DWIDTH 24 0
BBX 24 24 0 -2
BITMAP
07324C
07324C
06324C
06FFFF
0C36DC
0C324C
1C324C
1C62CF
3CC3C7
7CC002
7C7FFF
DCC187
1CC180
1C218C
1C7FFE
1C718C
1C718C
1C718C
1C718C
1C718C
1C71FC
1C618C
1C0180
180180
ENDCHAR
STARTCHAR CNS3-403D
ENCODING 12851
SWIDTH 591 0
DWIDTH 24 0
BBX 24 24 0 -2
BITMAP
070C60
070C60
06FC7F
060C60
0C0C60
0C0800
183000
183007
387FFF
786007
78E067
D8BFF7
193377
183367
183FE7
183367
183367
183FE7
183367
183366
18326E
18207C
18003C
180018
ENDCHAR
STARTCHAR CNS2-415D
ENCODING 12852
SWIDTH 591 0
DWIDTH 24 0
BBX 24 24 0 -2
BITMAP
030000
030007
077FFF
060660
060660
0C7FFE
1C6666
1C6666
3C6666
3C6666
6C7FFE
4C4000
8C0008
0C3FFC
0C0000
0C0002
0CFFFF
0C0180
0C1980
0C398C
0C3186
0C6187
0CC182
0C0180
ENDCHAR
STARTCHAR CNS1-6335
ENCODING 12853
SWIDTH 591 0
DWIDTH 24 0
BBX 24 24 0 -2
BITMAP
030606
03FFFE
072646
063666
060606
0C1E36
1CF6E6
1C4646
3C3E7E
3C1D9C
7C0B88
5C03C0
9C0660
1C0CF8
1C19DF
1C630F
1CCE66
1D38E0
1C0380
1C0E3C
1C3878
1C01E0
1C0F00
18F800
ENDCHAR
STARTCHAR CNS3-4036
ENCODING 12854
SWIDTH 591 0
DWIDTH 24 0
BBX 24 24 0 -2
BITMAP
0670E0
0670E0
0C70C0
0C70C0
0DFEC0
1C70C2
1870FF
39FD86
39FD86
79FDC6
79FDCC
D9FE4C
99FC6C
19FC6C
19FC38
19FC38
19FC38
187038
187078
19FE6C
1870CE
187187
187307
186600
ENDCHAR
STARTCHAR CNS1-677C
ENCODING 12855
SWIDTH 591 0
DWIDTH 24 0
BBX 24 24 0 -2
BITMAP
074646
077F7E
066666
066666
0C7E7E
0C6064
186060
187E7E
383F3F
780800
780E70
D80C70
180C66
18FFFE
180C60
180C60
180C62
18FFFF
180000
181020
18381C
18700E
18E006
198003
ENDCHAR
STARTCHAR CNS3-456B
ENCODING 12856
SWIDTH 591 0
DWIDTH 24 0
BBX 24 24 0 -2
BITMAP
039018
039818
070C30
060C24
06FFFE
0C0300
1C0308
1C3FFC
3C0300
3C0304
7CFFFE
5C2010
9C101C
1C1830
1DFFFF
1C0000
1C0000
1C7FFC
1C700C
1C700C
1C700C
1C700C
1C7FFC
186008
ENDCHAR
STARTCHAR CNS2-4921
ENCODING 12857
SWIDTH 591 0
DWIDTH 24 0
BBX 24 24 0 -2
BITMAP
0701C0
0701C0
06618C
067FFE
0C718C
0C718C
1C7FFC
1C0180
3DFFFF
7C0000
7C200C
DC7FFE
1C700C
1C7FFC
1C700C
1C7FFC
1C700C
1C700C
1C3FFC
1C1800
1C3C1C
1C700E
1CC007
1B8003
ENDCHAR
STARTCHAR CNS2-4877
ENCODING 12858
SWIDTH 591 0
DWIDTH 24 0
BBX 24 24 0 -2
BITMAP
070030
070860
060C46
06FFFE
0C0640
0C464C
1C7FFE
1C644C
3C6C7C
7C687C
7C700C
DC6FEC
1C600C
1C600C
1C7FFC
1C0038
1DFFFF
1C1038
1C1C38
1C0C38
1C0038
1C03F8
1C00F0
180060
ENDCHAR
STARTCHAR CNS3-456E
ENCODING 12859
SWIDTH 591 0
DWIDTH 24 0
BBX 24 24 0 -2
BITMAP
0C3070
0C3070
0F3360
1DB360
19B660
18F662
30FC7F
30F0CC
7130CC
73FFCC
F3834C
B3836C
33FB6C
33DB3C
33DB3C
33DB38
33DB38
33FB38
339B38
33833C
33836E
339F67
338EC7
330D80
ENDCHAR
STARTCHAR CNS3-456D
ENCODING 12860
SWIDTH 591 0
DWIDTH 24 0
BBX 24 24 0 -2
BITMAP
070000
070E88
067F9C
0606F0
0C4660
0C3E46
183C6C
181838
381830
783FFC
78700F
D8E037
19DFFA
191830
181830
181830
181830
181FE0
180000
181038
181830
180C60
180C46
18FFFE
ENDCHAR
STARTCHAR CNS2-487D
ENCODING 12861
SWIDTH 591 0
DWIDTH 24 0
BBX 24 24 0 -2
BITMAP
0E8006
0EFFFE
0CC006
1CC006
18FFFE
18C000
30CFF8
30C060
70C0C0
70DFFE
F0C0C0
B0C0C0
30C7C0
30C080
31FF7E
318706
318E0C
318C18
339FFF
33FC18
336C18
320C18
367CF8
301830
ENDCHAR
STARTCHAR CNS4-4235
ENCODING 12862
SWIDTH 591 0
DWIDTH 24 0
BBX 24 24 0 -2
BITMAP
070380
073388
06330C
066318
0C4330
0CDF66
1CFB7E
1C331C
3C7B1A
7CDF3F
7DFDF1
DDC1AC
1CC186
1C01C3
1CFFFF
1CC0C6
1CE066
1CF86C
1CD878
1CC839
1C807D
1D818F
1F0307
1A1C03
ENDCHAR
STARTCHAR CNS3-4575
ENCODING 12863
SWIDTH 591 0
DWIDTH 24 0
BBX 24 24 0 -2
BITMAP
030078
0303FC
07FF08
06021C
062318
0C3130
1C1120
1C8006
3CFFFF
3D8007
7DA010
5C7038
9C7038
1C7DFE
1C6FB8
1CEFB8
1CBDB8
1C1DB8
1C19FE
1C19B8
1C3038
1C6038
1CC038
1B8030
ENDCHAR
STARTCHAR CNS2-487E
ENCODING 12864
SWIDTH 591 0
DWIDTH 24 0
BBX 24 24 0 -2
BITMAP
060000
06CECC
06FEFE
06CECC
0CEECC
0CFCFC
1CC000
1C0018
3C7FFC
7C7318
7C7318
DC7FF8
1C7318
1C7318
1C7318
1C7FF8
1C0300
1C0302
1DFFFF
1C0300
1C0300
1C0300
1C0300
180300
ENDCHAR
STARTCHAR CNS2-4876
ENCODING 12865
SWIDTH 591 0
DWIDTH 24 0
BBX 24 24 0 -2
BITMAP
0C0060
0C6070
0C706C
1FFE66
180066
180060
33FDFF
338E60
738E60
738E60
F38E60
B3FE7C
317478
307078
317058
31FCD8
3176D8
3376D8
327398
367199
347199
33F31F
30E20F
30C406
ENDCHAR
STARTCHAR CNS2-4879
ENCODING 12866
SWIDTH 591 0
DWIDTH 24 0
BBX 24 24 0 -2
BITMAP
070380
070380
06030C
06FFFC
0C3310
0C3338
1DFFFF
1C3038
3C3038
7C2010
7C7FFC
DC600C
1C600C
1C7FFC
1C600C
1C600C
1C7FFC
1C600C
1C600C
1C7FFC
1C3830
1C701C
1CC00E
1B8007
ENDCHAR
STARTCHAR CNS1-677D
ENCODING 12867
SWIDTH 591 0
DWIDTH 24 0
BBX 24 24 0 -2
BITMAP
070000
07CE47
06FF7F
06C667
0CE667
0CFE7F
18C667
18E667
38FE7F
78C007
78C007
D8CFF7
18CE77
18CE67
18CFE7
18CE67
18CFE7
18CE67
18CC67
18C867
18D9E7
18D047
18C01E
18C006
ENDCHAR
STARTCHAR CNS2-4924
ENCODING 12868
SWIDTH 591 0
DWIDTH 24 0
BBX 24 24 0 -2
BITMAP
0701C8
0721CC
063998
0619B0
0C0DB6
0C7FFE
1C07E0
1C0D98
3C198E
7C3187
7CC182
DCA18C
1C700C
1C76DC
1C7EFE
1CC6CC
1CE6CC
1D3ECC
1E1CFF
1C18DC
1C300C
1C600C
1CC00C
1B8008
ENDCHAR
STARTCHAR CNS1-677B
ENCODING 12869
SWIDTH 591 0
DWIDTH 24 0
BBX 24 24 0 -2
BITMAP
06007C
06C7FC
06FF00
06FFFE
0CE006
0CC006
18C006
18FFFE
38C406
78CEC0
78CE64
D8CFFE
18CC60
18DC60
18DC6C
18FFFE
18EC60
18CC64
198FFE
198CE0
198C60
1B0C66
1A0FFF
180C00
ENDCHAR
STARTCHAR CNS2-4F54
ENCODING 12870
SWIDTH 591 0
DWIDTH 24 0
BBX 24 24 0 -2
BITMAP
034004
03600E
077FFF
066666
066666
0C6666
1C7E7E
1C0660
3C0664
3C7E7E
6C6666
4C6666
8C6666
0C7E7E
0C6666
0C6666
0C6666
0C7E7E
0C4640
0C0601
0C0601
0C07FF
0C03FF
0C01FE
ENDCHAR
STARTCHAR CNS4-4879
ENCODING 12871
SWIDTH 591 0
DWIDTH 24 0
BBX 24 24 0 -2
BITMAP
070018
073FFC
06300C
06300C
0C301C
0C3FF8
1C0000
1CC647
3CFF7F
7CC667
7CC667
DCFE7F
1CC542
1C01C0
1C0182
1CFFFF
1C0180
1C2180
1C3988
1C7184
1C6186
1CC183
1D8181
180180
ENDCHAR
STARTCHAR CNS2-4F55
ENCODING 12872
SWIDTH 591 0
DWIDTH 24 0
BBX 24 24 0 -2
BITMAP
070078
0703FC
067F08
06030C
0C1198
0C5992
1C7FFF
1CC907
3DAD86
7D2CCC
7C6C26
DCEFF6
1CC7F0
1C0C00
1C0C10
1C3FF8
1C1C38
1C3C70
1C26E0
1C43C0
1C83F0
1C0F7F
1C381E
19E004
ENDCHAR
STARTCHAR CNS2-4F4F
ENCODING 12873
SWIDTH 591 0
DWIDTH 24 0
BBX 24 24 0 -2
BITMAP
070600
070300
06010E
06FFFE
0C0000
0C7FFC
1C700C
1C764C
3C77EC
7C764C
7C77CC
DC704C
1C7FFC
1C0000
1C1010
1C1FF8
1C1838
1C1FF8
1C1838
1C1838
1C1FF0
1C1000
1C0007
18FFFF
ENDCHAR
STARTCHAR CNS2-4F52
ENCODING 12874
SWIDTH 591 0
DWIDTH 24 0
BBX 24 24 0 -2
BITMAP
0CCC60
0CCC60
0FCF60
1CCC60
18C8C0
18C0C2
30C0FF
30FD8C
718F8C
730F4C
F30E4C
B5FE4C
31BE4C
31BE4C
31BE78
31FE78
310E30
300E30
300E78
300E6C
300CCE
30FD87
303B03
303601
ENDCHAR
STARTCHAR CNS2-4F53
ENCODING 12875
SWIDTH 591 0
DWIDTH 24 0
BBX 24 24 0 -2
BITMAP
070000
07400C
067FFE
06664C
0C664C
0C664C
1C7FFC
1C0000
3DFFFF
7C0000
7C3018
DC3FFC
1C3018
1C3018
1C3FF8
1C0C80
1C188E
1C3858
1C7860
1CD830
1D9B9C
1E1E0F
1C1C07
180800
ENDCHAR
STARTCHAR CNS1-6C26
ENCODING 12876
SWIDTH 591 0
DWIDTH 24 0
BBX 24 24 0 -2
BITMAP
060600
060600
0E0F00
0C0CC0
0C1860
183030
187FDC
38C00F
398007
7BFFFA
D8F258
98DAD8
18CE98
18CE98
18FFF8
184020
187FF0
186030
186030
187FF0
186030
186030
187FF0
186030
ENDCHAR
STARTCHAR CNS2-4F56
ENCODING 12877
SWIDTH 591 0
DWIDTH 24 0
BBX 24 24 0 -2
BITMAP
071800
071860
063FF0
0660F0
0C40C2
0CFFFF
1C6638
1C6638
3C6C3E
7C699E
7C7080
DC7FFE
1C6000
1C6008
1C6FF8
1C6008
1CCFFC
1CC000
1CCFFC
1CCC1C
1D8C0C
1D0FFC
1E0C1C
180C08
ENDCHAR
STARTCHAR CNS2-4F57
ENCODING 12878
SWIDTH 591 0
DWIDTH 24 0
BBX 24 24 0 -2
BITMAP
073070
073070
066060
06FE60
0CC760
0CC662
1CFE7F
1CC6CC
3CC6CC
7CFECC
7C304C
DC186C
1CFF6C
1C703C
1C7038
1C7E38
1C6738
1C6638
1C4678
1CC66C
1CBECE
1D8D87
1F0B07
1E0600
ENDCHAR
STARTCHAR CNS3-4B2C
ENCODING 12879
SWIDTH 591 0
DWIDTH 24 0
BBX 24 24 0 -2
BITMAP
07624C
07636C
066EEC
0673BC
0C7BCC
0C66EC
186B6C
1861AC
387FFC
780C60
781870
D8303F
186E1F
18CE00
180C30
184FF8
187870
183CE0
1867C0
18C7C0
1807F0
181C7F
18701F
1BC004
ENDCHAR
STARTCHAR CNS3-4B27
ENCODING 12880
SWIDTH 591 0
DWIDTH 24 0
BBX 24 24 0 -2
BITMAP
0730C0
0730C0
0630CC
07FECC
0C30C4
0C30C2
1BFFFF
1830C0
3830C0
78FEC0
7830CE
D8B4EE
18FE6C
18B66C
18FE6C
18B678
18B678
18FC70
183278
19FF79
1830DD
18318F
183307
183403
ENDCHAR
STARTCHAR 18-49
ENCODING 12881
SWIDTH 591 0
DWIDTH 24 0
BBX 24 24 0 -2
BITMAP
030000
030007
07FFFF
060660
060660
0C7FFE
1C6666
1C6666
3C6666
3C6666
7C7FFE
5C7038
9C7038
1C7DFE
1C6FB8
1CEFB8
1CBDB8
1C1DB8
1C19FE
1C19B8
1C3038
1C6038
1CC038
1B8030
ENDCHAR
STARTCHAR CNS1-7033
ENCODING 12882
SWIDTH 591 0
DWIDTH 24 0
BBX 24 24 0 -2
BITMAP
038300
038180
074186
067FFF
06C006
0CDFF8
1C0180
1C1D88
3C199C
3C31F0
6C61C0
4C4718
8C1FFC
0C7818
0CDFF8
0C1818
0C1818
0C1FF8
0C1818
0C1FF8
0C0C30
0C1C1C
0C300E
0CC006
ENDCHAR
STARTCHAR CNS2-5641
ENCODING 12883
SWIDTH 591 0
DWIDTH 24 0
BBX 24 24 0 -2
BITMAP
0D8000
0D800C
0D8DFE
1DFC1C
198098
19C0F0
31FC70
30FE37
7081FF
70C066
F18064
B1FC60
337360
327360
307366
37FF7E
306360
306360
30F360
30DB60
319FE0
3106FF
320C7F
30181C
ENDCHAR
STARTCHAR CNS4-4F5A
ENCODING 12884
SWIDTH 591 0
DWIDTH 24 0
BBX 24 24 0 -2
BITMAP
0E0060
0E0064
0C0FFE
1D8E66
18CE66
18CFFE
304464
3000E3
70CFFF
77E004
F0C7FE
B0C60E
3187FC
33F600
33F606
3077FF
306606
30E606
30C7FE
318600
33E000
373FFF
300FFF
3001FC
ENDCHAR
STARTCHAR CNS3-5035
ENCODING 12885
SWIDTH 591 0
DWIDTH 24 0
BBX 24 24 0 -2
BITMAP
073800
073800
063000
067FFE
0C76D8
0CD248
189248
181248
38FFFE
781248
781248
D81248
181248
18FFFF
18700C
18720C
187EFE
1866CC
18E6CC
189CDD
181CFF
18380C
18700C
19C008
ENDCHAR
STARTCHAR CNS2-563F
ENCODING 12886
SWIDTH 591 0
DWIDTH 24 0
BBX 24 24 0 -2
BITMAP
070600
070300
064106
06FFFF
0DC306
0DAD84
1C2C90
1C6C34
3CEFF6
7CC7F3
7C0000
DC7FFC
1C76DC
1C76D8
1C76DA
1DFFFF
1C0000
1CFFFE
1C0180
1C0180
1C0180
1C0F80
1C0700
180200
ENDCHAR
STARTCHAR CNS3-5030
ENCODING 12887
SWIDTH 591 0
DWIDTH 24 0
BBX 24 24 0 -2
BITMAP
061838
071B3A
06DB3E
065EBC
0C1CB8
0C1C7C
183266
186343
38C080
788102
787FFF
D8C107
18C1C0
180180
180186
18FFFE
180180
181DA0
181998
18398C
18318E
186187
18C182
180180
ENDCHAR
STARTCHAR CNS3-5034
ENCODING 12888
SWIDTH 591 0
DWIDTH 24 0
BBX 24 24 0 -2
BITMAP
0E0000
0E0007
0CFFFF
1C7318
18630C
18C306
318303
30FFFE
70C306
70CFB6
F0DFF6
B0DB66
30DFF6
30F7D6
30C386
30C306
30FFF6
30DF76
30DF76
30DFF6
30E386
30C33E
30C31E
30800C
ENDCHAR
STARTCHAR CNS4-5565
ENCODING 12889
SWIDTH 591 0
DWIDTH 24 0
BBX 24 24 0 -2
BITMAP
070300
070180
06C0C2
06FFFF
0CC71C
0CC61A
1CDFFE
1CC618
3CC7F8
7CC000
7CFFFF
DCC000
1CCFFE
1CCCCE
1CCCCC
1CCFFC
1CCCCC
1CCCCC
1CCFFC
1C840C
1D8718
1F0C0E
1E1807
18E003
ENDCHAR
STARTCHAR CNS3-5441
ENCODING 12890
SWIDTH 591 0
DWIDTH 24 0
BBX 24 24 0 -2
BITMAP
073838
073838
06343A
06FE7E
0C3038
0C323A
19FFFF
18683C
386C66
78C6C3
798099
D83FFC
98301C
183018
183FF8
183018
183FF8
183018
183FF8
183418
180E30
181C18
18300C
18C004
ENDCHAR
STARTCHAR CNS3-5440
ENCODING 12891
SWIDTH 591 0
DWIDTH 24 0
BBX 24 24 0 -2
BITMAP
061E1C
06F8F8
0EC0C2
0EFEFF
0CECDC
1CCCCC
1CCCCC
38CD8C
398D8C
790908
787FF8
D87018
187018
187FF8
187018
187018
187FF8
187018
187018
183FF8
181810
18381C
18600E
19C006
ENDCHAR
STARTCHAR CNS4-5569
ENCODING 12892
SWIDTH 591 0
DWIDTH 24 0
BBX 24 24 0 -2
BITMAP
0E6004
0E610E
0C69FF
1FFD86
186186
186186
31F9FE
306186
706586
77FD86
F001FE
B3FD86
339986
339986
33F9FE
3398D8
3398D8
33F8D8
3398D8
339999
339999
33391F
323A0F
341406
ENDCHAR
STARTCHAR CNS2-6144
ENCODING 12893
SWIDTH 591 0
DWIDTH 24 0
BBX 24 24 0 -2
BITMAP
0CC004
0C608E
0C65FF
1FFFC6
180DC6
198DC6
30C9FE
30D9C6
7051C6
73FFC6
F071FE
B071C6
33FFC6
3071C6
3071FE
30F86C
30FC6C
31F66C
3176EC
3370CD
3670CD
34718F
30730F
306606
ENDCHAR
STARTCHAR CNS3-5752
ENCODING 12894
SWIDTH 591 0
DWIDTH 24 0
BBX 24 24 0 -2
BITMAP
038300
03B338
071B30
061B20
067FFC
0C0300
1C0604
1CFFFE
3C0C20
3C1818
7C3FFF
5CF987
9F9FF2
1C1980
1C1990
1C1FF0
1C1984
1C1FFE
1C1006
1C0336
1C49B6
1C4CBE
1CC03C
180018
ENDCHAR
STARTCHAR CNS2-6143
ENCODING 12895
SWIDTH 591 0
DWIDTH 24 0
BBX 24 24 0 -2
BITMAP
0EC0E0
0E60E0
0C34C2
1DFEFF
1804C0
198EFF
30CC87
30C807
73FF87
7000FE
F00EC0
B1FEC2
31CEFE
31FEC0
31BEC2
318EFE
319EC0
31FEC2
31EEFE
318EC1
330EC1
337EFF
321C7F
34183E
ENDCHAR
STARTCHAR CNS1-782B
ENCODING 12896
SWIDTH 591 0
DWIDTH 24 0
BBX 24 24 0 -2
BITMAP
071840
071CE0
063FE0
0660CC
0CFFFE
0CF00E
1C7FFC
1C70E0
3C7465
7C7E7F
7C7E63
DC787F
1C3800
1C1860
1C3FE0
1C60C4
1CFFFE
1CF18E
1C7FFC
1C27E8
1C066D
1C0C6F
1C307F
19C03F
ENDCHAR
STARTCHAR CNS2-6537
ENCODING 12897
SWIDTH 591 0
DWIDTH 24 0
BBX 24 24 0 -2
BITMAP
038300
038180
070186
06FFFF
060000
0C3F7E
1C376E
1C366C
3C3E3C
3C0E30
6C0E30
4C7FFE
8C0E30
0C0E34
0C3FFC
0C0E30
0CFFFF
0C0C8E
0C1C5E
0C3870
0C78B8
0CDF9F
0C1E06
0C0800
ENDCHAR
STARTCHAR CNS2-6538
ENCODING 12898
SWIDTH 591 0
DWIDTH 24 0
BBX 24 24 0 -2
BITMAP
0E0C00
0E0C00
0C1C0C
1C1FFE
181E18
1A3338
3363B0
3301E0
7303F0
730F3F
F31C1E
B3FFFC
333DBC
3335EC
333FFC
332188
330184
333FFC
320180
30FFFF
302444
306673
30C333
30C001
ENDCHAR
STARTCHAR CNS1-7A63
ENCODING 12899
SWIDTH 591 0
DWIDTH 24 0
BBX 24 24 0 -2
BITMAP
060004
06C00E
06FFFF
06CE66
0CCE66
0CCE66
1CFFFE
1C20C0
3C70C0
7C68D0
7CCDD8
DD9DFF
1DFBD8
1C33D8
1C79DA
1CCDFE
1DBDD8
1FE7D8
1D89FE
1C0DD8
1CA7D8
1DB1D8
1F01FF
180180
ENDCHAR
STARTCHAR CNS2-6B4F
ENCODING 12900
SWIDTH 591 0
DWIDTH 24 0
BBX 24 24 0 -2
BITMAP
071838
0758F8
0678FA
06FEFE
0CD9B8
0C983A
1CFFFF
1C6C7C
3C6F6D
7C4EEF
7CCCCF
DD8006
1D3FFC
1C300C
1C3FFC
1C300C
1C301C
1C3FFC
1C300C
1C3FFC
1C0800
1C1C18
1C300E
18C007
ENDCHAR
STARTCHAR CNS4-213D
ENCODING 12901
SWIDTH 591 0
DWIDTH 24 0
BBX 24 24 0 -2
BITMAP
001800
001800
001800
001808
00381C
7FFFFC
301800
301800
301800
301800
303000
3FFFFC
3FFFFE
007E00
006E00
00CE00
00CE00
018E00
030E01
060E01
0C0E03
180FFF
3007FF
E003FE
ENDCHAR
STARTCHAR CNS3-2278
ENCODING 12902
SWIDTH 591 0
DWIDTH 24 0
BBX 24 24 0 -2
BITMAP
008600
00E300
01C180
0380E0
070070
0E3838
18701F
30600F
E0C186
0180C0
030060
060030
1FFFF8
1FC318
0CC300
00C300
00C300
01C300
018301
038301
070303
0E03FF
1803FF
6001FE
ENDCHAR
STARTCHAR CNS4-233B
ENCODING 12903
SWIDTH 591 0
DWIDTH 24 0
BBX 24 24 0 -2
BITMAP
0000FC
100FFE
1FFE00
180E00
180E00
180E00
180E00
180E0C
180FFC
180E00
180E00
180E02
1BFFFF
184080
3870E0
3060E0
3060C0
3060C0
30C0C0
20C0C1
6180C1
4300FF
C6007F
9C003E
ENDCHAR
STARTCHAR CNS4-253F
ENCODING 12904
SWIDTH 591 0
DWIDTH 24 0
BBX 24 24 0 -2
BITMAP
070070
070070
060060
066066
FFEFFE
E60E60
E60E60
E60E60
E60E60
E60E60
E62E62
FFFFFF
460460
060060
078078
0D80F8
0D80F8
0D81F8
1999B8
19F339
31E639
30CC3F
60181F
C0700E
ENDCHAR
STARTCHAR CNS1-4C24
ENCODING 12905
SWIDTH 591 0
DWIDTH 24 0
BBX 24 24 0 -2
BITMAP
000000
30C638
3FE7FC
30C618
30C618
30C618
30FE18
30C618
300018
300018
300018
300018
3FFFF8
30C318
00C300
01C300
018300
018300
030301
030303
060302
0C03FE
1803FE
6001FC
ENDCHAR
STARTCHAR CNS1-5022
ENCODING 12906
SWIDTH 591 0
DWIDTH 24 0
BBX 24 24 0 -2
BITMAP
003000
001800
001802
FFFFFF
010080
038080
030040
060020
0FFFFC
1B00DF
3300CF
6300C6
8300C0
0300C0
03FFC0
036680
006600
00E600
00C600
00C601
018603
0307FF
0E03FF
7801FE
ENDCHAR
STARTCHAR CNS4-2840
ENCODING 12907
SWIDTH 591 0
DWIDTH 24 0
BBX 24 24 0 -2
BITMAP
000040
00C060
7FC0C0
000180
000108
000204
00043E
00DFF3
FFCF03
338404
33860E
3387FF
338606
338606
338606
338606
3387FE
338604
338000
238001
638001
43FFFF
C1FFFF
80FFFE
ENDCHAR
STARTCHAR CNS2-3A44
ENCODING 12908
SWIDTH 591 0
DWIDTH 24 0
BBX 24 24 0 -2
BITMAP
0600E0
0600E0
760EC0
760EC0
660CC0
66CCCC
7FCFFE
C618C0
C618C0
8610C0
0600C0
0640C2
FFFFFF
1F8330
1F8330
1B8330
1B8330
3B8330
338630
33F631
63EE31
438C3F
81183F
00E00E
ENDCHAR
STARTCHAR CNS3-5E25
ENCODING 12909
SWIDTH 591 0
DWIDTH 24 0
BBX 24 24 0 -2
BITMAP
0E00C0
0E10C6
0CDFFE
8CDBB8
CCDBBE
4D9FFE
6D9B38
2D1BF0
2E1802
0C1FFF
FFD800
361BFC
361A6C
361BFC
36326C
36326C
3633FC
367110
36638C
36460D
269C05
67FFFF
43FFFF
C1FFFE
ENDCHAR
STARTCHAR CNS3-2134
ENCODING 12910
SWIDTH 591 0
DWIDTH 24 0
BBX 24 24 0 -2
BITMAP
002000
003800
401800
701800
601800
600C00
601C00
601C00
601C00
601E00
603E00
603300
607300
606180
60E180
60C0C0
618060
61803E
63001E
66000C
600000
7FFFFE
3FFFFF
1FFFFF
ENDCHAR
STARTCHAR CNS3-403F
ENCODING 12911
SWIDTH 591 0
DWIDTH 24 0
BBX 24 24 0 -2
BITMAP
001C00
00E300
01C1E0
0380FF
0E003F
7FFFE6
CC1860
0C1860
0FFFE0
0C1860
0C1860
0FFFE0
098360
018300
018318
1FFFFC
018300
018304
3FFFFE
010080
0380C0
070070
0C0038
300018
ENDCHAR
STARTCHAR CNS4-213E
ENCODING 12912
SWIDTH 591 0
DWIDTH 24 0
BBX 24 24 0 -2
BITMAP
200000
30000C
3FFFFE
30000C
30000C
30000C
30000C
30006C
3FFFFC
30000C
30000C
30000C
30000C
30000C
30006C
3FFFFC
30000C
30000C
30000C
30000C
30000C
3000FC
30003C
200018
ENDCHAR
STARTCHAR CNS3-214D
ENCODING 12913
SWIDTH 591 0
DWIDTH 24 0
BBX 24 24 0 -2
BITMAP
000000
0C0060
0FFFF0
0C0060
0C0060
0C0060
0C0060
0C0077
FFFFFF
0C0060
0C0060
0C0060
0C0060
0C0066
FFFFFF
0C0060
0C0060
0C0060
0C0060
0C0060
0C0060
0C03E0
0C01E0
0C00C0
ENDCHAR
STARTCHAR CNS3-2178
ENCODING 12914
SWIDTH 591 0
DWIDTH 24 0
BBX 24 24 0 -2
BITMAP
000004
60000E
7FFFFF
600006
600006
600006
600006
600106
61FF86
618186
618186
618186
618186
618186
618186
618186
61FF86
618186
600006
600006
600006
60003E
60001E
60000C
ENDCHAR
STARTCHAR CNS4-2236
ENCODING 12915
SWIDTH 591 0
DWIDTH 24 0
BBX 24 24 0 -2
BITMAP
040040
0600E0
07FFE0
060060
060060
063060
063FE0
063060
063060
063060
6E30EC
7FFFFE
60000C
60000C
60000C
60000C
60000C
60000C
60000C
60000C
60000C
6001FC
60003C
600018
ENDCHAR
STARTCHAR CNS2-2135
ENCODING 12916
SWIDTH 591 0
DWIDTH 24 0
BBX 24 24 0 -2
BITMAP
001800
001800
001800
001800
201804
3FFFFE
60180E
60180C
C01808
003800
003E00
003E00
007E00
006E00
006E00
00CE00
00CE00
018E00
018E01
030E01
060E03
0C07FF
1803FF
6001FE
ENDCHAR
STARTCHAR CNS3-2457
ENCODING 12917
SWIDTH 591 0
DWIDTH 24 0
BBX 24 24 0 -2
BITMAP
000000
200006
3FFFFF
600007
E00004
E00008
420180
03FFC0
0301C0
0301C0
0301C0
0301C0
03FFC0
0301C0
0301C0
0301C0
0301C0
03FFC0
0301C0
0301C0
0301C0
0301C6
7FFFFE
000000
ENDCHAR
STARTCHAR CNS3-2F5B
ENCODING 12918
SWIDTH 591 0
DWIDTH 24 0
BBX 24 24 0 -2
BITMAP
200000
200007
7FFFFF
E00006
C0004C
87FFC0
000000
000008
3FFFFC
006000
00E060
01E0F0
0771C0
1CFB00
71CE00
031E00
0C3F80
70EEE0
01CE78
070E3E
1C0C1E
70FC04
007800
003000
ENDCHAR
STARTCHAR CNS3-2F59
ENCODING 12919
SWIDTH 591 0
DWIDTH 24 0
BBX 24 24 0 -2
BITMAP
200000
200007
7FFFFF
E00006
C0000C
801000
3FF800
1C6008
1C67FC
1C620C
1C630C
1FE118
1C6118
1C6198
1C61B8
1FE0F0
1C6060
1C60E0
1CE0F0
1F6198
7C639E
30670F
006E07
007800
ENDCHAR
STARTCHAR CNS4-215E
ENCODING 12920
SWIDTH 591 0
DWIDTH 24 0
BBX 24 24 0 -2
BITMAP
003000
003000
003000
006006
FFFFFF
00C100
01C180
0180C0
030060
060038
0C001C
18700F
301E07
C00700
000380
000080
000000
000000
0000F0
0007C0
00FE00
07E000
070000
030000
ENDCHAR
STARTCHAR CNS3-245A
ENCODING 12921
SWIDTH 591 0
DWIDTH 24 0
BBX 24 24 0 -2
BITMAP
000380
000380
60C30E
30631C
383318
183B38
021B30
061B60
04030C
0CFFFE
0C0300
180300
180300
100300
300306
F1FFFF
F00300
600300
300300
300300
300300
300300
300300
000300
ENDCHAR
STARTCHAR CNS4-233D
ENCODING 12922
SWIDTH 591 0
DWIDTH 24 0
BBX 24 24 0 -2
BITMAP
004008
00601C
607FFC
30600C
38600C
18600C
02600C
027FFC
066188
066180
046180
0C6184
187FFE
1861C0
3061C0
F060C0
F060C0
606060
306060
306331
306E39
30781F
30700F
006007
ENDCHAR
STARTCHAR CNS2-254E
ENCODING 12923
SWIDTH 591 0
DWIDTH 24 0
BBX 24 24 0 -2
BITMAP
000380
000380
603B00
303300
383300
18731C
027FFC
064300
04C300
0C8300
0C0300
180306
19FFFE
100C60
300C60
F00C60
F01860
601860
303860
303061
306061
30C07F
31807F
06003E
ENDCHAR
STARTCHAR CNS2-254F
ENCODING 12924
SWIDTH 591 0
DWIDTH 24 0
BBX 24 24 0 -2
BITMAP
000300
000300
600700
300F80
380CC0
181C60
021870
063038
04301C
0C600F
0CC037
19BFF3
1B0000
100000
306030
F07FF8
F07038
607038
307038
307038
307038
307FF8
307030
006000
ENDCHAR
STARTCHAR CNS4-2540
ENCODING 12925
SWIDTH 591 0
DWIDTH 24 0
BBX 24 24 0 -2
BITMAP
000380
000380
600308
307FFC
38039C
18030C
02030C
07FFFF
04030C
0C030C
0C039C
187FF8
180300
100308
30FFFC
F00300
F00300
600306
31FFFF
300300
300300
300300
300300
000300
ENDCHAR
STARTCHAR CNS3-2B3D
ENCODING 12926
SWIDTH 591 0
DWIDTH 24 0
BBX 24 24 0 -2
BITMAP
001C00
001C00
601860
301FF0
383060
1830C0
02618C
06FFFE
05E30E
0D630C
0C630C
18630C
18630C
107FFC
3063CC
F007C0
F006C0
600EC0
300CC1
3018C1
3030C3
3060FF
30C07F
03803E
ENDCHAR
STARTCHAR CNS2-2E27
ENCODING 13089
SWIDTH 591 0
DWIDTH 24 0
BBX 24 24 0 -2
BITMAP
00007C
0003FE
60FF8C
30000E
38C20C
186318
027330
062000
047FFC
0C030C
0C030C
18030C
18FFFF
10039C
30030C
F0030C
F0039C
607FFC
300308
300300
300300
301F00
300F00
000600
ENDCHAR
STARTCHAR CNS3-344F
ENCODING 13090
SWIDTH 591 0
DWIDTH 24 0
BBX 24 24 0 -2
BITMAP
0001C0
0001C0
6001D8
3001CC
3801CC
18C1C2
02FFFF
06C1C0
04C3C0
0CFFCE
0CC0CE
18D2CC
18DFCC
10D2CC
30D278
F1D278
F19278
619E70
339271
3300F9
33019F
32030F
360E07
040803
ENDCHAR
STARTCHAR CNS3-344E
ENCODING 13091
SWIDTH 591 0
DWIDTH 24 0
BBX 24 24 0 -2
BITMAP
000700
000700
600600
300618
38FFFC
180E00
020E30
067FF0
040C00
0C1804
0DFFFE
183060
183070
107FF8
30E31F
F1C30F
F38606
62FFF8
300C00
300CC0
301870
303038
30601C
01800C
ENDCHAR
STARTCHAR CNS3-397D
ENCODING 13092
SWIDTH 591 0
DWIDTH 24 0
BBX 24 24 0 -2
BITMAP
000300
00C318
60E318
30C318
38C318
18FFF8
02C010
060000
05FFFE
0C0000
0C0030
187FF8
186038
106038
306038
F06038
F07FF0
604000
304038
306038
303070
301860
3018C7
03FFFF
ENDCHAR
STARTCHAR CNS3-397A
ENCODING 13093
SWIDTH 591 0
DWIDTH 24 0
BBX 24 24 0 -2
BITMAP
000004
00000E
60FFFE
300EC0
38CECC
18FFFE
02CECE
06CECC
04CECC
0CCECC
0CEECC
18FFFC
18C38C
100300
300306
F1FFFF
F00300
607310
306318
30C30C
308306
310307
320302
000300
ENDCHAR
STARTCHAR CNS4-363F
ENCODING 13094
SWIDTH 591 0
DWIDTH 24 0
BBX 24 24 0 -2
BITMAP
000000
006007
607FFF
30C006
38C004
18BFFC
02300C
02300C
063FFC
06300C
04300C
0C300C
183FFC
180200
300180
F00182
F0FFFF
600000
301800
303808
30300C
306006
30C007
018003
ENDCHAR
STARTCHAR CNS2-4927
ENCODING 13095
SWIDTH 591 0
DWIDTH 24 0
BBX 24 24 0 -2
BITMAP
008800
00CC0F
60CCFF
30CCC0
33FFC0
10CCC0
00CCC0
00CCC3
0CFCFF
0CCCCC
08CCCC
18FCCC
10CCCC
10CCCC
30CDCC
F7FFCC
E098CC
60CCCC
3187CC
31878C
33038C
36010C
30030C
00060C
ENDCHAR
STARTCHAR CNS2-5644
ENCODING 13096
SWIDTH 591 0
DWIDTH 24 0
BBX 24 24 0 -2
BITMAP
020000
43C346
72FF7F
32C866
12C866
02CB66
0EFFE6
0AC366
0AC37E
1AC364
12E360
32FF60
F2C861
E6C861
66C863
64C87F
2DFF3F
180000
000000
210608
218306
60C387
E0C183
C04003
ENDCHAR
STARTCHAR CNS3-212F
ENCODING 13097
SWIDTH 591 0
DWIDTH 24 0
BBX 24 24 0 -2
BITMAP
003800
003800
003000
006000
00C000
068180
07FFC0
0601C0
0601C0
0601C0
0601C0
0601C0
0601C0
0601C0
0601C0
0601C0
0601C0
0C01C1
0C01C1
0C01C1
1801C3
1001FF
2000FF
40003E
ENDCHAR
STARTCHAR CNS3-217B
ENCODING 13098
SWIDTH 591 0
DWIDTH 24 0
BBX 24 24 0 -2
BITMAP
00000C
3FFFFE
30000E
30000C
30000C
30000C
3FFFFC
30000C
300080
307FC0
3060E0
3060C0
3060C0
3060C0
3060C0
3060C0
30C0C0
30C0C0
30C0C1
60C0C3
6180E6
C300FF
86003E
040000
ENDCHAR
STARTCHAR CNS4-2545
ENCODING 13099
SWIDTH 591 0
DWIDTH 24 0
BBX 24 24 0 -2
BITMAP
000000
300038
3FFFF8
300038
3000B8
37FFF8
303038
303038
316338
33FFB8
338338
338338
338338
338338
33FF38
338338
338318
338318
338319
33FF0D
63830D
61000F
C00007
800003
ENDCHAR
STARTCHAR CNS6-4665
ENCODING 13100
SWIDTH 591 0
DWIDTH 24 0
BBX 24 24 0 -2
BITMAP
300018
3FFFFC
304318
306318
30C218
3084D8
37FFF8
30CC18
30CC98
37FF98
30CD98
30CD98
37FFF8
30CD98
30CD98
37FF98
30CC18
31CE19
33CF19
33CDCD
66CCEF
6CCC6F
C8CC07
800803
ENDCHAR
STARTCHAR CNS1-6821
ENCODING 13101
SWIDTH 591 0
DWIDTH 24 0
BBX 24 24 0 -2
BITMAP
004430
3FE260
00E2CC
38C31E
0CC1B8
0580E0
03FFF8
06003F
1FFFCF
F301C2
0301C0
03FFC0
000180
018300
00C60E
7FFFFE
000000
03FF80
038180
030181
030183
0601FE
0C01FE
70007C
ENDCHAR
STARTCHAR CNS3-457A
ENCODING 13102
SWIDTH 591 0
DWIDTH 24 0
BBX 24 24 0 -2
BITMAP
200018
30FFFC
18C600
0AFFF0
02E600
04C610
0CFFF0
18C600
70FFFE
70000E
3004CC
39266C
3B327C
161078
060030
03FFC0
0301C0
0301C0
0301C1
0601C1
0601C3
0C01FF
1800FF
60007E
ENDCHAR
STARTCHAR CNS4-2160
ENCODING 13103
SWIDTH 591 0
DWIDTH 24 0
BBX 24 24 0 -2
BITMAP
000000
70100E
601C0E
60180C
60180C
60180C
60180C
6039CC
67FFCC
60180C
60180C
60180C
60180C
60180C
60180C
60180C
60186C
6FFFFC
60000C
60000C
60000C
60000C
7FFFFC
00000C
ENDCHAR
STARTCHAR CNS1-442F
ENCODING 13104
SWIDTH 591 0
DWIDTH 24 0
BBX 24 24 0 -2
BITMAP
000008
00001C
1FFFFC
00000C
00000C
00000C
00000C
00000C
00018C
00070C
001C0C
00300C
00E00C
03C00C
0F800C
3E000C
7C000C
30001C
300018
000038
000078
000FF0
0000E0
000040
ENDCHAR
STARTCHAR CNS4-212A
ENCODING 13105
SWIDTH 591 0
DWIDTH 24 0
BBX 24 24 0 -2
BITMAP
0001C0
0001C0
0001C0
0381C0
0381C0
0381C0
0381C0
0381C0
0381C0
0381C0
0381C0
0381C0
0381C0
0381C0
0381C0
0381C0
0381C0
0381C0
0101C0
0001C0
0001C0
003FC0
000F80
000300
ENDCHAR
STARTCHAR CNS3-2152
ENCODING 13106
SWIDTH 591 0
DWIDTH 24 0
BBX 24 24 0 -2
BITMAP
000040
0000E0
7FFFE0
006060
006060
006060
006060
006060
006060
186060
0E6070
07C07C
03C06E
01C066
00C067
01C062
018060
038060
0300E0
0600C0
0C01C0
181F80
300700
600200
ENDCHAR
STARTCHAR CNS1-4746
ENCODING 13107
SWIDTH 591 0
DWIDTH 24 0
BBX 24 24 0 -2
BITMAP
060007
06C007
066006
063006
0610E6
0604C6
FFFCC6
0600C6
0600C6
0618C6
0618C6
0630C6
0330C6
0360C6
0360C6
03C0C6
03C0C6
0380C6
03C006
06C206
0C6606
183C3E
601C1C
800C08
ENDCHAR
STARTCHAR CNS2-217C
ENCODING 13108
SWIDTH 591 0
DWIDTH 24 0
BBX 24 24 0 -2
BITMAP
000007
002007
7FF006
0001C6
0001C6
0001C6
0001C6
0011C6
FFF9C6
1CC1C6
1CC1C6
1CC1C6
1CC1C6
18C1C6
18C1C6
18C1C6
10C1C6
30C186
30CC06
30F006
60E006
C0C07E
80003C
000008
ENDCHAR
STARTCHAR CNS3-2326
ENCODING 13109
SWIDTH 591 0
DWIDTH 24 0
BBX 24 24 0 -2
BITMAP
000000
000060
07FFF0
007060
007060
006060
006060
00C060
0180E0
030FC0
060180
1C0100
000004
00700E
7FF7FF
0C71C6
0C71C6
0C7186
187186
187306
30630E
37E6FC
63CC78
C19830
ENDCHAR
STARTCHAR CNS1-4748
ENCODING 13110
SWIDTH 591 0
DWIDTH 24 0
BBX 24 24 0 -2
BITMAP
10000E
18700E
1FF80C
1831CC
1831CC
18318C
18318C
18318C
1FF18C
18318C
18318C
18318C
18318C
18318C
1FF18C
18318C
30318C
30318C
30300C
30300C
30300C
61F0FC
60F03C
406018
ENDCHAR
STARTCHAR CNS3-2327
ENCODING 13111
SWIDTH 591 0
DWIDTH 24 0
BBX 24 24 0 -2
BITMAP
0C0007
060007
070006
0301C6
0319C6
FFF9C6
0061C6
0061C6
6061C6
30C1C6
18C1C6
08C1C6
0DC1C6
0781C6
0781C6
0381C6
07C1C6
06C186
0CE006
0C6006
187006
30307E
60103C
000008
ENDCHAR
STARTCHAR CNS4-2340
ENCODING 13112
SWIDTH 591 0
DWIDTH 24 0
BBX 24 24 0 -2
BITMAP
030007
070007
070006
06C1C6
0C71C6
0C39C6
1819C6
3009C6
2021C6
5FF1C6
8001C6
0001C6
0011C6
0039C6
3FF9C6
0071C6
0061C6
10C186
0D8006
070006
030006
01807E
01C03C
00C008
ENDCHAR
STARTCHAR CNS1-4935
ENCODING 13113
SWIDTH 591 0
DWIDTH 24 0
BBX 24 24 0 -2
BITMAP
1C0007
1C0007
180006
300CE6
3FFCE6
200CC6
600CC6
618CC6
FFCCC6
B1CCC6
318CC6
318CC6
318CC6
398CC6
3F8CC6
300CC6
31FCC6
3038C6
301206
300206
300606
3FFE7E
1FFE3C
0FFC08
ENDCHAR
STARTCHAR CNS2-2554
ENCODING 13114
SWIDTH 591 0
DWIDTH 24 0
BBX 24 24 0 -2
BITMAP
19C000
19C038
198FFC
198198
198198
19A198
7FE198
198198
19899C
198D9E
19879B
19879B
198199
FFF318
198318
198318
318318
318318
318718
318618
618E38
C18FF0
8199E0
01B0C0
ENDCHAR
STARTCHAR CNS2-2551
ENCODING 13115
SWIDTH 591 0
DWIDTH 24 0
BBX 24 24 0 -2
BITMAP
038007
038007
030006
0301C6
0331C6
3FF1C6
0301C6
0301C6
0311C6
7FF9C6
0001C6
0201C6
0381C6
0301C6
0301C6
0311C6
7FF9C6
030186
030006
030006
030006
FFFC7E
FC003C
600008
ENDCHAR
STARTCHAR CNS2-2550
ENCODING 13116
SWIDTH 591 0
DWIDTH 24 0
BBX 24 24 0 -2
BITMAP
000007
000C07
7FFC06
1871C6
1871C6
1871C6
1871C6
1FF1C6
1871C6
1871C6
1871C6
1871C6
1FF1C6
1871C6
1871C6
1871C6
1871C6
19F186
FF7006
E07006
207006
00707E
00703C
006008
ENDCHAR
STARTCHAR CNS3-275D
ENCODING 13117
SWIDTH 591 0
DWIDTH 24 0
BBX 24 24 0 -2
BITMAP
040000
070008
061FFC
06030C
06030C
06C30C
7FC30C
06030C
06130C
061B0C
064B0C
FFEF0C
0C070C
0C030C
1C038C
1983CC
30C37C
20C63C
43E61F
FE6C1F
F06C38
4019F0
0031E0
006040
ENDCHAR
STARTCHAR CNS3-2B3F
ENCODING 13118
SWIDTH 591 0
DWIDTH 24 0
BBX 24 24 0 -2
BITMAP
000007
001807
FFF806
0001C6
0031C6
3FF9C6
3039C6
3031C6
3031C6
3031C6
3031C6
3FF1C6
3021C6
0001C6
0079C6
2071C6
3061C6
186186
1CC006
0CC006
00F806
FFC07E
E0003C
200008
ENDCHAR
STARTCHAR CNS2-2933
ENCODING 13119
SWIDTH 591 0
DWIDTH 24 0
BBX 24 24 0 -2
BITMAP
038007
038007
339006
3B98E6
3398E6
3398C6
33B0C6
33B8C6
7BECC6
CFEEC6
87C4C6
0380C6
0380C6
0388C6
7FFCC6
0380C6
0380C6
0380C6
038006
038006
0FFC06
FF007E
E0003C
200008
ENDCHAR
STARTCHAR CNS2-2E2E
ENCODING 13120
SWIDTH 591 0
DWIDTH 24 0
BBX 24 24 0 -2
BITMAP
067007
067007
067007
067067
067267
7E7F67
067067
067067
067067
067267
7E7F67
067067
067067
067067
0E7367
FE7F67
E67067
667067
0C7007
0C7007
187007
18703F
30700E
60600C
ENDCHAR
STARTCHAR CNS3-2F65
ENCODING 13121
SWIDTH 591 0
DWIDTH 24 0
BBX 24 24 0 -2
BITMAP
1C8007
1CC007
1C4806
1FFCE6
FC40E6
0E60C6
06E2C6
0786C6
07C4C6
1EFCC6
307CC6
C888C6
1CC0C6
1C68C6
FFF8C6
0C00C6
0670C6
06E0C6
07C206
038606
07C406
18FC7E
607C3C
801C08
ENDCHAR
STARTCHAR CNS4-2B6E
ENCODING 13122
SWIDTH 591 0
DWIDTH 24 0
BBX 24 24 0 -2
BITMAP
1C7007
1C7007
187006
1870E6
FFFCE6
1870C6
1870C6
1870C6
1FF0C6
1870C6
1870C6
1870C6
1FF0C6
1870C6
1870C6
1870C6
187CC6
FFFCC6
180006
183006
301806
301C7E
600C3C
C00C08
ENDCHAR
STARTCHAR CNS2-2E2A
ENCODING 13123
SWIDTH 591 0
DWIDTH 24 0
BBX 24 24 0 -2
BITMAP
038007
038007
038406
7FFEE6
0380E6
2398C6
3FFCC6
3398C6
3398C6
3FF8C6
0380C6
038CC6
7FFEC6
038CC6
038CC6
FFFFC6
038CC6
038CC6
7FFC06
038806
038006
1F807E
07003C
030008
ENDCHAR
STARTCHAR CNS1-5449
ENCODING 13124
SWIDTH 591 0
DWIDTH 24 0
BBX 24 24 0 -2
BITMAP
030007
018007
018207
7FFF07
E00777
C00677
980467
100067
367E67
3F6E67
366E67
266E67
766E67
5E6E67
CE6E67
8C6E67
0C7C67
0C6C67
186007
106107
306307
607E3F
C07F1E
801E0C
ENDCHAR
STARTCHAR CNS2-2E2D
ENCODING 13125
SWIDTH 591 0
DWIDTH 24 0
BBX 24 24 0 -2
BITMAP
000007
060E07
3F7F07
064667
266667
163E67
1C1C67
1E1E67
3F3F67
736367
E0C067
808467
7F7E67
074767
064667
664667
366C67
1C2C67
1C3807
1E1807
333C07
716F3F
E0C70E
87020C
ENDCHAR
STARTCHAR CNS3-2F60
ENCODING 13126
SWIDTH 591 0
DWIDTH 24 0
BBX 24 24 0 -2
BITMAP
060007
030007
038006
FFFCE6
0000E6
0000C6
3030C6
3FF8C6
3018C6
3018C6
3018C6
3018C6
3FF8C6
3390C6
0380C6
1380C6
1BA0C6
3BB0C6
339806
239C06
438C06
9F847E
07003C
060008
ENDCHAR
STARTCHAR CNS2-2E29
ENCODING 13127
SWIDTH 591 0
DWIDTH 24 0
BBX 24 24 0 -2
BITMAP
038007
038007
431806
3339C6
1B61C6
1F01C6
0601C6
06C1C6
0C71C6
1839C6
3019C6
E209C6
0381C6
0301C6
4319C6
6339C6
3361C6
160186
068006
066006
0C3806
181C7E
300C3C
600008
ENDCHAR
STARTCHAR 19-40
ENCODING 13128
SWIDTH 591 0
DWIDTH 24 0
BBX 24 24 0 -2
BITMAP
070007
070007
060006
0608E6
0C1CE6
7FFCC6
1CC0C6
1A60C6
33B0C6
333EC6
631EC6
FFFCC6
B330C6
3330C6
3FF0C6
3330C6
3330C6
3330C6
3FF006
230006
030006
03F87E
03FC3C
00F808
ENDCHAR
STARTCHAR CNS2-336F
ENCODING 13129
SWIDTH 591 0
DWIDTH 24 0
BBX 24 24 0 -2
BITMAP
000007
107007
1FF006
1870E6
1870E6
1BF0C6
1B70C6
1B70C6
1B70C6
FFFCC6
E00CC6
E00CC6
E40CC6
E7CCC6
E4CCC6
E4CCC6
E4CCC6
E7CCC6
E4CC06
E00C06
E00C06
E0FC7E
E0783C
C01008
ENDCHAR
STARTCHAR CNS1-6337
ENCODING 13130
SWIDTH 591 0
DWIDTH 24 0
BBX 24 24 0 -2
BITMAP
030007
018007
018C67
3FFE77
0C7067
07E067
01E067
03F867
0E1A67
3FFF67
30E067
37E067
36C067
36EE67
37FE67
3CC067
38C867
3FFC67
60C067
60C007
60C607
C7FC3F
8FC00E
060006
ENDCHAR
STARTCHAR CNS2-416C
ENCODING 13131
SWIDTH 591 0
DWIDTH 24 0
BBX 24 24 0 -2
BITMAP
038007
038807
7FFC06
0380E6
2398E6
3FFCC6
3398C6
3398C6
3FF8C6
3398C6
3398C6
3FF8C6
038CC6
03FCC6
FFA6C6
6038C6
2032C6
FFFEC6
0C3006
0C3006
043006
03F07E
00F03C
006008
ENDCHAR
STARTCHAR CNS3-4041
ENCODING 13132
SWIDTH 591 0
DWIDTH 24 0
BBX 24 24 0 -2
BITMAP
0C0C07
FEFC07
46CC06
366CE6
060CE6
3E3CC6
F6ECC6
C6CCC6
3E7CC6
1FB8C6
0B90C6
07C0C6
0E70C6
1CB8C6
399CC6
730CC6
8C40C6
30E0C6
039006
0E3806
70F006
03C07E
0E003C
780008
ENDCHAR
STARTCHAR CNS2-4928
ENCODING 13133
SWIDTH 591 0
DWIDTH 24 0
BBX 24 24 0 -2
BITMAP
003007
3FF807
067006
03C0E6
018CE6
7FFEC6
03CEC6
06C8C6
0CD0C6
18C0C6
67C0C6
819CC6
7FFEC6
66CCC6
64CCC6
6C7CC6
780CC6
77CCC6
664C06
67CC06
600C06
60FC7E
60783C
601008
ENDCHAR
STARTCHAR CNS1-6823
ENCODING 13134
SWIDTH 591 0
DWIDTH 24 0
BBX 24 24 0 -2
BITMAP
000007
6001C7
7FFFC7
60EE37
6CEE37
66CC37
66CC37
619837
6FDFB7
631FB7
631FB7
6F6F37
6F4E37
6F4E37
6F4E37
6F4E37
6F5E37
6FDB37
E31B07
C21307
C63187
8661DF
8C40CE
18800C
ENDCHAR
STARTCHAR CNS4-4925
ENCODING 13135
SWIDTH 591 0
DWIDTH 24 0
BBX 24 24 0 -2
BITMAP
001007
603807
7FF806
6498E6
6498E6
6498C6
7FF8C6
3800C6
3818C6
3FFCC6
341CC6
6618C6
C618C6
BFD8C6
26D8C6
26D8C6
2ED8C6
3F98C6
069806
0FD806
7C5806
31F87E
00F03C
006008
ENDCHAR
STARTCHAR CNS1-6C2E
ENCODING 13136
SWIDTH 591 0
DWIDTH 24 0
BBX 24 24 0 -2
BITMAP
01C007
03C007
036047
063877
0C0E67
181767
3FFB67
600067
FFFE67
318E67
35BE67
37AE67
378E67
3FFC67
200067
1FFC67
181C67
181867
1FF847
181807
181807
1FF83F
18180E
100006
ENDCHAR
STARTCHAR CNS2-4F5B
ENCODING 13137
SWIDTH 591 0
DWIDTH 24 0
BBX 24 24 0 -2
BITMAP
00E007
08E007
1CC407
1CFE77
1CC077
1CC367
7FFF67
003667
003367
3FFF67
203067
20F067
2FF367
233367
2B3367
2FDE67
2FDE67
6B9C67
7B9C07
531C87
C63D87
8C673F
99838E
16018C
ENDCHAR
STARTCHAR CNS1-7039
ENCODING 13138
SWIDTH 591 0
DWIDTH 24 0
BBX 24 24 0 -2
BITMAP
030007
031007
1FF806
1C18E6
1FF8E6
1C18C6
1FF8C6
1C38C6
1FF0C6
0008C6
3FFCC6
318CC6
3FFCC6
398CC6
318CC6
3FFCC6
0000C6
7FFFC6
0C3006
0C3006
1C3006
18307E
30303C
603008
ENDCHAR
STARTCHAR CNS4-556D
ENCODING 13139
SWIDTH 591 0
DWIDTH 24 0
BBX 24 24 0 -2
BITMAP
0F0E07
787807
606006
7F7E66
6E6E66
666E66
664E66
C6CE66
C48C66
A00066
3FFC66
300C66
300C66
3FFC66
300C66
300C66
3FFC66
300C46
300C06
3FFC06
0C3006
181C7E
300E3C
E00608
ENDCHAR
STARTCHAR CNS2-6539
ENCODING 13140
SWIDTH 591 0
DWIDTH 24 0
BBX 24 24 0 -2
BITMAP
1C0007
1CC007
3FE006
718866
FFFC66
B01C66
3FF866
30E066
30E266
3EFA66
36E666
387E66
380066
3FE066
30C066
7FFC66
F38C66
338C46
3FFC06
03D006
06DB06
0CCB7E
18FF3C
607E08
ENDCHAR
STARTCHAR CNS2-6B51
ENCODING 13141
SWIDTH 591 0
DWIDTH 24 0
BBX 24 24 0 -2
BITMAP
1C3007
7CB007
7CB006
FFFE66
DD3066
9C3266
7EFF66
3C7866
6DFA66
6EDE66
CC8F66
840666
3FF866
301866
3FF866
301866
381866
3FF846
301806
3FF806
082006
1E183E
300E1C
600608
ENDCHAR
STARTCHAR CNS2-6B50
ENCODING 13142
SWIDTH 591 0
DWIDTH 24 0
BBX 24 24 0 -2
BITMAP
018007
60C207
7FFF06
630C66
630C66
6F9E66
628A66
6FBE66
6FBE66
6FBF66
6AEB66
7A6866
619866
619866
6F9F66
619866
619A66
679E66
C19806
C79F06
BD9806
93183E
06183C
1C1008
ENDCHAR
STARTCHAR CNS3-602C
ENCODING 13143
SWIDTH 591 0
DWIDTH 24 0
BBX 24 24 0 -2
BITMAP
200607
3FFF07
300307
300307
3FFF77
3ECA67
33DC67
33D067
3CDC67
37FE67
35B667
349267
37FE67
330067
37FF67
3EC367
39DB67
27FF67
27FB67
65F307
60FB07
4FDF3F
C43E1E
000C0C
ENDCHAR
STARTCHAR CNS3-2137
ENCODING 13144
SWIDTH 591 0
DWIDTH 24 0
BBX 24 24 0 -2
BITMAP
060380
060380
060300
060300
060300
060300
063300
7FFB00
063300
063300
063300
063300
063300
0C3300
0C3300
0C3300
1C3300
183301
183301
307303
20E303
4FC3FF
8181FF
0000FC
ENDCHAR
STARTCHAR CNS4-2242
ENCODING 13145
SWIDTH 591 0
DWIDTH 24 0
BBX 24 24 0 -2
BITMAP
0060E0
03F0E0
3F80C0
3000C0
3000C0
3000C2
3003FF
3030C7
3FF0C7
30C0C7
30C0C7
30C0C7
30C0C7
30C0C7
30C1C7
30C1C7
30C187
20C187
60C307
60C307
60C606
C0C4FE
C0C83C
809018
ENDCHAR
STARTCHAR CNS4-223F
ENCODING 13146
SWIDTH 591 0
DWIDTH 24 0
BBX 24 24 0 -2
BITMAP
0C00E0
0600E0
0600C0
FFF0C0
0000C0
0000C2
0007FF
30C0C7
3FE0C7
30C0C7
30C0C7
30C0C7
30C0C7
30C0C7
30C1C7
30C1C7
30C187
30C187
30DB07
30F307
60E606
60447E
C0083C
801018
ENDCHAR
STARTCHAR CNS2-217E
ENCODING 13147
SWIDTH 591 0
DWIDTH 24 0
BBX 24 24 0 -2
BITMAP
003800
003800
003070
07FFF8
003030
003030
006030
00C070
018060
0307E0
0601C0
080000
040040
070070
062062
7FF3FF
0E70E7
067067
0C70C7
0C70C7
186186
1FE37E
33C63C
619C18
ENDCHAR
STARTCHAR CNS4-2241
ENCODING 13148
SWIDTH 591 0
DWIDTH 24 0
BBX 24 24 0 -2
BITMAP
0040E0
03E0E0
7FE0C0
0600C0
0600C0
0600C2
0607FF
0770C7
7FF0C7
0600C7
0600C7
0600C7
0630C7
FFF8C7
0601C7
0601C7
060187
060187
060307
060307
060606
7E047E
1E083C
0C1018
ENDCHAR
STARTCHAR CNS4-2346
ENCODING 13149
SWIDTH 591 0
DWIDTH 24 0
BBX 24 24 0 -2
BITMAP
0001C0
0081C0
FFC180
180180
180180
300182
301FFF
300187
310187
7F8187
71C187
718387
F18307
F18307
318307
318307
318607
318607
3F8C07
318C06
30180E
2031FC
006078
01C030
ENDCHAR
STARTCHAR CNS4-2347
ENCODING 13150
SWIDTH 591 0
DWIDTH 24 0
BBX 24 24 0 -2
BITMAP
0001C0
0E01C0
0C0180
180180
118180
FFC184
E1DFFE
E18186
E18186
E18186
E18186
E18386
FF8306
E18306
E18306
E18306
E18606
E18606
FF8C06
E18C0E
C0180C
0031FC
006078
01C030
ENDCHAR
STARTCHAR CNS5-253A
ENCODING 13151
SWIDTH 591 0
DWIDTH 24 0
BBX 24 24 0 -2
BITMAP
0040E0
01E0E0
4FE0C0
F800C0
E000C0
E000C2
E007FF
E070C7
FFF0C7
E000C7
E000C7
E000C7
F060C7
FFE0C7
F861C7
F861C7
F86187
F86187
D86307
D86307
D86606
9FE47E
98683C
185018
ENDCHAR
STARTCHAR CNS5-2537
ENCODING 13152
SWIDTH 591 0
DWIDTH 24 0
BBX 24 24 0 -2
BITMAP
008380
40C380
618300
310300
330300
FFC304
0C1FFE
0C0386
0C0306
7F8306
0C0306
0C0306
0C0306
0C0306
FFC306
0C0706
0C0606
0C0606
1C0C06
180C0E
18180C
3031FC
206078
41C030
ENDCHAR
STARTCHAR CNS5-2538
ENCODING 13153
SWIDTH 591 0
DWIDTH 24 0
BBX 24 24 0 -2
BITMAP
0700E0
0700E0
0600C0
0620C0
7FF0C0
0600C2
0607FF
0600C7
0600C7
FFF0C7
0700C7
0700C7
0600C7
0600C7
0621C7
7FF1C7
060187
060187
060307
060307
06FE06
FFC47E
E0083C
001018
ENDCHAR
STARTCHAR CNS5-253B
ENCODING 13154
SWIDTH 591 0
DWIDTH 24 0
BBX 24 24 0 -2
BITMAP
0C00E0
0C00E0
1800C0
1080C0
2040C0
41E0C2
FF37FF
E010C7
0700C7
6700C7
6600C7
6620C7
7FF0C7
4600C7
C601C7
8601C7
073187
FFF187
060307
060307
060606
06047E
06083C
061018
ENDCHAR
STARTCHAR CNS1-4C34
ENCODING 13155
SWIDTH 591 0
DWIDTH 24 0
BBX 24 24 0 -2
BITMAP
0000E0
0010E0
FFF8C0
E000C0
E000C0
E020C0
FFF0C6
E387FF
E380C7
E380C7
E380C7
EFE0C7
E380C7
E380C7
E381C7
E381C7
E3B187
FFF187
E00307
E00306
FFFE0E
4004FC
000878
001030
ENDCHAR
STARTCHAR CNS4-2550
ENCODING 13156
SWIDTH 591 0
DWIDTH 24 0
BBX 24 24 0 -2
BITMAP
000007
001907
FFF9C6
0C0186
0C7186
1FF986
183186
266186
42C186
818106
03000E
0C007E
38000C
E07800
007008
3FFFFC
00601C
00E00C
01C00C
03800C
070018
0E03F8
1800F0
E00060
ENDCHAR
STARTCHAR CNS2-2934
ENCODING 13157
SWIDTH 591 0
DWIDTH 24 0
BBX 24 24 0 -2
BITMAP
0600E0
0600E0
0620C0
FFF0C0
0E00C0
0600C0
0660C6
7FE7FF
6060C7
6060C7
6060C7
6060C7
7FE0C7
1F80C7
1F81C7
1F8187
1B8187
1B8387
1BB307
33C306
33860E
718CFC
E01878
80E030
ENDCHAR
STARTCHAR CNS3-2B48
ENCODING 13158
SWIDTH 591 0
DWIDTH 24 0
BBX 24 24 0 -2
BITMAP
380060
380060
300060
301060
7FF860
600060
C00066
A073FF
3FF067
367067
337067
33F067
317067
FFFC67
6870C7
6670C7
6370C7
6371C6
7FF986
60730E
00630C
07E67C
03CC38
019830
ENDCHAR
STARTCHAR CNS4-2849
ENCODING 13159
SWIDTH 591 0
DWIDTH 24 0
BBX 24 24 0 -2
BITMAP
1800E0
0C00E0
4CE0C0
FFF0C0
E060C0
E060C2
E067FF
FFE0C7
E060C7
E060C7
E060C7
FFE0C7
E000C7
E830C7
EC71C7
E6C1C7
E38187
E18187
E0C307
E2E307
EC7606
F8347E
E0083C
601018
ENDCHAR
STARTCHAR CNS4-284B
ENCODING 13160
SWIDTH 591 0
DWIDTH 24 0
BBX 24 24 0 -2
BITMAP
0040E0
00E0E0
3FF0C0
01C0C0
1380C0
0E00C2
0607FF
E370C7
FFF8C7
E630C7
E630C7
E630C7
FFF0C7
E630C7
E630C7
E631C7
FFF187
E63187
E63187
E63307
E63306
E6F67E
E67C3C
C07818
ENDCHAR
STARTCHAR CNS3-2F6F
ENCODING 13161
SWIDTH 591 0
DWIDTH 24 0
BBX 24 24 0 -2
BITMAP
064060
667060
366060
36C060
168060
7FE060
060066
0603FF
0C3067
FFF867
18C067
187067
3FF867
387867
7868C7
D860C7
1FE0C7
18E1C7
18C186
187B0E
1FC30C
1E067C
180C38
001830
ENDCHAR
STARTCHAR CNS3-2F6A
ENCODING 13162
SWIDTH 591 0
DWIDTH 24 0
BBX 24 24 0 -2
BITMAP
0C0060
060060
061060
7FF860
002060
207060
306066
1863FF
184067
0CC067
089867
FFF867
000067
000067
3030C7
3FF8C7
3030C7
3031C6
303186
30330E
30330C
3FF67C
300C38
201830
ENDCHAR
STARTCHAR CNS3-2F6E
ENCODING 13163
SWIDTH 591 0
DWIDTH 24 0
BBX 24 24 0 -2
BITMAP
038060
038060
030060
030860
FFFC60
030060
333066
3333FF
233067
637067
737867
DBCC67
CB8467
870067
07C0C7
0F60C7
0F30C7
1B19C6
1B1986
33030E
63030C
C3067C
030C38
031830
ENDCHAR
STARTCHAR CNS3-3452
ENCODING 13164
SWIDTH 591 0
DWIDTH 24 0
BBX 24 24 0 -2
BITMAP
000060
001860
FFF860
030060
060060
060060
0C0066
581BFF
FFFC67
ECD867
ECD867
ECD867
EFD867
ECD867
ECD8C7
ECD8C7
EFD8C7
ECD9C6
ECD986
ECD98E
ECDB0C
FFFB7C
C00638
000C30
ENDCHAR
STARTCHAR CNS2-3370
ENCODING 13165
SWIDTH 591 0
DWIDTH 24 0
BBX 24 24 0 -2
BITMAP
0000E0
4070E0
FFF0C0
E070C0
E1F0C0
FFF0C0
E070C6
E1F7FF
FFF0C7
4020C7
0000C7
7FE0C7
6060C7
6060C7
6061C7
7FE1C7
606187
606186
7FE306
60630E
60660C
6064FC
7FE878
605030
ENDCHAR
STARTCHAR CNS1-5E3A
ENCODING 13166
SWIDTH 591 0
DWIDTH 24 0
BBX 24 24 0 -2
BITMAP
2001C0
30C1C0
3FE1C0
30C1C0
30C1C0
3FC1C0
20C1C6
000FFF
7FE1C7
6061C7
6061C7
7FE1C7
6061C7
6061C7
7FE1C7
606187
606187
7FE387
100306
188306
38660E
3074FC
603878
C01030
ENDCHAR
STARTCHAR CNS5-366A
ENCODING 13167
SWIDTH 591 0
DWIDTH 24 0
BBX 24 24 0 -2
BITMAP
1000E0
18C0E0
3860C0
3430C0
6618C0
CC00C2
1803FF
1040C7
21E0C7
FF30C7
6010C7
2810C7
FCF8C7
0E38C7
4D18C7
6C99C7
2CD9C7
1C3987
FDD987
CD9B07
0C1B06
7CFE7E
1C7C3C
187818
ENDCHAR
STARTCHAR CNS3-4044
ENCODING 13168
SWIDTH 591 0
DWIDTH 24 0
BBX 24 24 0 -2
BITMAP
000040
001870
FFF860
0CC060
0CC060
7FF860
6CD866
6CDBFF
6CD867
7FF867
601867
000067
3FF067
000067
000067
FFFC67
0300C7
3340C7
3B30C7
331987
631987
430B7E
83063C
030C08
ENDCHAR
STARTCHAR CNS4-3C3C
ENCODING 13169
SWIDTH 591 0
DWIDTH 24 0
BBX 24 24 0 -2
BITMAP
030300
FF0718
030C0C
033FFE
7F3FC2
6219CC
E11FFE
FF99CC
039FFC
0399CC
0381C6
3F7FFF
0E3803
040000
003800
003808
00701C
3FFFFC
00C00C
01800C
03000C
0E03FC
1800F8
E00030
ENDCHAR
STARTCHAR CNS5-4467
ENCODING 13170
SWIDTH 591 0
DWIDTH 24 0
BBX 24 24 0 -2
BITMAP
1800E0
1880E0
3FC0C0
31C0C0
6330C0
FFF8C2
E63BFF
E630C7
E630C7
FFF0C7
0E00C7
1E1CC7
3338C7
67C0C7
8CC1C7
19E1C7
33F187
E6D987
1CDB07
30CB07
E18606
1F847E
0F083C
061018
ENDCHAR
STARTCHAR CNS2-492A
ENCODING 13171
SWIDTH 591 0
DWIDTH 24 0
BBX 24 24 0 -2
BITMAP
266060
366060
366060
FFF860
776060
366062
37E3FF
3000E7
301067
7FF867
000067
3FF867
303867
303067
3FF0C7
3030C7
3FF0C7
3031C7
3FF187
180306
18630E
3876FC
303478
603030
ENDCHAR
STARTCHAR CNS3-4621
ENCODING 13172
SWIDTH 591 0
DWIDTH 24 0
BBX 24 24 0 -2
BITMAP
00E060
07F060
3E0060
060060
0E1860
7FF860
0CE066
1873FF
3FF867
3CDC67
7CCC67
DFC067
001067
603867
7FF8C7
6018C7
6798C7
6499C6
679986
601B0E
603B0C
61F67C
606C38
605830
ENDCHAR
STARTCHAR CNS5-4463
ENCODING 13173
SWIDTH 591 0
DWIDTH 24 0
BBX 24 24 0 -2
BITMAP
060060
667060
366060
364060
7FF860
060062
0C03FF
7FF8E7
186067
133867
261C67
4CC867
B98067
0F0067
0E2067
18F0C7
7F18C7
7308C7
3321C7
331187
231986
431B3E
8F021C
060418
ENDCHAR
STARTCHAR CNS1-6C2F
ENCODING 13174
SWIDTH 591 0
DWIDTH 24 0
BBX 24 24 0 -2
BITMAP
0E0004
0E020E
0C43FF
7FE366
0C6366
0C6366
1C63FE
186366
38E366
37E366
60C3FE
E0C206
30E060
20C030
FFF818
26D950
24DB44
64DB42
64DB43
649B45
C59B45
CD9E7C
BDF67C
1B3038
ENDCHAR
STARTCHAR CNS2-4F5C
ENCODING 13175
SWIDTH 591 0
DWIDTH 24 0
BBX 24 24 0 -2
BITMAP
1860E0
1868E0
7CF8C0
1860C0
1040C0
3FF0C2
3373FF
3B70C7
3FF0C7
3370C7
3B70C7
1FE0C7
6310C7
FFF8C7
6318C7
6319C7
637987
7FF987
7C3987
681B07
601B06
60FB7E
60763C
606C18
ENDCHAR
STARTCHAR CNS2-5C4B
ENCODING 13176
SWIDTH 591 0
DWIDTH 24 0
BBX 24 24 0 -2
BITMAP
038060
038060
03F860
038060
638C60
7FFE60
630866
7FFBFF
630067
63F067
61F867
600067
6FF867
6DB867
6FF8C7
6FF8C7
6100C7
6181C7
66C187
760986
D63F0E
F7E37C
B3E678
000C30
ENDCHAR
STARTCHAR CNS5-5362
ENCODING 13177
SWIDTH 591 0
DWIDTH 24 0
BBX 24 24 0 -2
BITMAP
18C0C0
18E6C0
33FEC2
618CFF
DF3DCC
9BE74C
19FC4C
33EE7C
73FE38
F39E38
339E7C
336ECF
321D87
340F02
003800
003808
00701C
3FFFFC
00C00C
01800C
03000C
0E03FC
1800F8
E00030
ENDCHAR
STARTCHAR CNS2-653A
ENCODING 13178
SWIDTH 591 0
DWIDTH 24 0
BBX 24 24 0 -2
BITMAP
0600E0
0300E0
0318C0
7FFCC0
0000C0
3EF8C0
2698C6
2CB7FF
3CF0C7
0EE0C7
0CE8C7
3FF8C7
0CC0C7
3FF8C7
0CC1C7
FFFDC7
1F1187
1D3987
18E307
386306
5F3E0E
9E1EFC
1C0C78
181830
ENDCHAR
STARTCHAR CNS3-2156
ENCODING 13179
SWIDTH 591 0
DWIDTH 24 0
BBX 24 24 0 -2
BITMAP
060000
060000
0E0000
0C000C
0FFFFE
1C000E
18000C
31800C
30F80C
603E0C
400E0C
00020C
00000C
00000C
0003CC
001F0C
00F80C
1FC00C
1F000C
0C000C
000018
0007F8
0001F0
000060
ENDCHAR
STARTCHAR CNS3-2223
ENCODING 13180
SWIDTH 591 0
DWIDTH 24 0
BBX 24 24 0 -2
BITMAP
070000
070000
060004
07FFFE
0E0006
0C0006
180006
301C06
201C06
401806
0E1806
0C1C06
0C3606
0C3306
0C6186
0C41C6
0C8086
0C0006
0C0006
0FFFE6
00000E
0001FC
000078
000030
ENDCHAR
STARTCHAR CNS2-2556
ENCODING 13181
SWIDTH 591 0
DWIDTH 24 0
BBX 24 24 0 -2
BITMAP
0E0000
0E0000
0C0000
1C0006
1FFFFE
180006
303806
303886
6631C6
433186
01B306
003246
1FFFE6
003006
013006
03B306
033186
0630C6
0C30EE
18306C
30300C
0033FC
0001F8
000070
ENDCHAR
STARTCHAR CNS2-2557
ENCODING 13182
SWIDTH 591 0
DWIDTH 24 0
BBX 24 24 0 -2
BITMAP
0E0000
0E0000
0C0000
1C0006
1FFFFE
190006
338006
330106
63FF86
463006
043006
083046
1FFFE6
003006
043086
0731E6
0631C6
0631C6
0631CE
0FFF8C
04000C
0003FC
0001F8
000070
ENDCHAR
STARTCHAR CNS4-2551
ENCODING 13345
SWIDTH 591 0
DWIDTH 24 0
BBX 24 24 0 -2
BITMAP
1C0000
1C0000
1C0004
1FFFFE
182006
183806
303806
307806
60EC06
C1C706
0383C6
07FFF6
0E0066
300106
03FF86
030186
030186
030186
03FF8E
03010C
02000C
0003FC
0001F8
000070
ENDCHAR
STARTCHAR CNS2-3A47
ENCODING 13346
SWIDTH 591 0
DWIDTH 24 0
BBX 24 24 0 -2
BITMAP
0E0000
0E0000
0C0004
1FFFFE
180006
3B0006
330FC6
3EC0E6
7FE0C6
DCC0C6
1FC4C6
1CCFC6
1CCE06
1FCC06
1CECE6
1CFFE6
3FC066
39C066
13C066
06C066
38C0EE
77C7CC
01C1BC
008118
ENDCHAR
STARTCHAR CNS6-5074
ENCODING 13347
SWIDTH 591 0
DWIDTH 24 0
BBX 24 24 0 -2
BITMAP
0E0000
0E0000
0C0000
1C0006
1FFFFE
190006
330FC6
3FCEC6
6FEEC6
4CCCC6
0FC876
0CD036
0FCFE6
0CC4E6
0C04C6
0FE2C6
0C0386
0C0386
0FE6EE
07F86C
00100C
0003FC
0001F8
000070
ENDCHAR
STARTCHAR CNS4-305E
ENCODING 13348
SWIDTH 591 0
DWIDTH 24 0
BBX 24 24 0 -2
BITMAP
000C67
600C67
7018C6
60318C
602318
60318C
6018C6
638C66
7F8C63
600300
600300
602202
603FFF
603017
60343F
603337
60B1E7
60B0C7
61B1E7
7FB337
3FB63F
003417
003FFF
003006
ENDCHAR
STARTCHAR CNS4-2165
ENCODING 13349
SWIDTH 591 0
DWIDTH 24 0
BBX 24 24 0 -2
BITMAP
000004
60000E
7FFFFE
606000
606000
606180
60FFC0
60C180
618180
630300
660300
600300
600780
600680
600CC0
601860
603030
60601C
60C00F
638006
6E0000
600000
7FFFFF
000000
ENDCHAR
STARTCHAR CNS2-214D
ENCODING 13350
SWIDTH 591 0
DWIDTH 24 0
BBX 24 24 0 -2
BITMAP
000004
60000E
7FFFFE
600800
600E00
61CC00
61CC00
618C60
618FF0
67FC70
618C60
618CC0
618CC0
618C80
618D80
618C00
618008
618008
61FFF8
60FFF8
607FF0
600006
7FFFFF
000000
ENDCHAR
STARTCHAR CNS3-2226
ENCODING 13351
SWIDTH 591 0
DWIDTH 24 0
BBX 24 24 0 -2
BITMAP
000004
60000E
7FFFFE
600000
600000
600030
67FFF0
600C00
600C00
600C00
600C00
600C00
600C00
600C00
600C00
600C00
600C00
600C0C
6FFFFC
600000
600000
600006
7FFFFF
000000
ENDCHAR
STARTCHAR CNS2-2222
ENCODING 13352
SWIDTH 591 0
DWIDTH 24 0
BBX 24 24 0 -2
BITMAP
000004
60000E
7FFFFE
601000
601800
600C00
67FFF8
600000
600000
607FC0
6061C0
6061C0
6061C0
6061C0
60E1C0
60C1C0
60C1C4
6181CC
6301F8
6600FC
6C0078
600002
7FFFFF
000000
ENDCHAR
STARTCHAR CNS3-2465
ENCODING 13353
SWIDTH 591 0
DWIDTH 24 0
BBX 24 24 0 -2
BITMAP
000004
60000E
7FFFFE
601800
601800
603080
606060
60C030
63FFF8
63E018
614108
606180
606180
60618C
67FFFC
606180
60C180
60C180
60C180
618180
610180
620106
7FFFFF
000000
ENDCHAR
STARTCHAR CNS3-2B49
ENCODING 13354
SWIDTH 591 0
DWIDTH 24 0
BBX 24 24 0 -2
BITMAP
000004
60000E
7FFFFE
600E00
600C00
600C08
67FFFC
610C00
61CC70
618C60
618C60
63DEF0
62DA98
647B08
603180
6071C0
6060E0
60C070
61803E
63001C
6E0000
600002
7FFFFF
000000
ENDCHAR
STARTCHAR CNS4-284E
ENCODING 13355
SWIDTH 591 0
DWIDTH 24 0
BBX 24 24 0 -2
BITMAP
000004
60000E
7FFFFE
604000
6470E0
6660C0
6660C0
6660C0
6660C0
667FFE
6FE0C0
6460C0
6060C0
6460C0
67E0C0
6660C0
6660C0
6660C0
646FFC
6C6000
686000
600006
7FFFFF
000000
ENDCHAR
STARTCHAR CNS4-2850
ENCODING 13356
SWIDTH 591 0
DWIDTH 24 0
BBX 24 24 0 -2
BITMAP
000004
60000E
7FFFFE
620E00
638E1C
630E18
630E18
630E18
63FFF8
600E00
600C0C
67FFFC
600E00
600E00
600E10
63FFF8
600E00
600E00
600E08
67FFFC
600000
600002
7FFFFF
000000
ENDCHAR
STARTCHAR CNS4-2B78
ENCODING 13357
SWIDTH 591 0
DWIDTH 24 0
BBX 24 24 0 -2
BITMAP
000004
60000E
7FFFFE
618000
618018
61FFFC
63331C
623318
647318
686618
60CC38
619BF0
6670E0
600040
63FFF8
630038
630038
63FFF8
630038
63FFF0
630000
600006
7FFFFF
000000
ENDCHAR
STARTCHAR CNS4-305F
ENCODING 13358
SWIDTH 591 0
DWIDTH 24 0
BBX 24 24 0 -2
BITMAP
000004
60000E
7FFFFE
600C00
601E00
603300
606180
60C0E0
61FFFE
67001E
6E1834
63FBB0
631B30
63FB30
631B30
63FB30
633B30
631B30
663B30
64F0F0
686060
600006
7FFFFF
000000
ENDCHAR
STARTCHAR CNS2-3372
ENCODING 13359
SWIDTH 591 0
DWIDTH 24 0
BBX 24 24 0 -2
BITMAP
000004
60000E
7FFFFE
618100
6181C0
619180
6FF980
618180
6FF7F8
6D91B8
6DB1B8
6FF1B8
6D91B8
6FF138
618338
7FFB38
618339
61863B
61843E
61881E
61900C
600000
7FFFFF
000000
ENDCHAR
STARTCHAR CNS2-492C
ENCODING 13360
SWIDTH 591 0
DWIDTH 24 0
BBX 24 24 0 -2
BITMAP
000004
60000E
7FFFFE
601210
67FBF8
663338
67F3F8
663200
600060
63FFF0
638C60
638C60
63FFE0
638C60
638C60
63FFE0
600C00
600C18
67FFFC
600C00
600C00
600806
7FFFFF
000000
ENDCHAR
STARTCHAR CNS3-4623
ENCODING 13361
SWIDTH 591 0
DWIDTH 24 0
BBX 24 24 0 -2
BITMAP
000004
60000E
7FFFFE
601C00
601800
60180C
6FFFFC
607180
60E0E0
61FFFC
63E1DF
6761CF
7C61C4
607F80
600010
67F3F8
673B9C
663318
663318
67F3F8
660300
600002
7FFFFF
000000
ENDCHAR
STARTCHAR CNS3-5444
ENCODING 13362
SWIDTH 591 0
DWIDTH 24 0
BBX 24 24 0 -2
BITMAP
000006
7FFFFE
600E00
600C18
6FFFFC
600C00
63FFF0
600010
67FFFC
66731C
667398
67FFF8
61FFE0
638060
63FFE0
638060
63FFE0
638060
61FFE0
60E0C0
638070
660032
7FFFFF
000000
ENDCHAR
STARTCHAR CNS2-2558
ENCODING 13363
SWIDTH 591 0
DWIDTH 24 0
BBX 24 24 0 -2
BITMAP
000004
60000E
7FFFFE
600C00
600C00
601E00
603B00
607180
60E0E0
61C078
6380FE
677FCE
7C0002
600040
60FFE0
60C060
60C060
60C060
60C060
60FFE0
608040
600006
7FFFFF
000000
ENDCHAR
STARTCHAR CNS2-2936
ENCODING 13364
SWIDTH 591 0
DWIDTH 24 0
BBX 24 24 0 -2
BITMAP
000004
00000E
FFFFFE
600040
61FFE0
618060
618060
61FFE0
618060
618060
61FFE0
607184
6FFFFE
606180
60C300
61E700
603E00
601FC0
60F0F0
638030
700000
3FFFFF
1FFFFF
000000
ENDCHAR
STARTCHAR CNS1-5935
ENCODING 13365
SWIDTH 591 0
DWIDTH 24 0
BBX 24 24 0 -2
BITMAP
000004
00000E
FFFFFE
6001F8
621FF8
63FE00
63FFF8
63001C
630018
63FFF8
630000
63000C
63FFFC
6799CC
6799CC
67FFFC
679DDC
6599CC
6D99FC
69999C
618008
7FFFFE
3FFFFF
1FFFFF
ENDCHAR
STARTCHAR CNS4-2130
ENCODING 13366
SWIDTH 591 0
DWIDTH 24 0
BBX 24 24 0 -2
BITMAP
000040
0000E0
7FFFE0
000060
01C060
018060
018060
018060
018060
018260
018760
FFFF61
018061
018063
01807F
01803E
018000
018000
018000
018000
018000
018000
018000
018000
ENDCHAR
STARTCHAR CNS2-214E
ENCODING 13367
SWIDTH 591 0
DWIDTH 24 0
BBX 24 24 0 -2
BITMAP
1C001C
1C001C
18E398
18E318
18C318
18C318
18C318
18C318
18C318
18C318
FFFFFF
18C318
18C318
18C318
18C318
18C318
38C318
30C318
30C318
30C318
60C318
C0C318
800018
000018
ENDCHAR
STARTCHAR CNS3-232A
ENCODING 13368
SWIDTH 591 0
DWIDTH 24 0
BBX 24 24 0 -2
BITMAP
001000
001C00
001800
001800
001808
3FFFFC
001800
001800
041840
071870
061860
061060
060060
060066
FFFFFF
060060
060060
060060
060060
060060
060060
07FFE0
0600E0
040040
ENDCHAR
STARTCHAR CNS4-3060
ENCODING 13369
SWIDTH 591 0
DWIDTH 24 0
BBX 24 24 0 -2
BITMAP
38E070
38E070
30C060
30C060
FFF860
30C060
30C060
3FC077
30C7FF
30C060
3FC060
30C060
30C060
FFF860
ECC060
ECC060
ECC060
F8F860
F07860
E00060
E00060
7FF860
3FF860
000060
ENDCHAR
STARTCHAR CNS4-6630
ENCODING 13370
SWIDTH 591 0
DWIDTH 24 0
BBX 24 24 0 -2
BITMAP
1C3030
1C1870
38FF60
7300CC
7606D8
1C7E70
13006C
277EDE
7D81F6
307EC0
026604
2B66B6
6DFF9B
C40190
001D00
001800
001806
FFFFFF
001800
001800
001800
001800
001800
001000
ENDCHAR
STARTCHAR CNS1-4626
ENCODING 13371
SWIDTH 591 0
DWIDTH 24 0
BBX 24 24 0 -2
BITMAP
007000
007000
007000
007000
007038
007FF8
007000
007000
007002
FFFFFF
007000
007000
007000
007600
007380
0070C0
007070
007038
007018
007008
007000
007000
007000
006000
ENDCHAR
STARTCHAR CNS2-2334
ENCODING 13372
SWIDTH 591 0
DWIDTH 24 0
BBX 24 24 0 -2
BITMAP
001800
001800
00180C
001FFE
001800
001800
001800
303838
3FFFFC
300018
300018
300218
3FFF18
380718
300318
300318
300318
3FFF18
300318
300018
300018
300018
3FFFF8
300018
ENDCHAR
STARTCHAR CNS6-2A21
ENCODING 13373
SWIDTH 591 0
DWIDTH 24 0
BBX 24 24 0 -2
BITMAP
001800
001800
001804
001FFE
001800
001800
201800
30380C
3FFFFE
300C0C
301C0C
33986C
30F0EC
3071CC
30CF8C
33070C
360F0C
301D8C
3038CC
30606C
31800C
30000C
3FFFFC
20000C
ENDCHAR
STARTCHAR CNS2-2137
ENCODING 13374
SWIDTH 591 0
DWIDTH 24 0
BBX 24 24 0 -2
BITMAP
00C000
03E000
2F8C0C
380FFE
300E0C
300E0C
300E0C
300E0C
300E0C
300E0C
300E0C
300E0C
300E0C
300E0C
300E0C
31CE0C
370E0C
3C0E0C
300EFC
300E18
000E00
000E00
000E00
000C00
ENDCHAR
STARTCHAR CNS3-2228
ENCODING 13375
SWIDTH 591 0
DWIDTH 24 0
BBX 24 24 0 -2
BITMAP
000004
00460E
7FE7FF
060606
060606
060606
060606
060606
060606
060606
060606
060606
060606
060606
060606
067606
0FC606
FE06FE
70061C
200608
000600
000600
000600
000600
ENDCHAR
STARTCHAR CNS2-2335
ENCODING 13376
SWIDTH 591 0
DWIDTH 24 0
BBX 24 24 0 -2
BITMAP
000104
00718E
FFF9FF
0C3186
0C3186
0C3186
1C3186
183186
183186
33F186
31E186
60C186
C00186
007186
7FF186
607186
607186
6071FE
60719C
607188
607180
7FF180
606180
600180
ENDCHAR
STARTCHAR CNS1-4C3C
ENCODING 13377
SWIDTH 591 0
DWIDTH 24 0
BBX 24 24 0 -2
BITMAP
000000
01C006
0381FF
0301C7
0619C7
3FFDC7
36DDC7
36D9C7
36D9C7
36D9C7
36D9C7
36D9C7
36D9C7
36D9C7
36D9C7
36D9C7
36D9C7
36D9C7
36D9FE
36FFCC
FFF1C0
F801C0
4001C0
000180
ENDCHAR
STARTCHAR CNS4-3065
ENCODING 13378
SWIDTH 591 0
DWIDTH 24 0
BBX 24 24 0 -2
BITMAP
000800
5CDCC7
FEFEFF
ECCCC7
ECECC7
FCFCC7
0000C7
0018C7
7FF8C7
0000C7
0004C7
FFFEC7
3000C7
3000C7
3018C7
7FFCC7
0018C7
0018FF
0018CE
0018CC
0018C0
1FF8C0
03F0C0
00E0C0
ENDCHAR
STARTCHAR CNS4-2144
ENCODING 13379
SWIDTH 591 0
DWIDTH 24 0
BBX 24 24 0 -2
BITMAP
00C000
01C0C0
01FFE0
0301E0
060180
0C0304
1FFFFE
7C0000
1C0000
1C0000
1C0000
1C0000
1C0000
1C0000
1C0000
1C0000
180000
180000
180000
300000
300000
300000
600000
C00000
ENDCHAR
STARTCHAR CNS4-2167
ENCODING 13380
SWIDTH 591 0
DWIDTH 24 0
BBX 24 24 0 -2
BITMAP
200000
300007
3FFFFF
300020
3000F8
300FF8
33FC00
300C00
300C00
300C00
300C00
300C04
37FFFE
300C00
300C00
300C00
200C00
600C00
600C00
600C01
400C03
C00FFE
800FFE
0003FC
ENDCHAR
STARTCHAR CNS4-2166
ENCODING 13381
SWIDTH 591 0
DWIDTH 24 0
BBX 24 24 0 -2
BITMAP
200000
300007
3FFFFF
300000
300008
33FFFC
300600
300600
300600
300600
300600
300602
37FFFF
300600
300600
300600
200600
600600
600600
600600
400600
C00600
800600
000600
ENDCHAR
STARTCHAR CNS2-2336
ENCODING 13382
SWIDTH 591 0
DWIDTH 24 0
BBX 24 24 0 -2
BITMAP
000000
300007
3FFFFF
300000
300070
331FF8
33FF00
338E00
338E00
338E00
338608
33FFFC
338600
338300
338300
338300
238180
638D80
63F8C0
63C0E1
C38073
C101BE
80FF9E
00000E
ENDCHAR
STARTCHAR CNS3-2767
ENCODING 13383
SWIDTH 591 0
DWIDTH 24 0
BBX 24 24 0 -2
BITMAP
100000
180007
1FFFFF
180600
180600
180610
18FFF8
180600
180600
180600
18060C
1BFFFE
180000
180600
180600
180600
380608
31FFFC
300600
300600
600600
C00600
800607
07FFFF
ENDCHAR
STARTCHAR CNS2-255A
ENCODING 13384
SWIDTH 591 0
DWIDTH 24 0
BBX 24 24 0 -2
BITMAP
000000
300007
3FFFFF
300000
300008
33FFF8
301800
301800
303040
306060
30C030
3183F8
33FF1C
31860C
308600
300600
200610
61FFF8
600600
600600
C00600
C00604
80060E
07FFFE
ENDCHAR
STARTCHAR CNS2-293A
ENCODING 13385
SWIDTH 591 0
DWIDTH 24 0
BBX 24 24 0 -2
BITMAP
000000
300007
3FFFFF
300700
300700
30060C
37FFFE
300600
310618
31FFFC
318618
318618
31FFF8
318618
318618
31FFF8
200600
600602
6FFFFF
600600
C00600
C00600
800600
000600
ENDCHAR
STARTCHAR CNS1-5450
ENCODING 13386
SWIDTH 591 0
DWIDTH 24 0
BBX 24 24 0 -2
BITMAP
000000
300007
3FFFFF
3070E0
3070E0
3070C4
33FFFE
3070C0
3070C0
3070C0
3070C6
37FFFF
300000
300000
310030
31FFF8
318038
318038
31FFF8
218038
618038
C18038
81FFF8
018030
ENDCHAR
STARTCHAR CNS4-3068
ENCODING 13387
SWIDTH 591 0
DWIDTH 24 0
BBX 24 24 0 -2
BITMAP
200000
300007
3FFFFF
301800
301800
311010
33FFF8
33801C
338018
33FFF8
338018
338018
33FFF8
310718
300708
30661C
2FF738
6077E0
60C6C0
60C670
41863F
C37E1F
8C1E06
100C00
ENDCHAR
STARTCHAR CNS2-3A48
ENCODING 13388
SWIDTH 591 0
DWIDTH 24 0
BBX 24 24 0 -2
BITMAP
000000
300007
3FFFFF
301010
307878
37FBF8
30C060
30C060
30C060
30C064
37FBFE
30C0E0
30E0E0
31F0E0
31F9F0
33D9F8
33CBF8
66CB6C
66C66E
64CC6F
68D867
D0C060
80C060
00C040
ENDCHAR
STARTCHAR CNS3-4049
ENCODING 13389
SWIDTH 591 0
DWIDTH 24 0
BBX 24 24 0 -2
BITMAP
000004
30000E
3FFFFE
307060
307060
307066
37FFFE
307060
307060
307FE0
300600
31FFFC
31861C
318618
318618
31FFF8
300600
31FFFC
300600
600608
61FFF8
C00600
800604
03FFFC
ENDCHAR
STARTCHAR CNS3-4048
ENCODING 13390
SWIDTH 591 0
DWIDTH 24 0
BBX 24 24 0 -2
BITMAP
000000
300007
3FFFFF
30C1C0
30C1C0
30C1C0
37FDC0
30E180
30C1FE
30C10C
37FB0C
31C30C
30C19C
306C98
37FC98
3180F8
319870
31FC70
339870
231878
6318DE
C6F98F
8C7307
186600
ENDCHAR
STARTCHAR CNS4-3C40
ENCODING 13391
SWIDTH 591 0
DWIDTH 24 0
BBX 24 24 0 -2
BITMAP
200000
300007
3FFFFF
30C070
30C070
30C062
3FFBFF
31C070
31E060
33F0F8
33D9EE
36CB67
3CC663
38D860
308060
301000
220C00
638718
63030E
630027
430023
C3FFE3
83FFE0
00FFC0
ENDCHAR
STARTCHAR CNS1-6C30
ENCODING 13392
SWIDTH 591 0
DWIDTH 24 0
BBX 24 24 0 -2
BITMAP
200006
3FFFFF
30E070
30D064
37FBFE
30C060
308040
318030
31FFF8
318E30
318E30
31FFF0
318E30
318E30
31FFF0
360E04
3FFFFE
360E8E
660EEC
660FFC
66FE3C
C6707C
86003C
060008
ENDCHAR
STARTCHAR CNS2-653B
ENCODING 13393
SWIDTH 591 0
DWIDTH 24 0
BBX 24 24 0 -2
BITMAP
200006
3FFFFF
33F860
331870
33F864
331866
33FBFE
37F870
36D870
3678C8
3678CC
379987
347B03
6C1600
63FFFC
630E1C
630E18
E3FFF8
C30E18
83FFF8
830E00
000E00
000E00
000C00
ENDCHAR
STARTCHAR CNS7-6633
ENCODING 13394
SWIDTH 591 0
DWIDTH 24 0
BBX 24 24 0 -2
BITMAP
00000C
3FFFFE
306000
33FFF8
338038
33FFF8
33FFF8
306E30
37EFE0
606EE0
60CE3C
C73C1C
882002
7FF7FF
660660
6FE6FE
6C66C6
6FE6FE
6FE6FE
63B63B
7FE7FA
CFE4FE
9BADBB
330B30
ENDCHAR
STARTCHAR CNS3-215C
ENCODING 13395
SWIDTH 591 0
DWIDTH 24 0
BBX 24 24 0 -2
BITMAP
000000
007800
007000
007000
006000
006002
FFFFFF
00E000
00C000
00C000
00C600
018700
038E00
030C00
071C00
061840
061860
0C3030
186018
30C01C
219FFC
43FC0C
81C004
008000
ENDCHAR
STARTCHAR CNS4-2145
ENCODING 13396
SWIDTH 591 0
DWIDTH 24 0
BBX 24 24 0 -2
BITMAP
000000
040040
070070
060060
060060
060060
0C00C0
0C00C0
0C00C0
1C01C0
1C01C0
180180
180180
180180
318318
30830C
30C304
204206
606606
406407
FFFFFF
F87F83
402401
000000
ENDCHAR
STARTCHAR CNS3-222A
ENCODING 13397
SWIDTH 591 0
DWIDTH 24 0
BBX 24 24 0 -2
BITMAP
003800
003800
007000
00700C
7FFFFE
00E300
00C180
0181C0
0380E0
030070
062038
0C701F
18700F
606006
80E000
00C200
00C300
018180
0300C0
060060
0C3FF0
1FF838
0E0010
000000
ENDCHAR
STARTCHAR CNS4-2248
ENCODING 13398
SWIDTH 591 0
DWIDTH 24 0
BBX 24 24 0 -2
BITMAP
003800
003800
007000
006000
00C080
0180C0
030060
060030
1FFFF8
1FC018
0C0008
000000
040000
070070
060070
0E0060
0C0060
1C00C0
180188
30810C
604206
FFE7FF
F07783
603603
ENDCHAR
STARTCHAR CNS4-2559
ENCODING 13399
SWIDTH 591 0
DWIDTH 24 0
BBX 24 24 0 -2
BITMAP
001800
001800
001806
FFFFFF
001800
101830
1FFFF8
181838
181838
1FFFF8
183838
181838
181838
1FFFF8
187030
006000
00C000
018080
030040
060020
0C0010
1FFFF8
3FC00C
1C000C
ENDCHAR
STARTCHAR CNS3-3A29
ENCODING 13400
SWIDTH 591 0
DWIDTH 24 0
BBX 24 24 0 -2
BITMAP
006000
00C080
0380E0
0FFFF8
0FF838
078088
0600E0
0E01D8
19C38C
3FC3FC
3EF38C
187804
007E00
00E380
01D1FF
071C7F
1C180C
F61A20
071B98
0E198C
0C18CC
18F8CC
207000
006000
ENDCHAR
STARTCHAR CNS4-2169
ENCODING 13401
SWIDTH 591 0
DWIDTH 24 0
BBX 24 24 0 -2
BITMAP
001800
001800
001820
1FFFF0
003830
001830
001830
001830
001836
FFFFFF
001800
001840
0FFFE0
0300E0
0100C0
018180
00C300
007600
003C00
003E00
00F380
03C0FF
0E003F
F8000F
ENDCHAR
STARTCHAR CNS3-2333
ENCODING 13402
SWIDTH 591 0
DWIDTH 24 0
BBX 24 24 0 -2
BITMAP
000000
0001C0
0FFFE0
000180
038300
00E600
003E00
007F00
00E3C0
0380E0
1C0060
300020
00C00C
7FE7FE
00E20E
00C31C
118118
0D80B0
0700F0
078070
0DC0DC
18C18F
304606
601800
ENDCHAR
STARTCHAR CNS4-234F
ENCODING 13403
SWIDTH 591 0
DWIDTH 24 0
BBX 24 24 0 -2
BITMAP
001800
001800
001806
FFFFFF
001800
101830
1FFFF8
181838
181838
181838
1FFFF0
101800
001840
0FFFE0
0300C0
0181C0
00C180
006300
003E00
003C00
007F80
01E3FF
07007F
FC000E
ENDCHAR
STARTCHAR CNS3-276B
ENCODING 13404
SWIDTH 591 0
DWIDTH 24 0
BBX 24 24 0 -2
BITMAP
004008
00E01C
3FF7FC
10621C
1CC198
0780F0
038070
07C078
0C60DC
18318E
300606
404808
3FE7FC
00661C
30E218
18C218
0CC130
0781F0
0380E0
07C0E0
0CE1B8
18631F
300E0F
603806
ENDCHAR
STARTCHAR CNS3-2B4F
ENCODING 13405
SWIDTH 591 0
DWIDTH 24 0
BBX 24 24 0 -2
BITMAP
000008
60C01C
7FEFFC
60C00C
60C00C
60C00C
60C00C
7FCFFC
600008
600000
600000
60C01C
7FDFFC
600418
600638
600230
60C360
7FC1C0
6001C0
6003E0
60073C
600C1F
60380E
61E000
ENDCHAR
STARTCHAR CNS3-2B4D
ENCODING 13406
SWIDTH 591 0
DWIDTH 24 0
BBX 24 24 0 -2
BITMAP
060800
060C0C
060FFE
060C0C
060C0C
06CC0C
7FCC0C
060CFC
060C38
060C10
060C00
066FFE
FFED0E
0C0D0C
0C0D8C
180C9C
198CD8
30CC78
30CC70
60CC78
67ECDC
FC6D8F
E02D07
000C00
ENDCHAR
STARTCHAR CNS6-3578
ENCODING 13407
SWIDTH 591 0
DWIDTH 24 0
BBX 24 24 0 -2
BITMAP
000000
60700C
7FF7FE
60720E
60720C
60720C
7FF20C
60620C
60020C
604318
6FE318
600138
600130
6071B0
7FF0E0
6380E0
6FC0E0
EFA1E0
EFB1B0
CB9B18
DB861E
D38C0F
A39807
033000
ENDCHAR
STARTCHAR CNS3-404B
ENCODING 13408
SWIDTH 591 0
DWIDTH 24 0
BBX 24 24 0 -2
BITMAP
000180
0FFFC0
01C3C0
007E00
007F00
07C3C0
0E60C4
3FF7FE
18F11C
0FC0F8
0780F0
1FC1FF
F8EF0F
000002
7FFFFF
600007
C40066
C7FFE4
07FFE0
0600E0
07FFE0
060060
0E00E7
FFFFFF
ENDCHAR
STARTCHAR CNS1-4636
ENCODING 13409
SWIDTH 591 0
DWIDTH 24 0
BBX 24 24 0 -2
BITMAP
000030
0FFFF8
0C0038
0C0038
0C0038
0C0038
0C0038
0FFFF8
0C3830
003800
003000
00300C
3FFFFE
00300C
00300C
00700C
00600C
00E00C
00C00C
01800C
030018
0603F8
1C00F0
700060
ENDCHAR
STARTCHAR CNS4-216C
ENCODING 13410
SWIDTH 591 0
DWIDTH 24 0
BBX 24 24 0 -2
BITMAP
000000
0C0038
0FFFF8
0C0038
0C0038
0C0038
0C0038
0C0038
0FFFF8
080010
000000
00001C
3FFFFC
00700C
00700C
00600C
00C00C
00C00C
01C00C
03800C
070018
0E07F8
1801F0
E00060
ENDCHAR
STARTCHAR CNS1-4634
ENCODING 13411
SWIDTH 591 0
DWIDTH 24 0
BBX 24 24 0 -2
BITMAP
000004
60000E
7FFFFE
600000
600000
600000
6080C0
60FFE0
60C0C0
60C0C0
60C0C0
60C0C0
60C0C0
60C0C0
60C0C0
60FFC0
60C0C0
608000
600000
600000
600000
600006
7FFFFF
000000
ENDCHAR
STARTCHAR CNS4-224C
ENCODING 13412
SWIDTH 591 0
DWIDTH 24 0
BBX 24 24 0 -2
BITMAP
003000
001800
001802
FFFFFF
1C0000
1C0000
1C0000
1C0000
1C0000
1FFFF0
0FFFF8
07FFF8
000000
080030
1FFFF8
1C0038
1C0038
1C0038
1C0038
1C0038
1C0038
1FFFF8
1C0030
180000
ENDCHAR
STARTCHAR CNS3-233A
ENCODING 13413
SWIDTH 591 0
DWIDTH 24 0
BBX 24 24 0 -2
BITMAP
000000
000007
007FFF
C30300
FF0300
E30300
E30300
E30300
E303C0
E30370
E30338
E3031C
E3030C
E30300
E30300
FF0300
E30300
E30300
400300
000300
000300
000300
000300
000300
ENDCHAR
STARTCHAR CNS3-2476
ENCODING 13414
SWIDTH 591 0
DWIDTH 24 0
BBX 24 24 0 -2
BITMAP
000000
000038
007FF8
0C0638
FE0638
E60638
E60638
E6063F
E6FFFF
E60638
E60638
E60638
E60638
E60638
E67FF8
FE0E10
EE0C00
E40C00
401800
001800
003000
006000
00C000
018000
ENDCHAR
STARTCHAR CNS3-2479
ENCODING 13415
SWIDTH 591 0
DWIDTH 24 0
BBX 24 24 0 -2
BITMAP
000060
007860
007060
C67060
FF7060
E77060
E67060
E67060
E67060
E67E7E
E67060
E67060
E67060
E67060
E67060
E67060
FE7060
E67060
C07061
007361
007E63
00787F
00707F
00303E
ENDCHAR
STARTCHAR CNS1-4943
ENCODING 13416
SWIDTH 591 0
DWIDTH 24 0
BBX 24 24 0 -2
BITMAP
000000
00700C
007FFE
C6718C
FF718C
E7718C
E6718C
E6718C
E6718C
E6718C
E6718C
E67FFC
E6700C
E67000
E67000
E67000
FE7000
E67001
C07001
007001
007003
003FFF
001FFF
000000
ENDCHAR
STARTCHAR CNS2-2344
ENCODING 13417
SWIDTH 591 0
DWIDTH 24 0
BBX 24 24 0 -2
BITMAP
0001C0
0001C0
000180
C60184
FF018E
E77FFE
E60180
E63188
E6398E
E6318C
E6318C
E6318C
E6318C
E6318C
E6318C
E63FFC
FE319C
E60188
C60181
000181
000183
0001FF
0001FF
00007E
ENDCHAR
STARTCHAR CNS2-233A
ENCODING 13418
SWIDTH 591 0
DWIDTH 24 0
BBX 24 24 0 -2
BITMAP
0009C0
000DC0
000DC0
0619C0
FF19C0
E719C0
E639C0
E631C0
E631C6
E671FF
E671C0
E6F1C0
E7B1C0
E631C0
E631C0
E631C0
FE31C0
E631C0
4031C0
0031C1
0031C1
0031FF
0030FF
00307E
ENDCHAR
STARTCHAR CNS3-2524
ENCODING 13419
SWIDTH 591 0
DWIDTH 24 0
BBX 24 24 0 -2
BITMAP
0000F8
000FFC
1FFC00
180004
18000E
1FFFFF
180006
180006
180006
1FFFFE
180006
180004
180000
198018
19FFFC
19801C
198018
318018
318018
318018
618018
61FFF8
C18018
818000
ENDCHAR
STARTCHAR CNS1-4955
ENCODING 13420
SWIDTH 591 0
DWIDTH 24 0
BBX 24 24 0 -2
BITMAP
000380
000380
000300
C60300
FF0304
E7FFFE
E60300
E60300
E60300
E60318
E67FFC
E6101C
E61818
E60830
E60C30
E60660
FE03E0
E601C0
C003C0
000660
001C3C
00381F
00C007
078000
ENDCHAR
STARTCHAR CNS3-247B
ENCODING 13421
SWIDTH 591 0
DWIDTH 24 0
BBX 24 24 0 -2
BITMAP
000020
0C0070
0FFFF8
0C0030
0C0030
0C0030
0FFFF0
0C0020
000000
000018
3FFFFC
001800
001800
001800
001806
FFFFFF
003400
007600
006300
00C1C0
0180E0
07007F
1C003F
70000C
ENDCHAR
STARTCHAR CNS1-4950
ENCODING 13422
SWIDTH 591 0
DWIDTH 24 0
BBX 24 24 0 -2
BITMAP
0001C0
0001C0
000180
C60180
FF0180
E71190
E61998
E6198C
E63186
E63183
E62183
E66181
E6418C
E7818C
E6018C
E60198
FE0030
E60060
C000C0
000180
000700
000C00
003000
01C000
ENDCHAR
STARTCHAR CNS1-4945
ENCODING 13423
SWIDTH 591 0
DWIDTH 24 0
BBX 24 24 0 -2
BITMAP
000000
007007
007FFF
C67000
FF7000
E7740C
E677FE
E6760E
E6760C
E6760C
E6760C
E6760C
E6760C
E6760C
E6760C
E666FC
FE6618
E66600
C0C601
00C601
008603
0187FF
0103FF
0001FE
ENDCHAR
STARTCHAR CNS3-2473
ENCODING 13424
SWIDTH 591 0
DWIDTH 24 0
BBX 24 24 0 -2
BITMAP
0000C0
7FFFE0
0381C0
030180
03038C
0703FE
06000C
06000C
0C101C
181CF8
301830
601820
801808
3FFFFC
001800
001800
001820
1FFFF0
1C0030
1C0030
1C0030
1C0030
1FFFF0
180030
ENDCHAR
STARTCHAR CNS2-2346
ENCODING 13425
SWIDTH 591 0
DWIDTH 24 0
BBX 24 24 0 -2
BITMAP
001C00
001C00
001800
009830
01D878
3FDCE0
019F80
019B00
031980
0318C0
061860
0C183F
18F81F
607806
803000
000060
0FFFF0
0C0070
0C0060
0C0060
0C0060
0C0060
0FFFE0
0C0060
ENDCHAR
STARTCHAR CNS3-246D
ENCODING 13426
SWIDTH 591 0
DWIDTH 24 0
BBX 24 24 0 -2
BITMAP
000000
000000
00001C
C31FFC
FF0000
E30000
E30000
E30000
E30002
E37FFF
E30380
E30300
E30300
E30600
E30600
E30C00
FF0C00
E31818
C0180C
00103E
003FE7
003C07
001802
000000
ENDCHAR
STARTCHAR CNS2-2342
ENCODING 13427
SWIDTH 591 0
DWIDTH 24 0
BBX 24 24 0 -2
BITMAP
000638
001F38
007C38
C60C38
FF0C38
E70C38
E60C38
E60C38
E60C38
E60C38
E6FFFF
E60C38
E60C38
E60C38
E61838
E61838
FE1838
E61838
403038
003038
006038
006038
00C038
018030
ENDCHAR
STARTCHAR CNS4-2563
ENCODING 13428
SWIDTH 591 0
DWIDTH 24 0
BBX 24 24 0 -2
BITMAP
000004
00000E
007FFF
C60006
FF0006
E70066
E63FE6
E60006
E60006
E630C6
E63FE6
E630C6
E630C6
E630C6
E630C6
E630C6
E63FC6
FE30C6
E60006
400006
000006
0001FE
00003C
000008
ENDCHAR
STARTCHAR CNS1-4C51
ENCODING 13429
SWIDTH 591 0
DWIDTH 24 0
BBX 24 24 0 -2
BITMAP
000000
00700C
007FFE
C6700C
FF700C
E7700C
E6700C
E67FFC
E6700C
E67000
E67700
E67600
E67600
E67604
E677FE
E66600
FE6600
E66600
C0C601
00C601
008603
0187FF
0303FF
0201FE
ENDCHAR
STARTCHAR CNS2-256F
ENCODING 13430
SWIDTH 591 0
DWIDTH 24 0
BBX 24 24 0 -2
BITMAP
000300
000380
000380
C606C0
FF0640
E70C60
E60C30
E61838
E6301E
E6602F
E65FF7
E68000
E60000
E60038
E63FFC
E60030
FE0060
E61840
C60C80
000700
000380
0001C0
0000C0
0000C0
ENDCHAR
STARTCHAR CNS2-2567
ENCODING 13431
SWIDTH 591 0
DWIDTH 24 0
BBX 24 24 0 -2
BITMAP
000070
001070
001C60
0C3860
FE3060
E66062
E661FF
E6C477
E68E67
E78C67
E6CC67
E67867
E63867
E63067
E67867
E66C67
FEC6C7
E5FEC7
C1E7C6
00C186
00038E
00077C
000E38
001830
ENDCHAR
STARTCHAR CNS2-256E
ENCODING 13432
SWIDTH 591 0
DWIDTH 24 0
BBX 24 24 0 -2
BITMAP
000078
0001FC
007FC0
C671C0
FF71C0
E771C0
E671C0
E671C0
E671C4
E67FFE
E671C0
E670C0
E670C0
E670C0
E67060
E67060
FE7060
E67030
C67331
007C19
00701F
00300F
000FE7
000002
ENDCHAR
STARTCHAR CNS3-2774
ENCODING 13433
SWIDTH 591 0
DWIDTH 24 0
BBX 24 24 0 -2
BITMAP
000000
00000C
000FFC
C30000
FF0000
E30000
E30000
E30002
E37FFF
E301C0
E301C0
E301C0
E319C0
E319C8
E319CC
E319CE
FF31C6
E331C7
C261C3
0041C3
0081C3
0101C0
0001C0
000180
ENDCHAR
STARTCHAR CNS2-2561
ENCODING 13434
SWIDTH 591 0
DWIDTH 24 0
BBX 24 24 0 -2
BITMAP
0001C0
0001C0
000180
C30180
FF0180
E30186
E301FF
E30180
E30180
E30180
E30180
E30180
E3618C
E37FFE
E3700E
E3700C
FF700C
E3700C
C2700C
00700C
00700C
007FFC
00700C
006000
ENDCHAR
STARTCHAR CNS3-2775
ENCODING 13435
SWIDTH 591 0
DWIDTH 24 0
BBX 24 24 0 -2
BITMAP
0003B8
0003B8
003B38
063B38
FF3338
E73338
E63338
E6333A
E6FFFF
E63338
E63338
E63338
E63338
E63338
E63338
E63338
E633F8
E63330
FE3000
C63000
003000
003006
003FFF
000000
ENDCHAR
STARTCHAR CNS4-255F
ENCODING 13436
SWIDTH 591 0
DWIDTH 24 0
BBX 24 24 0 -2
BITMAP
000000
00200C
007FFE
C6700E
FF700C
E7700C
E6700C
E6700C
E6700C
E6700C
E6700C
E67FFC
E6600C
E60000
E61800
E61C10
E61808
FE180C
E6300E
403006
006007
00C003
008003
010001
ENDCHAR
STARTCHAR CNS2-2566
ENCODING 13437
SWIDTH 591 0
DWIDTH 24 0
BBX 24 24 0 -2
BITMAP
001C00
001C00
001800
C61800
FF1807
E73FFF
E66007
E66007
E6C087
E69FC7
E618E7
E618C7
E618C7
E618C7
E618C7
E61FC7
FE18C7
E61007
400006
000006
00000E
0001FC
000078
000030
ENDCHAR
STARTCHAR CNS2-255C
ENCODING 13438
SWIDTH 591 0
DWIDTH 24 0
BBX 24 24 0 -2
BITMAP
0001C0
0001C0
000180
C60180
FF0180
E7018C
E63FFE
E60180
E60180
E60180
E60180
E60186
E6FFFF
E60300
E60600
E60600
FE0C00
E60C18
C6180C
00180E
0031FE
007F87
003803
001000
ENDCHAR
STARTCHAR CNS2-255D
ENCODING 13601
SWIDTH 591 0
DWIDTH 24 0
BBX 24 24 0 -2
BITMAP
001C1C
001C1C
001818
C61818
FF1818
E71818
E67FFF
E61C18
E61818
E61818
E61818
E61818
E61818
E61C18
E61FF8
E61818
FE1818
E61818
C61818
001818
001818
001FF8
001C18
001800
ENDCHAR
STARTCHAR CNS4-2560
ENCODING 13602
SWIDTH 591 0
DWIDTH 24 0
BBX 24 24 0 -2
BITMAP
007070
007070
007760
0C6660
FE6660
ECE660
ECC666
ECC67F
EDDFE7
EDC667
EFC666
EEC666
ECC666
ECC664
ECC66C
ECC668
ECC660
FCC600
E8C601
40C601
00C603
00C7FF
00C3FF
00C1FE
ENDCHAR
STARTCHAR CNS3-276C
ENCODING 13603
SWIDTH 591 0
DWIDTH 24 0
BBX 24 24 0 -2
BITMAP
006000
003000
003800
001800
000038
1FFFF8
0C01E0
0601C0
030180
018180
018300
008206
FFFFFF
000000
080040
0FFFE0
0C00E0
0C0060
0C0060
0C0060
0C0060
0C0060
0FFFE0
0C0040
ENDCHAR
STARTCHAR CNS2-2560
ENCODING 13604
SWIDTH 591 0
DWIDTH 24 0
BBX 24 24 0 -2
BITMAP
000660
000660
000660
C6066C
FF3FFE
E7066E
E6066C
E6066C
E6266C
E67FFC
E6766C
E66660
E66660
E666E7
E67FFF
E60E67
FE0C67
E60C67
C60C67
00187E
00306E
00606C
00C060
038040
ENDCHAR
STARTCHAR CNS3-2770
ENCODING 13605
SWIDTH 591 0
DWIDTH 24 0
BBX 24 24 0 -2
BITMAP
000380
000380
000300
C60300
FF0300
E76318
E67FFC
E67318
E67318
E67318
E67318
E67318
E67318
E67318
E6FFFF
E60300
FE0300
E60660
C60E30
000C18
00180C
00300E
006006
018006
ENDCHAR
STARTCHAR CNS2-2568
ENCODING 13606
SWIDTH 591 0
DWIDTH 24 0
BBX 24 24 0 -2
BITMAP
000380
000380
000300
C60700
FF0600
E70C10
E60808
E6180C
E63006
E67FFF
E67E03
E63003
E60000
E6000C
E61FFE
E6180E
FE180C
E6180C
C6180C
00180C
00180C
001FFC
00180C
001000
ENDCHAR
STARTCHAR CNS2-255E
ENCODING 13607
SWIDTH 591 0
DWIDTH 24 0
BBX 24 24 0 -2
BITMAP
001800
001800
001802
0C19FF
FE1818
E61A18
E6FF18
E61818
E61818
E61818
E61818
E61E18
E63818
E7F818
E7F818
E6D818
FE1818
E61818
C41818
001818
001818
00F9F8
007878
003030
ENDCHAR
STARTCHAR CNS1-4C44
ENCODING 13608
SWIDTH 591 0
DWIDTH 24 0
BBX 24 24 0 -2
BITMAP
0001C0
0001C0
000180
C60180
FF0180
E70180
E60186
E6FFFF
E60180
E60180
E60180
E60180
E60188
E6319C
E63FFC
E6300C
FE300C
E6300C
C0300C
00300C
00300C
003FFC
00301C
003008
ENDCHAR
STARTCHAR CNS1-4C42
ENCODING 13609
SWIDTH 591 0
DWIDTH 24 0
BBX 24 24 0 -2
BITMAP
007000
007000
007000
007000
5C7000
FE7766
EDFF7F
EC7367
EC7367
EC7367
EC7367
EC7367
EC6367
EC6367
EC6367
EC6367
ECC367
FCC367
E8C367
40C367
018667
037E7F
021C62
041800
ENDCHAR
STARTCHAR 21-10
ENCODING 13610
SWIDTH 591 0
DWIDTH 24 0
BBX 24 24 0 -2
BITMAP
000200
000300
002182
C63FFF
FF6007
E7E006
E6C00C
E61800
E61C00
E61800
E61800
E6181C
E6187C
E619E0
E61F80
E61800
FE1800
E61801
C01801
001801
001803
001FFF
000FFF
0003FE
ENDCHAR
STARTCHAR CNS3-2B5D
ENCODING 13611
SWIDTH 591 0
DWIDTH 24 0
BBX 24 24 0 -2
BITMAP
000000
000007
007FFF
C60180
FF0180
E70300
E6360C
E63FFE
E6300E
E6300C
E6300C
E6300C
E6300C
E6300C
E63FFC
E6300C
FE300C
E6300C
C6300C
00300C
00300C
003FFC
00300C
003000
ENDCHAR
STARTCHAR CNS2-293D
ENCODING 13612
SWIDTH 591 0
DWIDTH 24 0
BBX 24 24 0 -2
BITMAP
000000
000006
007FFE
C61838
FF1838
E71838
E61FF8
E61838
E61838
E61838
E61838
E61FF8
E61838
E61838
E61838
E6183A
FEFFFF
E60038
C60038
000038
000038
000038
000038
000030
ENDCHAR
STARTCHAR CNS1-503C
ENCODING 13613
SWIDTH 591 0
DWIDTH 24 0
BBX 24 24 0 -2
BITMAP
000380
000380
000304
C67FFE
FF0380
E70308
E63FFC
E6039C
E6030C
E6030C
E67FFC
E67308
E66304
E6638E
E67FFF
E60306
FE0706
E6069E
C60CCC
000C70
00183C
00301F
00E006
038000
ENDCHAR
STARTCHAR CNS1-504A
ENCODING 13614
SWIDTH 591 0
DWIDTH 24 0
BBX 24 24 0 -2
BITMAP
000007
000187
01FF87
0C1877
FE1877
EC3067
EC3667
EC7F67
EC6367
EC6367
ECC367
ECE667
EDB667
EF1E67
EE1E67
EC0C67
FC1867
EC1867
C83807
003007
006007
00403F
00800E
00000C
ENDCHAR
STARTCHAR CNS1-5049
ENCODING 13615
SWIDTH 591 0
DWIDTH 24 0
BBX 24 24 0 -2
BITMAP
00101C
00181C
000C38
C60E30
FF0664
E77FFE
E60180
E60180
E60180
E60180
E6018C
E63FFC
E60180
E60180
E60180
E60186
FEFFFF
E60180
C60180
000180
000180
000180
000180
000180
ENDCHAR
STARTCHAR CNS1-5041
ENCODING 13616
SWIDTH 591 0
DWIDTH 24 0
BBX 24 24 0 -2
BITMAP
0001C0
0001C0
000188
C6218E
FF319C
E71998
E619B0
E609A0
E60182
E67FFF
E60180
E60180
E601A0
E61DB0
E61998
E63988
FE318C
E67186
C66187
00C183
008180
000180
000180
000180
ENDCHAR
STARTCHAR CNS2-293E
ENCODING 13617
SWIDTH 591 0
DWIDTH 24 0
BBX 24 24 0 -2
BITMAP
0001C0
0001C0
0001C0
C601C0
FF01C2
E77FFF
E601C0
E601C0
E601C0
E601C0
E601C4
E63FFE
E60000
E60000
E6200C
E63FFE
FE300C
E6300C
C6300C
00300C
00300C
003FFC
00300C
003000
ENDCHAR
STARTCHAR CNS2-2944
ENCODING 13618
SWIDTH 591 0
DWIDTH 24 0
BBX 24 24 0 -2
BITMAP
0001C0
0011C0
001980
C61980
FF3188
E73FFC
E63180
E66180
E64180
E6C180
E60186
E67FFE
E603C0
E603C0
E607E0
E60DB0
FE0DB8
E6199C
C6399F
00718F
00E186
01C180
000180
000180
ENDCHAR
STARTCHAR CNS1-5047
ENCODING 13619
SWIDTH 591 0
DWIDTH 24 0
BBX 24 24 0 -2
BITMAP
000180
000180
000304
C31FFE
FF1806
E31806
E31806
E31806
E31806
E31FFE
E31806
E31806
E31806
E31806
E31806
E31FFE
FF1806
E31806
C21806
001806
001806
001FFE
001806
001004
ENDCHAR
STARTCHAR CNS2-2943
ENCODING 13620
SWIDTH 591 0
DWIDTH 24 0
BBX 24 24 0 -2
BITMAP
000040
000770
000660
C60660
FF0660
E74666
E6266E
E6366C
E61E78
E61E70
E60660
E60660
E60E78
E61E6C
E6F66E
E6E666
FE4666
E60E60
C00C60
001861
001861
00307F
00607F
01C03E
ENDCHAR
STARTCHAR CNS3-2B51
ENCODING 13621
SWIDTH 591 0
DWIDTH 24 0
BBX 24 24 0 -2
BITMAP
000200
000300
000180
C62186
FF3FFF
E76007
E6C704
E6C708
E60600
E60600
E60638
E60E3A
E6FFFF
E60C30
E61830
E61860
FE1860
E63FE0
C603C0
0001F0
0003BC
000F1E
00180E
00F004
ENDCHAR
STARTCHAR CNS2-293C
ENCODING 13622
SWIDTH 591 0
DWIDTH 24 0
BBX 24 24 0 -2
BITMAP
000000
000004
003FFE
C60000
FF0000
E71008
E61FFC
E6181C
E6180C
E6180C
E6180C
E6180C
E61FFC
E6180C
E6180C
E6180C
FE180C
E61FFC
C6180C
001000
000000
000002
00FFFF
000000
ENDCHAR
STARTCHAR CNS1-5048
ENCODING 13623
SWIDTH 591 0
DWIDTH 24 0
BBX 24 24 0 -2
BITMAP
0038E0
0038E0
0030C0
CC70C0
FE60C0
EC60C0
EC6FFE
ECC0C0
ECC0C0
EDC1C0
EDC1E0
EFC1E0
EEC1F0
ECC3F0
ECC2D8
FCC6D8
ECC4CC
ECCCCE
40C8C7
00F0C3
00C0C0
00C0C0
00C0C0
00C0C0
ENDCHAR
STARTCHAR CNS1-504B
ENCODING 13624
SWIDTH 591 0
DWIDTH 24 0
BBX 24 24 0 -2
BITMAP
003000
003008
003FFC
0C718C
FE618C
EC618C
ECC18C
ECC18C
EDDFFF
EDC18C
EFC18C
EEC18C
ECC18C
ECC18C
ECCFFC
ECC18C
FCC180
ECC180
C8C300
00C300
00C300
00C600
00CC00
00D800
ENDCHAR
STARTCHAR CNS2-2948
ENCODING 13625
SWIDTH 591 0
DWIDTH 24 0
BBX 24 24 0 -2
BITMAP
000300
000300
00061C
C60FFC
FF0C18
E71C38
E63630
E623E0
E601C0
E60380
E60F80
E639C0
E66186
E603FF
E60307
E6060E
FE0F0C
E639D8
C660F0
0000E0
0001C0
000700
001C00
00F000
ENDCHAR
STARTCHAR CNS3-2B55
ENCODING 13626
SWIDTH 591 0
DWIDTH 24 0
BBX 24 24 0 -2
BITMAP
000300
000300
000300
C60700
FF0607
E77FFF
E60600
E60C00
E60C0C
E61FFE
E61C0C
E63C0C
E66C0C
E64FFC
E68C0C
E70C0C
FE0C0C
E60FFC
C6180C
00180C
00180C
00307C
00303C
006018
ENDCHAR
STARTCHAR CNS3-2B61
ENCODING 13627
SWIDTH 591 0
DWIDTH 24 0
BBX 24 24 0 -2
BITMAP
000380
000380
000300
C60300
FF0606
E77FFF
E66007
E66007
E66007
E66067
E667F7
E66677
E66667
E66667
E66667
E66667
FE6667
E667E7
C66667
006007
006007
00603F
00600E
00600C
ENDCHAR
STARTCHAR CNS1-5039
ENCODING 13628
SWIDTH 591 0
DWIDTH 24 0
BBX 24 24 0 -2
BITMAP
003838
003838
003430
00FEFE
E63030
FF3030
E63030
E60000
E6003C
E61038
E61830
E60870
E60C60
E60660
E606C0
E603C0
FE03C0
E607E0
C00E70
001C78
00303C
00601F
01C00E
070004
ENDCHAR
STARTCHAR CNS2-2E46
ENCODING 13629
SWIDTH 591 0
DWIDTH 24 0
BBX 24 24 0 -2
BITMAP
0001C0
0019C0
001DC0
C619C0
FF19C0
E719CC
E63FFE
E631C0
E621C0
E661C0
E601C2
E6FFFF
E60000
E60000
E6180C
E61FFE
FE180C
E6180C
C6180C
00180C
00180C
001FFC
00180C
001000
ENDCHAR
STARTCHAR CNS1-5461
ENCODING 13630
SWIDTH 591 0
DWIDTH 24 0
BBX 24 24 0 -2
BITMAP
000044
000E6E
01FF7F
0C6666
FE6664
E6666C
E6666C
E66668
E6FE78
E66668
E66664
E66666
E66667
E66663
E6FE63
E66663
FEC663
E6C67F
C4C66E
008664
018E60
037C60
023860
041040
ENDCHAR
STARTCHAR CNS4-2C26
ENCODING 13631
SWIDTH 591 0
DWIDTH 24 0
BBX 24 24 0 -2
BITMAP
003000
003007
0037FF
0C700C
FE700C
EC604C
EC67EC
ECE6EC
ECE66C
EDE66C
ED666C
EF666C
EC666C
EC66EC
EC67EC
EC664C
EC600C
FC600C
E8600C
40600C
00600C
0060FC
00603C
006018
ENDCHAR
STARTCHAR CNS3-2F77
ENCODING 13632
SWIDTH 591 0
DWIDTH 24 0
BBX 24 24 0 -2
BITMAP
000008
00301C
003FFC
C6300C
FF300C
E7300C
E63FFC
E6300C
E6300C
E6300C
E63FFC
E6300C
E6300C
E6300C
E63FFC
E62668
FE0660
E60660
C60C61
000C61
001863
00307F
00607F
03803E
ENDCHAR
STARTCHAR CNS3-3022
ENCODING 13633
SWIDTH 591 0
DWIDTH 24 0
BBX 24 24 0 -2
BITMAP
000E38
000E38
000E38
C67E3F
FF0E38
E70E38
E60C30
E60000
E60004
E61FFE
E601C0
E601C0
E601C0
E601C0
E601C2
E67FFF
FE01C0
E601C0
C601C0
0001C0
0001C0
0001C0
0001C0
000180
ENDCHAR
STARTCHAR CNS1-5456
ENCODING 13634
SWIDTH 591 0
DWIDTH 24 0
BBX 24 24 0 -2
BITMAP
000300
000180
000186
C6FFFF
FF0000
E72018
E63FFC
E63018
E63018
E63FF8
E63000
E60008
E67FFC
E6003C
E60070
E601C0
FE0180
E60180
C60180
000180
000180
001F80
000F00
000200
ENDCHAR
STARTCHAR CNS4-2C29
ENCODING 13635
SWIDTH 591 0
DWIDTH 24 0
BBX 24 24 0 -2
BITMAP
000840
000C20
000C30
C61818
FF180E
E73007
E66003
E6FFFC
E6300C
E6300C
E6300C
E6300C
E6300C
E63FFC
E63660
E60660
E60660
FE0E60
E60C60
401861
003061
00607F
00C03F
03801E
ENDCHAR
STARTCHAR CNS2-2E3B
ENCODING 13636
SWIDTH 591 0
DWIDTH 24 0
BBX 24 24 0 -2
BITMAP
070000
070008
0633FC
7FFB0C
06330C
06330C
0C330C
1C730C
3FE3FC
71C308
C08000
000002
FFFFFF
000060
041860
07F860
061860
061860
07F860
061060
040060
0007E0
0003C0
000180
ENDCHAR
ENDFONT
